M48
;Layer_Color=9474304
;FILE_FORMAT=2:5
INCH,LZ
;TYPE=PLATED
T1F00S00C0.00787
T2F00S00C0.01200
T3F00S00C0.03543
T4F00S00C0.03937
T6F00S00C0.12500
%
T01
X0178504Y0121004
X0182835
X0187165
X0191496
Y0125335
X0187165
Y0129665
X0191496
Y0133996
X0187165
X0182835
Y0129665
Y0125335
X0178504
Y0129665
Y0133996
X0086831Y0145669
Y015
Y0154331
X00825
X0078169
Y015
Y0145669
X00825
Y015
T02
X0076Y003
X008Y004
X00525Y0055
X0175Y004
X0184Y003
X01995Y00195
X0209Y0048
X029Y0145
Y0166
X0229Y0129
X0217Y0136
X021Y0139
X0197Y0146
X0165Y0145
X0161Y0147
Y0162
X0157Y0158
X0148Y0132
X0144Y0129
X0133Y0123
X0129Y0135
X0116Y0125
X0128Y0172
X0173Y011
X0176Y0106
X018Y01085
X0196Y0067
X0098Y0062
Y0077
X007376Y006376
X0067Y007
X0057Y00735
X005Y0075
X0051Y0087
X004Y01125
X00625Y0115
X00745Y01195
X0068Y014
X0065Y01475
X006Y0145
X0065Y0155
X0069Y0171
X0077Y0169
X0085Y0168
X0089Y0165
X0091Y0178
X0098
X0103Y0201
X009
X0067Y0179
X0044Y0181
Y0175
X0013Y0173
X0019Y0187
X002Y015
X0025Y0145
X00075Y01125
X0105Y0128
X01Y01425
X00975Y01475
T03
X016Y001
X017
X018
X019
X02
X021
X022
X023
X025
X026
X027
X028
X029
X03
Y02
X029
X028
X027
X026
X025
X024
X023
X0214
X0204
X0194
X0184
X0174
X0164
X0154
X0144
X0134
X0124
X00675Y02025
X00575
X00475
X00375
X00275
X00175
X00075
T04
X0300552Y0099902
X0300551Y0109803
X0310551
X0310552Y0099902
X0310551Y0119803
X0300551
X0211Y0077
X0191787
X01675Y00775
X01575
X01475
X01375
X01275
X01175
X01075
Y00875
X01175
X01275
X01375
X01475
X01575
X01675
X0122Y0138
Y0148
X0121999Y0157901
X0111999
X0112Y0148
Y0138
X0025Y0138839
Y0156161
T06
X031Y014
M30
