G04 Layer_Physical_Order=2*
G04 Layer_Color=16711680*
%FSLAX25Y25*%
%MOIN*%
G70*
G01*
G75*
%ADD31C,0.02000*%
%ADD32C,0.01000*%
%ADD33C,0.05906*%
%ADD34R,0.05906X0.05906*%
%ADD35O,0.08000X0.18000*%
%ADD36O,0.18000X0.08000*%
%ADD37C,0.12500*%
%ADD38C,0.07874*%
%ADD39R,0.05906X0.05906*%
%ADD40C,0.02400*%
%ADD41C,0.01969*%
%ADD42C,0.00800*%
G36*
X303150Y203553D02*
X296447D01*
Y196447D01*
X298879D01*
Y172465D01*
X292324Y165910D01*
X292122Y165947D01*
X291814Y166107D01*
X291696Y166702D01*
X291298Y167298D01*
X291122Y167415D01*
Y196619D01*
X291792Y196897D01*
X292534Y197466D01*
X293103Y198208D01*
X293461Y199073D01*
X293583Y200000D01*
X293461Y200927D01*
X293103Y201792D01*
X292534Y202534D01*
X291792Y203103D01*
X290927Y203461D01*
X290000Y203583D01*
X289073Y203461D01*
X288208Y203103D01*
X287466Y202534D01*
X286897Y201792D01*
X286539Y200927D01*
X286417Y200000D01*
X286539Y199073D01*
X286897Y198208D01*
X287466Y197466D01*
X288208Y196897D01*
X288878Y196619D01*
Y167415D01*
X288702Y167298D01*
X288304Y166702D01*
X288165Y166000D01*
X288304Y165298D01*
X288702Y164702D01*
X289298Y164304D01*
X289893Y164186D01*
X290053Y163878D01*
X290090Y163676D01*
X251535Y125122D01*
X212465D01*
X168793Y168793D01*
X168429Y169036D01*
X168000Y169122D01*
X168000Y169122D01*
X86415D01*
X86298Y169298D01*
X85702Y169696D01*
X85000Y169835D01*
X84298Y169696D01*
X83702Y169298D01*
X83304Y168702D01*
X83165Y168000D01*
X83304Y167298D01*
X83702Y166702D01*
X84298Y166304D01*
X85000Y166165D01*
X85702Y166304D01*
X86298Y166702D01*
X86415Y166878D01*
X87671D01*
X87823Y166378D01*
X87702Y166298D01*
X87304Y165702D01*
X87165Y165000D01*
X87304Y164298D01*
X87702Y163702D01*
X88298Y163304D01*
X89000Y163165D01*
X89702Y163304D01*
X90298Y163702D01*
X90415Y163878D01*
X159424D01*
X159641Y163378D01*
X159436Y163122D01*
X116098D01*
X115669Y163036D01*
X115305Y162793D01*
X115305Y162793D01*
X113597Y161084D01*
X112926Y161362D01*
X111999Y161484D01*
X111072Y161362D01*
X110207Y161004D01*
X109465Y160435D01*
X108896Y159693D01*
X108538Y158828D01*
X108416Y157901D01*
X108538Y156973D01*
X108896Y156109D01*
X109465Y155367D01*
X110207Y154797D01*
X111072Y154439D01*
X111999Y154317D01*
X112926Y154439D01*
X113791Y154797D01*
X114533Y155367D01*
X115102Y156109D01*
X115460Y156973D01*
X115582Y157901D01*
X115460Y158828D01*
X115183Y159498D01*
X116563Y160878D01*
X119310D01*
X119422Y160378D01*
X118896Y159693D01*
X118538Y158828D01*
X118416Y157901D01*
X118538Y156973D01*
X118896Y156109D01*
X119465Y155367D01*
X120207Y154797D01*
X121072Y154439D01*
X121999Y154317D01*
X122926Y154439D01*
X123791Y154797D01*
X124533Y155367D01*
X125102Y156109D01*
X125380Y156779D01*
X155651D01*
X155702Y156702D01*
X156298Y156304D01*
X157000Y156165D01*
X157702Y156304D01*
X158298Y156702D01*
X158696Y157298D01*
X158835Y158000D01*
X158696Y158702D01*
X158298Y159298D01*
X157702Y159696D01*
X157000Y159835D01*
X156298Y159696D01*
X155702Y159298D01*
X155518Y159022D01*
X125380D01*
X125102Y159693D01*
X124576Y160378D01*
X124688Y160878D01*
X159585D01*
X159702Y160702D01*
X160298Y160304D01*
X161000Y160165D01*
X161702Y160304D01*
X162298Y160702D01*
X162696Y161298D01*
X162835Y162000D01*
X162696Y162702D01*
X162298Y163298D01*
X162177Y163378D01*
X162329Y163878D01*
X166535D01*
X210207Y120207D01*
X210207Y120207D01*
X210571Y119964D01*
X211000Y119878D01*
X211000Y119878D01*
X266000D01*
X266000Y119878D01*
X266429Y119964D01*
X266793Y120207D01*
X289792Y143206D01*
X290000Y143165D01*
X290702Y143304D01*
X291298Y143702D01*
X291696Y144298D01*
X291835Y145000D01*
X291696Y145702D01*
X291298Y146298D01*
X290702Y146696D01*
X290000Y146835D01*
X289298Y146696D01*
X288702Y146298D01*
X288304Y145702D01*
X288165Y145000D01*
X288206Y144792D01*
X265535Y122122D01*
X211465D01*
X167793Y165793D01*
X167429Y166036D01*
X167000Y166122D01*
X167000Y166122D01*
X90564D01*
X90359Y166378D01*
X90576Y166878D01*
X167535D01*
X211207Y123207D01*
X211207Y123207D01*
X211571Y122964D01*
X212000Y122878D01*
X212000Y122878D01*
X252000D01*
X252000Y122878D01*
X252429Y122964D01*
X252793Y123207D01*
X300793Y171207D01*
X300793Y171207D01*
X301036Y171571D01*
X301122Y172000D01*
X301121Y172000D01*
Y196447D01*
X303150D01*
Y157480D01*
X314743Y145887D01*
X314708Y145644D01*
X314174Y145436D01*
X313824Y145723D01*
X312634Y146359D01*
X311343Y146751D01*
X310000Y146883D01*
X308657Y146751D01*
X307366Y146359D01*
X306176Y145723D01*
X305133Y144867D01*
X304277Y143824D01*
X303641Y142634D01*
X303249Y141343D01*
X303117Y140000D01*
X303249Y138657D01*
X303641Y137366D01*
X304277Y136176D01*
X305133Y135133D01*
X306176Y134277D01*
X307366Y133641D01*
X308657Y133249D01*
X310000Y133117D01*
X311343Y133249D01*
X312634Y133641D01*
X313824Y134277D01*
X314461Y134799D01*
X314961Y134563D01*
Y100531D01*
X314461Y100498D01*
X314403Y100934D01*
X314005Y101896D01*
X313371Y102721D01*
X312546Y103355D01*
X311584Y103753D01*
X311052Y103823D01*
Y99902D01*
Y95981D01*
X311584Y96051D01*
X312546Y96450D01*
X313371Y97083D01*
X314005Y97909D01*
X314403Y98870D01*
X314461Y99307D01*
X314961Y99274D01*
Y19685D01*
X307087Y11811D01*
Y3937D01*
X3937D01*
Y200515D01*
X4258Y200650D01*
X4437Y200656D01*
X4966Y199966D01*
X5708Y199397D01*
X6572Y199039D01*
X7500Y198917D01*
X8427Y199039D01*
X9292Y199397D01*
X10034Y199966D01*
X10603Y200708D01*
X10961Y201573D01*
X11083Y202500D01*
X10961Y203427D01*
X10631Y204224D01*
X10824Y204724D01*
X14176D01*
X14369Y204224D01*
X14039Y203427D01*
X13917Y202500D01*
X14039Y201573D01*
X14397Y200708D01*
X14966Y199966D01*
X15708Y199397D01*
X16573Y199039D01*
X17500Y198917D01*
X18427Y199039D01*
X19292Y199397D01*
X20034Y199966D01*
X20603Y200708D01*
X20961Y201573D01*
X21083Y202500D01*
X20961Y203427D01*
X20631Y204224D01*
X20824Y204724D01*
X24176D01*
X24369Y204224D01*
X24039Y203427D01*
X23917Y202500D01*
X24039Y201573D01*
X24397Y200708D01*
X24966Y199966D01*
X25708Y199397D01*
X26573Y199039D01*
X27500Y198917D01*
X28427Y199039D01*
X29292Y199397D01*
X30034Y199966D01*
X30603Y200708D01*
X30961Y201573D01*
X31083Y202500D01*
X30961Y203427D01*
X30631Y204224D01*
X30824Y204724D01*
X34176D01*
X34369Y204224D01*
X34039Y203427D01*
X33917Y202500D01*
X34039Y201573D01*
X34397Y200708D01*
X34966Y199966D01*
X35708Y199397D01*
X36573Y199039D01*
X37500Y198917D01*
X38427Y199039D01*
X39292Y199397D01*
X40034Y199966D01*
X40603Y200708D01*
X40961Y201573D01*
X41083Y202500D01*
X40961Y203427D01*
X40631Y204224D01*
X40824Y204724D01*
X44176D01*
X44369Y204224D01*
X44039Y203427D01*
X43917Y202500D01*
X44039Y201573D01*
X44397Y200708D01*
X44966Y199966D01*
X45708Y199397D01*
X46573Y199039D01*
X47500Y198917D01*
X48427Y199039D01*
X49292Y199397D01*
X50034Y199966D01*
X50603Y200708D01*
X50961Y201573D01*
X51083Y202500D01*
X50961Y203427D01*
X50631Y204224D01*
X50824Y204724D01*
X53625D01*
X53936Y204224D01*
X53649Y203532D01*
X53579Y203000D01*
X57500D01*
X61421D01*
X61351Y203532D01*
X61064Y204224D01*
X61375Y204724D01*
X63947D01*
Y201254D01*
X59324Y196631D01*
X17000D01*
X16376Y196507D01*
X15846Y196153D01*
X10847Y191154D01*
X10493Y190624D01*
X10369Y190000D01*
Y184000D01*
X10493Y183376D01*
X10847Y182846D01*
X13847Y179847D01*
X14376Y179493D01*
X15000Y179369D01*
X43202D01*
X43298Y179304D01*
X44000Y179165D01*
X44702Y179304D01*
X45298Y179702D01*
X45696Y180298D01*
X45718Y180411D01*
X46676Y181369D01*
X65685D01*
X65837Y180869D01*
X65414Y180586D01*
X64928Y179858D01*
X64856Y179500D01*
X69144D01*
X69072Y179858D01*
X68962Y180024D01*
X69350Y180343D01*
X72369Y177324D01*
Y172000D01*
X72493Y171376D01*
X72847Y170846D01*
X75282Y168411D01*
X75304Y168298D01*
X75369Y168202D01*
Y165000D01*
X75493Y164376D01*
X75846Y163847D01*
X80847Y158846D01*
X81376Y158493D01*
X82000Y158369D01*
X94324D01*
X101369Y151324D01*
Y144352D01*
X100869Y144084D01*
X100702Y144196D01*
X100000Y144335D01*
X99298Y144196D01*
X99122Y144078D01*
X98622Y144345D01*
Y146085D01*
X98798Y146202D01*
X99196Y146798D01*
X99335Y147500D01*
X99196Y148202D01*
X98798Y148798D01*
X98202Y149196D01*
X97500Y149335D01*
X96798Y149196D01*
X96202Y148798D01*
X95804Y148202D01*
X95665Y147500D01*
X95804Y146798D01*
X96202Y146202D01*
X96378Y146085D01*
Y133965D01*
X51208Y88794D01*
X51000Y88835D01*
X50298Y88696D01*
X49702Y88298D01*
X49304Y87702D01*
X49165Y87000D01*
X49304Y86298D01*
X49702Y85702D01*
X50298Y85304D01*
X51000Y85165D01*
X51702Y85304D01*
X52298Y85702D01*
X52696Y86298D01*
X52835Y87000D01*
X52794Y87208D01*
X98293Y132707D01*
X98378Y132835D01*
X98878Y132683D01*
Y125465D01*
X50208Y76794D01*
X50000Y76835D01*
X49298Y76696D01*
X48702Y76298D01*
X48304Y75702D01*
X48165Y75000D01*
X48202Y74812D01*
X47741Y74566D01*
X9218Y113089D01*
X9196Y113202D01*
X8798Y113798D01*
X8202Y114196D01*
X7500Y114335D01*
X6798Y114196D01*
X6202Y113798D01*
X5804Y113202D01*
X5665Y112500D01*
X5804Y111798D01*
X6202Y111202D01*
X6798Y110804D01*
X6911Y110782D01*
X50869Y66824D01*
Y55798D01*
X50804Y55702D01*
X50665Y55000D01*
X50804Y54298D01*
X51202Y53702D01*
X51798Y53304D01*
X52500Y53165D01*
X53202Y53304D01*
X53798Y53702D01*
X54196Y54298D01*
X54335Y55000D01*
X54196Y55702D01*
X54131Y55798D01*
Y67500D01*
X54007Y68124D01*
X53654Y68654D01*
X49566Y72741D01*
X49812Y73202D01*
X50000Y73165D01*
X50702Y73304D01*
X51298Y73702D01*
X51696Y74298D01*
X51835Y75000D01*
X51794Y75208D01*
X100793Y124207D01*
X100793Y124207D01*
X101036Y124571D01*
X101122Y125000D01*
X101122Y125000D01*
Y137031D01*
X101622Y137183D01*
X101847Y136846D01*
X114053Y124639D01*
X64035Y74622D01*
X58415D01*
X58298Y74798D01*
X57702Y75196D01*
X57000Y75335D01*
X56298Y75196D01*
X55702Y74798D01*
X55304Y74202D01*
X55165Y73500D01*
X55304Y72798D01*
X55702Y72202D01*
X56298Y71804D01*
X57000Y71665D01*
X57702Y71804D01*
X58298Y72202D01*
X58415Y72378D01*
X64500D01*
X64500Y72378D01*
X64929Y72464D01*
X65293Y72707D01*
X115639Y123053D01*
X134846Y103847D01*
X135376Y103493D01*
X136000Y103369D01*
X159324D01*
X171202Y91491D01*
X170933Y91053D01*
X170602Y91053D01*
X163947D01*
Y83947D01*
X171053D01*
Y90569D01*
X171053Y90933D01*
X171491Y91202D01*
X180869Y81824D01*
Y70000D01*
X180993Y69376D01*
X181346Y68846D01*
X188369Y61824D01*
Y13170D01*
X188208Y13103D01*
X187466Y12534D01*
X186897Y11792D01*
X186539Y10927D01*
X186417Y10000D01*
X186539Y9072D01*
X186897Y8208D01*
X187466Y7466D01*
X188208Y6897D01*
X189073Y6539D01*
X190000Y6417D01*
X190927Y6539D01*
X191792Y6897D01*
X192534Y7466D01*
X193103Y8208D01*
X193461Y9072D01*
X193583Y10000D01*
X193461Y10927D01*
X193103Y11792D01*
X192534Y12534D01*
X191792Y13103D01*
X191631Y13170D01*
Y62500D01*
X191507Y63124D01*
X191154Y63653D01*
X184131Y70676D01*
Y82500D01*
X184131Y82500D01*
X184007Y83124D01*
X183653Y83653D01*
X161153Y106154D01*
X160624Y106507D01*
X160000Y106631D01*
X136676D01*
X117718Y125589D01*
X117696Y125702D01*
X117298Y126298D01*
X116702Y126696D01*
X116589Y126718D01*
X104631Y138676D01*
Y152000D01*
X104507Y152624D01*
X104154Y153154D01*
X96153Y161153D01*
X95624Y161507D01*
X95000Y161631D01*
X82676D01*
X78631Y165676D01*
Y168202D01*
X78696Y168298D01*
X78718Y168411D01*
X80676Y170369D01*
X127202D01*
X127298Y170304D01*
X128000Y170165D01*
X128702Y170304D01*
X129298Y170702D01*
X129696Y171298D01*
X129718Y171411D01*
X145153Y186846D01*
X145507Y187376D01*
X145631Y188000D01*
Y196830D01*
X145792Y196897D01*
X146534Y197466D01*
X147103Y198208D01*
X147461Y199073D01*
X147583Y200000D01*
X147461Y200927D01*
X147103Y201792D01*
X146534Y202534D01*
X145792Y203103D01*
X144927Y203461D01*
X144000Y203583D01*
X143073Y203461D01*
X142208Y203103D01*
X141466Y202534D01*
X140897Y201792D01*
X140539Y200927D01*
X140417Y200000D01*
X140539Y199073D01*
X140897Y198208D01*
X141466Y197466D01*
X142208Y196897D01*
X142369Y196830D01*
Y188676D01*
X127411Y173718D01*
X127298Y173696D01*
X127202Y173631D01*
X80000D01*
X79376Y173507D01*
X78847Y173153D01*
X77000Y171307D01*
X75631Y172676D01*
Y178000D01*
X75507Y178624D01*
X75153Y179154D01*
X70153Y184153D01*
X69624Y184507D01*
X69000Y184631D01*
X46000D01*
X45376Y184507D01*
X44846Y184153D01*
X43411Y182718D01*
X43298Y182696D01*
X43202Y182631D01*
X15676D01*
X13631Y184676D01*
Y189324D01*
X17676Y193369D01*
X60000D01*
X60624Y193493D01*
X61154Y193846D01*
X66254Y198947D01*
X71053D01*
Y204724D01*
X303150D01*
Y203553D01*
D02*
G37*
%LPC*%
G36*
X90000Y202835D02*
X89298Y202696D01*
X88702Y202298D01*
X88585Y202122D01*
X81000D01*
X81000Y202122D01*
X80571Y202036D01*
X80207Y201793D01*
X66535Y188122D01*
X20415D01*
X20298Y188298D01*
X19702Y188696D01*
X19000Y188835D01*
X18298Y188696D01*
X17702Y188298D01*
X17304Y187702D01*
X17165Y187000D01*
X17304Y186298D01*
X17702Y185702D01*
X18298Y185304D01*
X19000Y185165D01*
X19702Y185304D01*
X20298Y185702D01*
X20415Y185878D01*
X67000D01*
X67000Y185878D01*
X67429Y185964D01*
X67793Y186207D01*
X81465Y199878D01*
X88585D01*
X88702Y199702D01*
X89298Y199304D01*
X90000Y199165D01*
X90702Y199304D01*
X91298Y199702D01*
X91696Y200298D01*
X91835Y201000D01*
X91696Y201702D01*
X91298Y202298D01*
X90702Y202696D01*
X90000Y202835D01*
D02*
G37*
G36*
X103500Y203144D02*
Y201500D01*
X105144D01*
X105072Y201858D01*
X104586Y202586D01*
X103858Y203072D01*
X103500Y203144D01*
D02*
G37*
G36*
X102500D02*
X102142Y203072D01*
X101414Y202586D01*
X100928Y201858D01*
X100856Y201500D01*
X102500D01*
Y203144D01*
D02*
G37*
G36*
X154500Y203921D02*
Y200500D01*
X157921D01*
X157851Y201032D01*
X157453Y201993D01*
X156819Y202819D01*
X155993Y203453D01*
X155032Y203851D01*
X154500Y203921D01*
D02*
G37*
G36*
X153500D02*
X152968Y203851D01*
X152007Y203453D01*
X151181Y202819D01*
X150547Y201993D01*
X150149Y201032D01*
X150079Y200500D01*
X153500D01*
Y203921D01*
D02*
G37*
G36*
X105144Y200500D02*
X103500D01*
Y198856D01*
X103858Y198928D01*
X104586Y199414D01*
X105072Y200142D01*
X105144Y200500D01*
D02*
G37*
G36*
X102500D02*
X100856D01*
X100928Y200142D01*
X101414Y199414D01*
X102142Y198928D01*
X102500Y198856D01*
Y200500D01*
D02*
G37*
G36*
X61421Y202000D02*
X58000D01*
Y198579D01*
X58532Y198649D01*
X59493Y199047D01*
X60319Y199681D01*
X60953Y200507D01*
X61351Y201468D01*
X61421Y202000D01*
D02*
G37*
G36*
X57000D02*
X53579D01*
X53649Y201468D01*
X54047Y200507D01*
X54681Y199681D01*
X55507Y199047D01*
X56468Y198649D01*
X57000Y198579D01*
Y202000D01*
D02*
G37*
G36*
X217553Y203553D02*
X210447D01*
Y196447D01*
X217553D01*
Y203553D01*
D02*
G37*
G36*
X280000Y203583D02*
X279073Y203461D01*
X278208Y203103D01*
X277466Y202534D01*
X276897Y201792D01*
X276539Y200927D01*
X276417Y200000D01*
X276539Y199073D01*
X276897Y198208D01*
X277466Y197466D01*
X278208Y196897D01*
X279073Y196539D01*
X280000Y196417D01*
X280927Y196539D01*
X281792Y196897D01*
X282534Y197466D01*
X283103Y198208D01*
X283461Y199073D01*
X283583Y200000D01*
X283461Y200927D01*
X283103Y201792D01*
X282534Y202534D01*
X281792Y203103D01*
X280927Y203461D01*
X280000Y203583D01*
D02*
G37*
G36*
X270000D02*
X269073Y203461D01*
X268208Y203103D01*
X267466Y202534D01*
X266897Y201792D01*
X266539Y200927D01*
X266417Y200000D01*
X266539Y199073D01*
X266897Y198208D01*
X267466Y197466D01*
X268208Y196897D01*
X269073Y196539D01*
X270000Y196417D01*
X270927Y196539D01*
X271792Y196897D01*
X272534Y197466D01*
X273103Y198208D01*
X273461Y199073D01*
X273583Y200000D01*
X273461Y200927D01*
X273103Y201792D01*
X272534Y202534D01*
X271792Y203103D01*
X270927Y203461D01*
X270000Y203583D01*
D02*
G37*
G36*
X260000D02*
X259073Y203461D01*
X258208Y203103D01*
X257466Y202534D01*
X256897Y201792D01*
X256539Y200927D01*
X256417Y200000D01*
X256539Y199073D01*
X256897Y198208D01*
X257466Y197466D01*
X258208Y196897D01*
X259073Y196539D01*
X260000Y196417D01*
X260927Y196539D01*
X261792Y196897D01*
X262534Y197466D01*
X263103Y198208D01*
X263461Y199073D01*
X263583Y200000D01*
X263461Y200927D01*
X263103Y201792D01*
X262534Y202534D01*
X261792Y203103D01*
X260927Y203461D01*
X260000Y203583D01*
D02*
G37*
G36*
X250000D02*
X249073Y203461D01*
X248208Y203103D01*
X247466Y202534D01*
X246897Y201792D01*
X246539Y200927D01*
X246417Y200000D01*
X246539Y199073D01*
X246897Y198208D01*
X247466Y197466D01*
X248208Y196897D01*
X249073Y196539D01*
X250000Y196417D01*
X250927Y196539D01*
X251792Y196897D01*
X252534Y197466D01*
X253103Y198208D01*
X253461Y199073D01*
X253583Y200000D01*
X253461Y200927D01*
X253103Y201792D01*
X252534Y202534D01*
X251792Y203103D01*
X250927Y203461D01*
X250000Y203583D01*
D02*
G37*
G36*
X240000D02*
X239073Y203461D01*
X238208Y203103D01*
X237466Y202534D01*
X236897Y201792D01*
X236539Y200927D01*
X236417Y200000D01*
X236539Y199073D01*
X236897Y198208D01*
X237466Y197466D01*
X238208Y196897D01*
X239073Y196539D01*
X240000Y196417D01*
X240927Y196539D01*
X241792Y196897D01*
X242534Y197466D01*
X243103Y198208D01*
X243461Y199073D01*
X243583Y200000D01*
X243461Y200927D01*
X243103Y201792D01*
X242534Y202534D01*
X241792Y203103D01*
X240927Y203461D01*
X240000Y203583D01*
D02*
G37*
G36*
X230000D02*
X229073Y203461D01*
X228208Y203103D01*
X227466Y202534D01*
X226897Y201792D01*
X226539Y200927D01*
X226417Y200000D01*
X226539Y199073D01*
X226897Y198208D01*
X227466Y197466D01*
X228208Y196897D01*
X229073Y196539D01*
X230000Y196417D01*
X230927Y196539D01*
X231792Y196897D01*
X232534Y197466D01*
X233103Y198208D01*
X233461Y199073D01*
X233583Y200000D01*
X233461Y200927D01*
X233103Y201792D01*
X232534Y202534D01*
X231792Y203103D01*
X230927Y203461D01*
X230000Y203583D01*
D02*
G37*
G36*
X204000D02*
X203073Y203461D01*
X202208Y203103D01*
X201466Y202534D01*
X200897Y201792D01*
X200539Y200927D01*
X200417Y200000D01*
X200539Y199073D01*
X200897Y198208D01*
X201466Y197466D01*
X202208Y196897D01*
X203073Y196539D01*
X204000Y196417D01*
X204927Y196539D01*
X205792Y196897D01*
X206534Y197466D01*
X207103Y198208D01*
X207461Y199073D01*
X207583Y200000D01*
X207461Y200927D01*
X207103Y201792D01*
X206534Y202534D01*
X205792Y203103D01*
X204927Y203461D01*
X204000Y203583D01*
D02*
G37*
G36*
X124000D02*
X123073Y203461D01*
X122208Y203103D01*
X121466Y202534D01*
X120897Y201792D01*
X120539Y200927D01*
X120417Y200000D01*
X120539Y199073D01*
X120816Y198402D01*
X106535Y184122D01*
X96000D01*
X96000Y184122D01*
X95571Y184036D01*
X95207Y183793D01*
X95207Y183793D01*
X91208Y179794D01*
X91000Y179835D01*
X90298Y179696D01*
X89702Y179298D01*
X89304Y178702D01*
X89165Y178000D01*
X89304Y177298D01*
X89702Y176702D01*
X90298Y176304D01*
X91000Y176165D01*
X91702Y176304D01*
X92298Y176702D01*
X92696Y177298D01*
X92835Y178000D01*
X92794Y178208D01*
X96465Y181878D01*
X107000D01*
X107000Y181878D01*
X107429Y181964D01*
X107793Y182207D01*
X122402Y196816D01*
X123073Y196539D01*
X124000Y196417D01*
X124927Y196539D01*
X125792Y196897D01*
X126534Y197466D01*
X127103Y198208D01*
X127461Y199073D01*
X127583Y200000D01*
X127461Y200927D01*
X127103Y201792D01*
X126534Y202534D01*
X125792Y203103D01*
X124927Y203461D01*
X124000Y203583D01*
D02*
G37*
G36*
X157921Y199500D02*
X154500D01*
Y196079D01*
X155032Y196149D01*
X155993Y196547D01*
X156819Y197181D01*
X157453Y198007D01*
X157851Y198968D01*
X157921Y199500D01*
D02*
G37*
G36*
X153500D02*
X150079D01*
X150149Y198968D01*
X150547Y198007D01*
X151181Y197181D01*
X152007Y196547D01*
X152968Y196149D01*
X153500Y196079D01*
Y199500D01*
D02*
G37*
G36*
X134000Y203583D02*
X133073Y203461D01*
X132208Y203103D01*
X131466Y202534D01*
X130897Y201792D01*
X130539Y200927D01*
X130417Y200000D01*
X130539Y199073D01*
X130897Y198208D01*
X131466Y197466D01*
X132208Y196897D01*
X132878Y196619D01*
Y189465D01*
X122535Y179122D01*
X99415D01*
X99298Y179298D01*
X98702Y179696D01*
X98000Y179835D01*
X97298Y179696D01*
X96702Y179298D01*
X96304Y178702D01*
X96165Y178000D01*
X96304Y177298D01*
X96702Y176702D01*
X97298Y176304D01*
X98000Y176165D01*
X98702Y176304D01*
X99298Y176702D01*
X99415Y176878D01*
X123000D01*
X123000Y176878D01*
X123429Y176964D01*
X123793Y177207D01*
X134793Y188207D01*
X135036Y188571D01*
X135122Y189000D01*
X135122Y189000D01*
Y196619D01*
X135792Y196897D01*
X136534Y197466D01*
X137103Y198208D01*
X137461Y199073D01*
X137583Y200000D01*
X137461Y200927D01*
X137103Y201792D01*
X136534Y202534D01*
X135792Y203103D01*
X134927Y203461D01*
X134000Y203583D01*
D02*
G37*
G36*
X69144Y178500D02*
X67500D01*
Y176856D01*
X67858Y176928D01*
X68586Y177414D01*
X69072Y178142D01*
X69144Y178500D01*
D02*
G37*
G36*
X66500D02*
X64856D01*
X64928Y178142D01*
X65414Y177414D01*
X66142Y176928D01*
X66500Y176856D01*
Y178500D01*
D02*
G37*
G36*
X13500Y175144D02*
Y173500D01*
X15144D01*
X15072Y173858D01*
X14586Y174586D01*
X13858Y175072D01*
X13500Y175144D01*
D02*
G37*
G36*
X12500D02*
X12142Y175072D01*
X11414Y174586D01*
X10928Y173858D01*
X10856Y173500D01*
X12500D01*
Y175144D01*
D02*
G37*
G36*
X69500Y173144D02*
Y171500D01*
X71144D01*
X71072Y171858D01*
X70586Y172586D01*
X69858Y173072D01*
X69500Y173144D01*
D02*
G37*
G36*
X68500D02*
X68142Y173072D01*
X67414Y172586D01*
X66928Y171858D01*
X66856Y171500D01*
X68500D01*
Y173144D01*
D02*
G37*
G36*
X15144Y172500D02*
X13500D01*
Y170856D01*
X13858Y170928D01*
X14586Y171414D01*
X15072Y172142D01*
X15144Y172500D01*
D02*
G37*
G36*
X12500D02*
X10856D01*
X10928Y172142D01*
X11414Y171414D01*
X12142Y170928D01*
X12500Y170856D01*
Y172500D01*
D02*
G37*
G36*
X71144Y170500D02*
X69500D01*
Y168856D01*
X69858Y168928D01*
X70586Y169414D01*
X71072Y170142D01*
X71144Y170500D01*
D02*
G37*
G36*
X68500D02*
X66856D01*
X66928Y170142D01*
X67414Y169414D01*
X68142Y168928D01*
X68500Y168856D01*
Y170500D01*
D02*
G37*
G36*
X44000Y176835D02*
X43298Y176696D01*
X42702Y176298D01*
X42304Y175702D01*
X42165Y175000D01*
X42304Y174298D01*
X42702Y173702D01*
X43298Y173304D01*
X44000Y173165D01*
X44702Y173304D01*
X45298Y173702D01*
X45415Y173878D01*
X57535D01*
X66878Y164535D01*
Y156329D01*
X66378Y156177D01*
X66298Y156298D01*
X65702Y156696D01*
X65000Y156835D01*
X64298Y156696D01*
X63702Y156298D01*
X63304Y155702D01*
X63165Y155000D01*
X63304Y154298D01*
X63702Y153702D01*
X63878Y153585D01*
Y148915D01*
X63702Y148798D01*
X63304Y148202D01*
X63165Y147500D01*
X63304Y146798D01*
X63702Y146202D01*
X64298Y145804D01*
X65000Y145665D01*
X65702Y145804D01*
X66298Y146202D01*
X66378Y146323D01*
X66878Y146171D01*
Y141415D01*
X66702Y141298D01*
X66304Y140702D01*
X66165Y140000D01*
X66304Y139298D01*
X66702Y138702D01*
X67298Y138304D01*
X68000Y138165D01*
X68702Y138304D01*
X69298Y138702D01*
X69696Y139298D01*
X69835Y140000D01*
X69696Y140702D01*
X69298Y141298D01*
X69122Y141415D01*
Y165000D01*
X69122Y165000D01*
X69036Y165429D01*
X68793Y165793D01*
X68793Y165793D01*
X58793Y175793D01*
X58429Y176036D01*
X58000Y176122D01*
X58000Y176122D01*
X45415D01*
X45298Y176298D01*
X44702Y176696D01*
X44000Y176835D01*
D02*
G37*
G36*
X86331Y156254D02*
X86057Y156200D01*
X85400Y155761D01*
X84962Y155105D01*
X84920Y154897D01*
X84411D01*
X84369Y155105D01*
X83931Y155761D01*
X83274Y156200D01*
X83000Y156254D01*
Y154331D01*
X82000D01*
Y156254D01*
X81726Y156200D01*
X81069Y155761D01*
X80631Y155105D01*
X80589Y154897D01*
X80080D01*
X80038Y155105D01*
X79600Y155761D01*
X78944Y156200D01*
X78669Y156254D01*
Y154331D01*
X78169D01*
Y153831D01*
X76246D01*
X76300Y153557D01*
X76739Y152900D01*
X77395Y152462D01*
X77603Y152420D01*
Y151910D01*
X77395Y151869D01*
X76739Y151431D01*
X76300Y150774D01*
X76246Y150500D01*
X78169D01*
Y149500D01*
X76246D01*
X76300Y149226D01*
X76739Y148569D01*
X77395Y148131D01*
X77603Y148090D01*
Y147580D01*
X77395Y147538D01*
X76739Y147100D01*
X76300Y146443D01*
X76246Y146169D01*
X78169D01*
Y145669D01*
X78669D01*
Y143746D01*
X78944Y143800D01*
X79600Y144239D01*
X80038Y144895D01*
X80080Y145103D01*
X80589D01*
X80631Y144895D01*
X81069Y144239D01*
X81726Y143800D01*
X82000Y143746D01*
Y145669D01*
X83000D01*
Y143746D01*
X83274Y143800D01*
X83931Y144239D01*
X84369Y144895D01*
X84411Y145103D01*
X84920D01*
X84962Y144895D01*
X85400Y144239D01*
X86057Y143800D01*
X86331Y143746D01*
Y145669D01*
X86831D01*
Y146169D01*
X88754D01*
X88700Y146443D01*
X88261Y147100D01*
X87605Y147538D01*
X87397Y147580D01*
Y148090D01*
X87605Y148131D01*
X88261Y148569D01*
X88700Y149226D01*
X88754Y149500D01*
X86831D01*
Y150500D01*
X88754D01*
X88700Y150774D01*
X88261Y151431D01*
X87605Y151869D01*
X87397Y151910D01*
Y152420D01*
X87605Y152462D01*
X88261Y152900D01*
X88700Y153557D01*
X88754Y153831D01*
X86831D01*
Y154331D01*
X86331D01*
Y156254D01*
D02*
G37*
G36*
X87331D02*
Y154831D01*
X88754D01*
X88700Y155105D01*
X88261Y155761D01*
X87605Y156200D01*
X87331Y156254D01*
D02*
G37*
G36*
X77669D02*
X77395Y156200D01*
X76739Y155761D01*
X76300Y155105D01*
X76246Y154831D01*
X77669D01*
Y156254D01*
D02*
G37*
G36*
X25000Y158752D02*
X24329Y158664D01*
X23705Y158405D01*
X23168Y157993D01*
X22756Y157457D01*
X22498Y156832D01*
X22409Y156161D01*
X22498Y155491D01*
X22756Y154866D01*
X23168Y154330D01*
X23705Y153918D01*
X24329Y153659D01*
X25000Y153571D01*
X25670Y153659D01*
X26295Y153918D01*
X26832Y154330D01*
X27244Y154866D01*
X27502Y155491D01*
X27591Y156161D01*
X27502Y156832D01*
X27244Y157457D01*
X26832Y157993D01*
X26295Y158405D01*
X25670Y158664D01*
X25000Y158752D01*
D02*
G37*
G36*
X25500Y147144D02*
Y145500D01*
X27144D01*
X27072Y145858D01*
X26586Y146586D01*
X25858Y147072D01*
X25500Y147144D01*
D02*
G37*
G36*
X24500D02*
X24142Y147072D01*
X23414Y146586D01*
X22928Y145858D01*
X22856Y145500D01*
X24500D01*
Y147144D01*
D02*
G37*
G36*
X122000Y151583D02*
X121073Y151461D01*
X120208Y151103D01*
X119466Y150534D01*
X118897Y149792D01*
X118539Y148927D01*
X118417Y148000D01*
X118539Y147073D01*
X118897Y146208D01*
X119466Y145466D01*
X120208Y144897D01*
X120872Y144622D01*
X120773Y144122D01*
X117000D01*
X117000Y144122D01*
X116571Y144036D01*
X116207Y143793D01*
X116207Y143793D01*
X113598Y141184D01*
X112927Y141461D01*
X112000Y141583D01*
X111073Y141461D01*
X110208Y141103D01*
X109466Y140534D01*
X108897Y139792D01*
X108539Y138927D01*
X108417Y138000D01*
X108539Y137073D01*
X108897Y136208D01*
X109466Y135466D01*
X110208Y134897D01*
X111073Y134539D01*
X112000Y134417D01*
X112927Y134539D01*
X113792Y134897D01*
X114534Y135466D01*
X115103Y136208D01*
X115461Y137073D01*
X115583Y138000D01*
X115461Y138927D01*
X115184Y139598D01*
X117465Y141878D01*
X118082D01*
X118447Y141553D01*
X118447Y141378D01*
Y134447D01*
X125553D01*
Y141378D01*
X125553Y141553D01*
X125918Y141878D01*
X157000D01*
X157000Y141878D01*
X157429Y141964D01*
X157793Y142207D01*
X160792Y145206D01*
X161000Y145165D01*
X161702Y145304D01*
X162298Y145702D01*
X162696Y146298D01*
X162835Y147000D01*
X162696Y147702D01*
X162298Y148298D01*
X161702Y148696D01*
X161000Y148835D01*
X160298Y148696D01*
X159702Y148298D01*
X159304Y147702D01*
X159165Y147000D01*
X159206Y146792D01*
X156535Y144122D01*
X123227D01*
X123127Y144622D01*
X123792Y144897D01*
X124534Y145466D01*
X125103Y146208D01*
X125461Y147073D01*
X125583Y148000D01*
X125461Y148927D01*
X125103Y149792D01*
X124534Y150534D01*
X123792Y151103D01*
X122927Y151461D01*
X122000Y151583D01*
D02*
G37*
G36*
X112000D02*
X111073Y151461D01*
X110208Y151103D01*
X109466Y150534D01*
X108897Y149792D01*
X108539Y148927D01*
X108417Y148000D01*
X108539Y147073D01*
X108897Y146208D01*
X109466Y145466D01*
X110208Y144897D01*
X111073Y144539D01*
X112000Y144417D01*
X112927Y144539D01*
X113792Y144897D01*
X114534Y145466D01*
X115103Y146208D01*
X115461Y147073D01*
X115583Y148000D01*
X115461Y148927D01*
X115103Y149792D01*
X114534Y150534D01*
X113792Y151103D01*
X112927Y151461D01*
X112000Y151583D01*
D02*
G37*
G36*
X164000Y203583D02*
X163073Y203461D01*
X162208Y203103D01*
X161466Y202534D01*
X160897Y201792D01*
X160539Y200927D01*
X160417Y200000D01*
X160539Y199073D01*
X160897Y198208D01*
X161466Y197466D01*
X162208Y196897D01*
X162878Y196619D01*
Y179000D01*
X162878Y179000D01*
X162964Y178571D01*
X163207Y178207D01*
X195206Y146208D01*
X195165Y146000D01*
X195304Y145298D01*
X195702Y144702D01*
X196298Y144304D01*
X197000Y144165D01*
X197702Y144304D01*
X198298Y144702D01*
X198696Y145298D01*
X198835Y146000D01*
X198696Y146702D01*
X198298Y147298D01*
X197702Y147696D01*
X197000Y147835D01*
X196792Y147794D01*
X165122Y179465D01*
Y196619D01*
X165792Y196897D01*
X166534Y197466D01*
X167103Y198208D01*
X167461Y199073D01*
X167583Y200000D01*
X167461Y200927D01*
X167103Y201792D01*
X166534Y202534D01*
X165792Y203103D01*
X164927Y203461D01*
X164000Y203583D01*
D02*
G37*
G36*
X88754Y145169D02*
X87331D01*
Y143746D01*
X87605Y143800D01*
X88261Y144239D01*
X88700Y144895D01*
X88754Y145169D01*
D02*
G37*
G36*
X77669D02*
X76246D01*
X76300Y144895D01*
X76739Y144239D01*
X77395Y143800D01*
X77669Y143746D01*
Y145169D01*
D02*
G37*
G36*
X165000Y146835D02*
X164298Y146696D01*
X163702Y146298D01*
X163304Y145702D01*
X163165Y145000D01*
X163206Y144792D01*
X154535Y136122D01*
X130415D01*
X130298Y136298D01*
X129702Y136696D01*
X129000Y136835D01*
X128298Y136696D01*
X127702Y136298D01*
X127304Y135702D01*
X127165Y135000D01*
X127304Y134298D01*
X127702Y133702D01*
X128298Y133304D01*
X129000Y133165D01*
X129702Y133304D01*
X130298Y133702D01*
X130415Y133878D01*
X146671D01*
X146823Y133378D01*
X146702Y133298D01*
X146304Y132702D01*
X146165Y132000D01*
X146304Y131298D01*
X146702Y130702D01*
X147298Y130304D01*
X148000Y130165D01*
X148208Y130206D01*
X165207Y113207D01*
X165207Y113207D01*
X165571Y112964D01*
X166000Y112878D01*
X176535D01*
X178878Y110535D01*
Y109915D01*
X178702Y109798D01*
X178304Y109202D01*
X178165Y108500D01*
X178304Y107798D01*
X178702Y107202D01*
X179298Y106804D01*
X180000Y106665D01*
X180702Y106804D01*
X181298Y107202D01*
X181696Y107798D01*
X181835Y108500D01*
X181696Y109202D01*
X181298Y109798D01*
X181122Y109915D01*
Y111000D01*
X181122Y111000D01*
X181036Y111429D01*
X180793Y111793D01*
X177793Y114793D01*
X177429Y115036D01*
X177000Y115122D01*
X177000Y115122D01*
X166465D01*
X149794Y131792D01*
X149835Y132000D01*
X149696Y132702D01*
X149298Y133298D01*
X149177Y133378D01*
X149329Y133878D01*
X155000D01*
X155000Y133878D01*
X155429Y133964D01*
X155793Y134207D01*
X164792Y143206D01*
X165000Y143165D01*
X165702Y143304D01*
X166298Y143702D01*
X166696Y144298D01*
X166835Y145000D01*
X166696Y145702D01*
X166298Y146298D01*
X165702Y146696D01*
X165000Y146835D01*
D02*
G37*
G36*
X27144Y144500D02*
X25500D01*
Y142856D01*
X25858Y142928D01*
X26586Y143414D01*
X27072Y144142D01*
X27144Y144500D01*
D02*
G37*
G36*
X24500D02*
X22856D01*
X22928Y144142D01*
X23414Y143414D01*
X24142Y142928D01*
X24500Y142856D01*
Y144500D01*
D02*
G37*
G36*
X184000Y203583D02*
X183073Y203461D01*
X182208Y203103D01*
X181466Y202534D01*
X180897Y201792D01*
X180539Y200927D01*
X180417Y200000D01*
X180539Y199073D01*
X180897Y198208D01*
X181466Y197466D01*
X182208Y196897D01*
X182878Y196619D01*
Y169000D01*
X182878Y169000D01*
X182964Y168571D01*
X183207Y168207D01*
X209780Y141633D01*
X209789Y141589D01*
X209598Y141109D01*
X209481Y141105D01*
X175122Y175465D01*
Y196619D01*
X175792Y196897D01*
X176534Y197466D01*
X177103Y198208D01*
X177461Y199073D01*
X177583Y200000D01*
X177461Y200927D01*
X177103Y201792D01*
X176534Y202534D01*
X175792Y203103D01*
X174927Y203461D01*
X174000Y203583D01*
X173073Y203461D01*
X172208Y203103D01*
X171466Y202534D01*
X170897Y201792D01*
X170539Y200927D01*
X170417Y200000D01*
X170539Y199073D01*
X170897Y198208D01*
X171466Y197466D01*
X172208Y196897D01*
X172878Y196619D01*
Y175000D01*
X172878Y175000D01*
X172964Y174571D01*
X173207Y174207D01*
X208206Y139208D01*
X208165Y139000D01*
X208304Y138298D01*
X208702Y137702D01*
X209298Y137304D01*
X210000Y137165D01*
X210702Y137304D01*
X211298Y137702D01*
X211696Y138298D01*
X211814Y138893D01*
X212122Y139053D01*
X212324Y139090D01*
X215206Y136208D01*
X215165Y136000D01*
X215304Y135298D01*
X215702Y134702D01*
X216298Y134304D01*
X217000Y134165D01*
X217702Y134304D01*
X218298Y134702D01*
X218696Y135298D01*
X218835Y136000D01*
X218696Y136702D01*
X218298Y137298D01*
X217702Y137696D01*
X217000Y137835D01*
X216792Y137794D01*
X185122Y169465D01*
Y196619D01*
X185792Y196897D01*
X186534Y197466D01*
X187103Y198208D01*
X187461Y199073D01*
X187583Y200000D01*
X187461Y200927D01*
X187103Y201792D01*
X186534Y202534D01*
X185792Y203103D01*
X184927Y203461D01*
X184000Y203583D01*
D02*
G37*
G36*
X25000Y141429D02*
X24329Y141341D01*
X23705Y141082D01*
X23168Y140671D01*
X22756Y140134D01*
X22498Y139509D01*
X22409Y138839D01*
X22498Y138168D01*
X22756Y137543D01*
X23168Y137007D01*
X23705Y136595D01*
X24329Y136336D01*
X25000Y136248D01*
X25670Y136336D01*
X26295Y136595D01*
X26832Y137007D01*
X27244Y137543D01*
X27502Y138168D01*
X27591Y138839D01*
X27502Y139509D01*
X27244Y140134D01*
X26832Y140671D01*
X26295Y141082D01*
X25670Y141341D01*
X25000Y141429D01*
D02*
G37*
G36*
X190996Y135920D02*
X190722Y135865D01*
X190066Y135427D01*
X189627Y134770D01*
X189586Y134563D01*
X189076D01*
X189034Y134770D01*
X188596Y135427D01*
X187940Y135865D01*
X187665Y135920D01*
Y133996D01*
X186665D01*
Y135920D01*
X186391Y135865D01*
X185735Y135427D01*
X185296Y134770D01*
X185255Y134563D01*
X184745D01*
X184704Y134770D01*
X184265Y135427D01*
X183609Y135865D01*
X183335Y135920D01*
Y133996D01*
X182335D01*
Y135920D01*
X182060Y135865D01*
X181404Y135427D01*
X180965Y134770D01*
X180924Y134563D01*
X180414D01*
X180373Y134770D01*
X179935Y135427D01*
X179278Y135865D01*
X179004Y135920D01*
Y133996D01*
X178504D01*
Y133496D01*
X176580D01*
X176635Y133222D01*
X177073Y132565D01*
X177730Y132127D01*
X177937Y132086D01*
Y131576D01*
X177730Y131535D01*
X177073Y131096D01*
X176635Y130440D01*
X176580Y130165D01*
X178504D01*
Y129165D01*
X176580D01*
X176635Y128891D01*
X177073Y128235D01*
X177730Y127796D01*
X177937Y127755D01*
Y127245D01*
X177730Y127204D01*
X177073Y126765D01*
X176635Y126109D01*
X176580Y125835D01*
X178504D01*
Y124835D01*
X176580D01*
X176635Y124560D01*
X177073Y123904D01*
X177730Y123466D01*
X177937Y123424D01*
Y122914D01*
X177730Y122873D01*
X177073Y122434D01*
X176635Y121778D01*
X176580Y121504D01*
X178504D01*
Y121004D01*
X179004D01*
Y119080D01*
X179278Y119135D01*
X179935Y119573D01*
X180373Y120230D01*
X180414Y120438D01*
X180924D01*
X180965Y120230D01*
X181404Y119573D01*
X182060Y119135D01*
X182335Y119080D01*
Y121004D01*
X183335D01*
Y119080D01*
X183609Y119135D01*
X184265Y119573D01*
X184704Y120230D01*
X184745Y120438D01*
X185255D01*
X185296Y120230D01*
X185735Y119573D01*
X186391Y119135D01*
X186665Y119080D01*
Y121004D01*
X187665D01*
Y119080D01*
X187940Y119135D01*
X188596Y119573D01*
X189034Y120230D01*
X189076Y120438D01*
X189586D01*
X189627Y120230D01*
X190066Y119573D01*
X190722Y119135D01*
X190996Y119080D01*
Y121004D01*
X191496D01*
Y121504D01*
X193420D01*
X193365Y121778D01*
X192927Y122434D01*
X192270Y122873D01*
X192062Y122914D01*
Y123424D01*
X192270Y123466D01*
X192927Y123904D01*
X193365Y124560D01*
X193420Y124835D01*
X191496D01*
Y125835D01*
X193420D01*
X193365Y126109D01*
X192927Y126765D01*
X192270Y127204D01*
X192062Y127245D01*
Y127755D01*
X192270Y127796D01*
X192927Y128235D01*
X193365Y128891D01*
X193420Y129165D01*
X191496D01*
Y130165D01*
X193420D01*
X193365Y130440D01*
X192927Y131096D01*
X192270Y131535D01*
X192062Y131576D01*
Y132086D01*
X192270Y132127D01*
X192927Y132565D01*
X193365Y133222D01*
X193420Y133496D01*
X191496D01*
Y133996D01*
X190996D01*
Y135920D01*
D02*
G37*
G36*
X191996D02*
Y134496D01*
X193420D01*
X193365Y134770D01*
X192927Y135427D01*
X192270Y135865D01*
X191996Y135920D01*
D02*
G37*
G36*
X178004D02*
X177730Y135865D01*
X177073Y135427D01*
X176635Y134770D01*
X176580Y134496D01*
X178004D01*
Y135920D01*
D02*
G37*
G36*
X144500Y131144D02*
Y129500D01*
X146144D01*
X146072Y129858D01*
X145586Y130586D01*
X144858Y131072D01*
X144500Y131144D01*
D02*
G37*
G36*
X143500D02*
X143142Y131072D01*
X142414Y130586D01*
X141928Y129858D01*
X141856Y129500D01*
X143500D01*
Y131144D01*
D02*
G37*
G36*
X105500Y130144D02*
Y128500D01*
X107144D01*
X107072Y128858D01*
X106586Y129586D01*
X105858Y130072D01*
X105500Y130144D01*
D02*
G37*
G36*
X104500D02*
X104142Y130072D01*
X103414Y129586D01*
X102928Y128858D01*
X102856Y128500D01*
X104500D01*
Y130144D01*
D02*
G37*
G36*
X194000Y203583D02*
X193073Y203461D01*
X192208Y203103D01*
X191466Y202534D01*
X190897Y201792D01*
X190539Y200927D01*
X190417Y200000D01*
X190539Y199073D01*
X190897Y198208D01*
X191466Y197466D01*
X192208Y196897D01*
X192878Y196619D01*
Y164000D01*
X192878Y164000D01*
X192964Y163571D01*
X193207Y163207D01*
X227206Y129208D01*
X227165Y129000D01*
X227304Y128298D01*
X227702Y127702D01*
X228298Y127304D01*
X229000Y127165D01*
X229702Y127304D01*
X230298Y127702D01*
X230696Y128298D01*
X230835Y129000D01*
X230696Y129702D01*
X230298Y130298D01*
X229702Y130696D01*
X229000Y130835D01*
X228792Y130794D01*
X195122Y164465D01*
Y196619D01*
X195792Y196897D01*
X196534Y197466D01*
X197103Y198208D01*
X197461Y199073D01*
X197583Y200000D01*
X197461Y200927D01*
X197103Y201792D01*
X196534Y202534D01*
X195792Y203103D01*
X194927Y203461D01*
X194000Y203583D01*
D02*
G37*
G36*
X146144Y128500D02*
X144500D01*
Y126856D01*
X144858Y126928D01*
X145586Y127414D01*
X146072Y128142D01*
X146144Y128500D01*
D02*
G37*
G36*
X143500D02*
X141856D01*
X141928Y128142D01*
X142414Y127414D01*
X143142Y126928D01*
X143500Y126856D01*
Y128500D01*
D02*
G37*
G36*
X107144Y127500D02*
X105500D01*
Y125856D01*
X105858Y125928D01*
X106586Y126414D01*
X107072Y127142D01*
X107144Y127500D01*
D02*
G37*
G36*
X104500D02*
X102856D01*
X102928Y127142D01*
X103414Y126414D01*
X104142Y125928D01*
X104500Y125856D01*
Y127500D01*
D02*
G37*
G36*
X133500Y125144D02*
Y123500D01*
X135144D01*
X135072Y123858D01*
X134586Y124586D01*
X133858Y125072D01*
X133500Y125144D01*
D02*
G37*
G36*
X132500D02*
X132142Y125072D01*
X131414Y124586D01*
X130928Y123858D01*
X130856Y123500D01*
X132500D01*
Y125144D01*
D02*
G37*
G36*
X135144Y122500D02*
X133500D01*
Y120856D01*
X133858Y120928D01*
X134586Y121414D01*
X135072Y122142D01*
X135144Y122500D01*
D02*
G37*
G36*
X132500D02*
X130856D01*
X130928Y122142D01*
X131414Y121414D01*
X132142Y120928D01*
X132500Y120856D01*
Y122500D01*
D02*
G37*
G36*
X75000Y121644D02*
Y120000D01*
X76644D01*
X76572Y120358D01*
X76086Y121086D01*
X75358Y121572D01*
X75000Y121644D01*
D02*
G37*
G36*
X74000D02*
X73642Y121572D01*
X72914Y121086D01*
X72428Y120358D01*
X72356Y120000D01*
X74000D01*
Y121644D01*
D02*
G37*
G36*
X193420Y120504D02*
X191996D01*
Y119080D01*
X192270Y119135D01*
X192927Y119573D01*
X193365Y120230D01*
X193420Y120504D01*
D02*
G37*
G36*
X178004D02*
X176580D01*
X176635Y120230D01*
X177073Y119573D01*
X177730Y119135D01*
X178004Y119080D01*
Y120504D01*
D02*
G37*
G36*
X76644Y119000D02*
X75000D01*
Y117356D01*
X75358Y117428D01*
X76086Y117914D01*
X76572Y118642D01*
X76644Y119000D01*
D02*
G37*
G36*
X74000D02*
X72356D01*
X72428Y118642D01*
X72914Y117914D01*
X73642Y117428D01*
X74000Y117356D01*
Y119000D01*
D02*
G37*
G36*
X304104Y123356D02*
X296999D01*
Y116250D01*
X304104D01*
Y123356D01*
D02*
G37*
G36*
X293000Y129631D02*
X292376Y129507D01*
X291846Y129154D01*
X281846Y119153D01*
X281493Y118624D01*
X281369Y118000D01*
Y92676D01*
X201794Y13101D01*
X201792Y13103D01*
X201131Y13377D01*
Y18702D01*
X201196Y18798D01*
X201335Y19500D01*
X201196Y20202D01*
X200798Y20798D01*
X200202Y21196D01*
X199500Y21335D01*
X198798Y21196D01*
X198202Y20798D01*
X197804Y20202D01*
X197665Y19500D01*
X197804Y18798D01*
X197869Y18702D01*
Y12843D01*
X197466Y12534D01*
X196897Y11792D01*
X196539Y10927D01*
X196417Y10000D01*
X196539Y9072D01*
X196897Y8208D01*
X197466Y7466D01*
X198208Y6897D01*
X199073Y6539D01*
X200000Y6417D01*
X200927Y6539D01*
X201792Y6897D01*
X202534Y7466D01*
X203103Y8208D01*
X203461Y9072D01*
X203583Y10000D01*
X203551Y10244D01*
X284154Y90847D01*
X284507Y91376D01*
X284631Y92000D01*
Y117324D01*
X293676Y126369D01*
X307324D01*
X308920Y124773D01*
Y122973D01*
X308759Y122906D01*
X308017Y122337D01*
X307448Y121595D01*
X307090Y120730D01*
X306968Y119803D01*
X307090Y118876D01*
X307448Y118011D01*
X308017Y117269D01*
X308759Y116700D01*
X309624Y116342D01*
X310551Y116220D01*
X311479Y116342D01*
X312343Y116700D01*
X313085Y117269D01*
X313654Y118011D01*
X314013Y118876D01*
X314135Y119803D01*
X314013Y120730D01*
X313654Y121595D01*
X313085Y122337D01*
X312343Y122906D01*
X312182Y122973D01*
Y125449D01*
X312058Y126073D01*
X311705Y126602D01*
X309154Y129154D01*
X308624Y129507D01*
X308000Y129631D01*
X293000D01*
X293000Y129631D01*
D02*
G37*
G36*
X60000Y146835D02*
X59298Y146696D01*
X58702Y146298D01*
X58304Y145702D01*
X58165Y145000D01*
X58304Y144298D01*
X58702Y143702D01*
X59298Y143304D01*
X60000Y143165D01*
X60208Y143206D01*
X61378Y142035D01*
Y116415D01*
X61202Y116298D01*
X60804Y115702D01*
X60665Y115000D01*
X60804Y114298D01*
X61202Y113702D01*
X61798Y113304D01*
X62500Y113165D01*
X63202Y113304D01*
X63798Y113702D01*
X64196Y114298D01*
X64335Y115000D01*
X64196Y115702D01*
X63798Y116298D01*
X63622Y116415D01*
Y142500D01*
X63536Y142929D01*
X63293Y143293D01*
X63293Y143293D01*
X61794Y144792D01*
X61835Y145000D01*
X61696Y145702D01*
X61298Y146298D01*
X60702Y146696D01*
X60000Y146835D01*
D02*
G37*
G36*
X20000Y151835D02*
X19298Y151696D01*
X18702Y151298D01*
X18304Y150702D01*
X18165Y150000D01*
X18304Y149298D01*
X18369Y149202D01*
Y132500D01*
X18493Y131876D01*
X18846Y131346D01*
X38282Y111911D01*
X38304Y111798D01*
X38702Y111202D01*
X39298Y110804D01*
X40000Y110665D01*
X40702Y110804D01*
X41298Y111202D01*
X41696Y111798D01*
X41835Y112500D01*
X41696Y113202D01*
X41298Y113798D01*
X40702Y114196D01*
X40589Y114218D01*
X21631Y133176D01*
Y149202D01*
X21696Y149298D01*
X21835Y150000D01*
X21696Y150702D01*
X21298Y151298D01*
X20702Y151696D01*
X20000Y151835D01*
D02*
G37*
G36*
X310551Y113386D02*
X309624Y113264D01*
X308759Y112906D01*
X308017Y112337D01*
X307448Y111595D01*
X307090Y110731D01*
X306968Y109803D01*
X307090Y108876D01*
X307448Y108011D01*
X308017Y107269D01*
X308759Y106700D01*
X309624Y106342D01*
X310551Y106220D01*
X311479Y106342D01*
X312343Y106700D01*
X313085Y107269D01*
X313654Y108011D01*
X314013Y108876D01*
X314135Y109803D01*
X314013Y110731D01*
X313654Y111595D01*
X313085Y112337D01*
X312343Y112906D01*
X311479Y113264D01*
X310551Y113386D01*
D02*
G37*
G36*
X300551D02*
X299624Y113264D01*
X298760Y112906D01*
X298017Y112337D01*
X297448Y111595D01*
X297090Y110731D01*
X296968Y109803D01*
X297090Y108876D01*
X297448Y108011D01*
X298017Y107269D01*
X298760Y106700D01*
X299624Y106342D01*
X300551Y106220D01*
X301479Y106342D01*
X302343Y106700D01*
X303085Y107269D01*
X303655Y108011D01*
X304012Y108876D01*
X304135Y109803D01*
X304012Y110731D01*
X303655Y111595D01*
X303085Y112337D01*
X302343Y112906D01*
X301479Y113264D01*
X300551Y113386D01*
D02*
G37*
G36*
X310052Y103823D02*
X309520Y103753D01*
X308559Y103355D01*
X307733Y102721D01*
X307099Y101896D01*
X306701Y100934D01*
X306631Y100402D01*
X310052D01*
Y103823D01*
D02*
G37*
G36*
X300552Y103486D02*
X299625Y103364D01*
X298761Y103006D01*
X298018Y102436D01*
X297449Y101694D01*
X297091Y100830D01*
X296969Y99902D01*
X297091Y98975D01*
X297449Y98111D01*
X298018Y97368D01*
X298761Y96799D01*
X299625Y96441D01*
X300552Y96319D01*
X301480Y96441D01*
X302344Y96799D01*
X303086Y97368D01*
X303656Y98111D01*
X304013Y98975D01*
X304136Y99902D01*
X304013Y100830D01*
X303656Y101694D01*
X303086Y102436D01*
X302344Y103006D01*
X301480Y103364D01*
X300552Y103486D01*
D02*
G37*
G36*
X310052Y99402D02*
X306631D01*
X306701Y98870D01*
X307099Y97909D01*
X307733Y97083D01*
X308559Y96450D01*
X309520Y96051D01*
X310052Y95981D01*
Y99402D01*
D02*
G37*
G36*
X161053Y91053D02*
X153947D01*
Y83947D01*
X161053D01*
Y91053D01*
D02*
G37*
G36*
X151053D02*
X143947D01*
Y83947D01*
X151053D01*
Y91053D01*
D02*
G37*
G36*
X141053D02*
X133947D01*
Y83947D01*
X141053D01*
Y91053D01*
D02*
G37*
G36*
X131053D02*
X123947D01*
Y83947D01*
X131053D01*
Y91053D01*
D02*
G37*
G36*
X121053D02*
X113947D01*
Y83947D01*
X121053D01*
Y91053D01*
D02*
G37*
G36*
X111053D02*
X103947D01*
Y83947D01*
X111053D01*
Y91053D01*
D02*
G37*
G36*
X98500Y79144D02*
Y77500D01*
X100144D01*
X100072Y77858D01*
X99586Y78586D01*
X98858Y79072D01*
X98500Y79144D01*
D02*
G37*
G36*
X97500D02*
X97142Y79072D01*
X96414Y78586D01*
X95928Y77858D01*
X95856Y77500D01*
X97500D01*
Y79144D01*
D02*
G37*
G36*
X100144Y76500D02*
X98500D01*
Y74856D01*
X98858Y74928D01*
X99586Y75414D01*
X100072Y76142D01*
X100144Y76500D01*
D02*
G37*
G36*
X97500D02*
X95856D01*
X95928Y76142D01*
X96414Y75414D01*
X97142Y74928D01*
X97500Y74856D01*
Y76500D01*
D02*
G37*
G36*
X167500Y81083D02*
X166573Y80961D01*
X165708Y80603D01*
X164966Y80034D01*
X164397Y79292D01*
X164039Y78427D01*
X163917Y77500D01*
X164039Y76573D01*
X164397Y75708D01*
X164966Y74966D01*
X165708Y74397D01*
X166573Y74039D01*
X167500Y73917D01*
X168427Y74039D01*
X169292Y74397D01*
X170034Y74966D01*
X170603Y75708D01*
X170961Y76573D01*
X171083Y77500D01*
X170961Y78427D01*
X170603Y79292D01*
X170034Y80034D01*
X169292Y80603D01*
X168427Y80961D01*
X167500Y81083D01*
D02*
G37*
G36*
X157500D02*
X156573Y80961D01*
X155708Y80603D01*
X154966Y80034D01*
X154397Y79292D01*
X154039Y78427D01*
X153917Y77500D01*
X154039Y76573D01*
X154397Y75708D01*
X154966Y74966D01*
X155708Y74397D01*
X156573Y74039D01*
X157500Y73917D01*
X158427Y74039D01*
X159292Y74397D01*
X160034Y74966D01*
X160603Y75708D01*
X160961Y76573D01*
X161083Y77500D01*
X160961Y78427D01*
X160603Y79292D01*
X160034Y80034D01*
X159292Y80603D01*
X158427Y80961D01*
X157500Y81083D01*
D02*
G37*
G36*
X147500D02*
X146573Y80961D01*
X145708Y80603D01*
X144966Y80034D01*
X144397Y79292D01*
X144039Y78427D01*
X143917Y77500D01*
X144039Y76573D01*
X144397Y75708D01*
X144966Y74966D01*
X145708Y74397D01*
X146573Y74039D01*
X147500Y73917D01*
X148427Y74039D01*
X149292Y74397D01*
X150034Y74966D01*
X150603Y75708D01*
X150961Y76573D01*
X151083Y77500D01*
X150961Y78427D01*
X150603Y79292D01*
X150034Y80034D01*
X149292Y80603D01*
X148427Y80961D01*
X147500Y81083D01*
D02*
G37*
G36*
X137500D02*
X136573Y80961D01*
X135708Y80603D01*
X134966Y80034D01*
X134397Y79292D01*
X134039Y78427D01*
X133917Y77500D01*
X134039Y76573D01*
X134397Y75708D01*
X134966Y74966D01*
X135708Y74397D01*
X136573Y74039D01*
X137500Y73917D01*
X138427Y74039D01*
X139292Y74397D01*
X140034Y74966D01*
X140603Y75708D01*
X140961Y76573D01*
X141083Y77500D01*
X140961Y78427D01*
X140603Y79292D01*
X140034Y80034D01*
X139292Y80603D01*
X138427Y80961D01*
X137500Y81083D01*
D02*
G37*
G36*
X127500D02*
X126573Y80961D01*
X125708Y80603D01*
X124966Y80034D01*
X124397Y79292D01*
X124039Y78427D01*
X123917Y77500D01*
X124039Y76573D01*
X124397Y75708D01*
X124966Y74966D01*
X125708Y74397D01*
X126573Y74039D01*
X127500Y73917D01*
X128427Y74039D01*
X129292Y74397D01*
X130034Y74966D01*
X130603Y75708D01*
X130961Y76573D01*
X131083Y77500D01*
X130961Y78427D01*
X130603Y79292D01*
X130034Y80034D01*
X129292Y80603D01*
X128427Y80961D01*
X127500Y81083D01*
D02*
G37*
G36*
X117500D02*
X116573Y80961D01*
X115708Y80603D01*
X114966Y80034D01*
X114397Y79292D01*
X114039Y78427D01*
X113917Y77500D01*
X114039Y76573D01*
X114397Y75708D01*
X114966Y74966D01*
X115708Y74397D01*
X116573Y74039D01*
X117500Y73917D01*
X118427Y74039D01*
X119292Y74397D01*
X120034Y74966D01*
X120603Y75708D01*
X120961Y76573D01*
X121083Y77500D01*
X120961Y78427D01*
X120603Y79292D01*
X120034Y80034D01*
X119292Y80603D01*
X118427Y80961D01*
X117500Y81083D01*
D02*
G37*
G36*
X107500D02*
X106573Y80961D01*
X105708Y80603D01*
X104966Y80034D01*
X104397Y79292D01*
X104039Y78427D01*
X103917Y77500D01*
X104039Y76573D01*
X104397Y75708D01*
X104966Y74966D01*
X105708Y74397D01*
X106573Y74039D01*
X107500Y73917D01*
X108427Y74039D01*
X109292Y74397D01*
X110034Y74966D01*
X110603Y75708D01*
X110961Y76573D01*
X111083Y77500D01*
X110961Y78427D01*
X110603Y79292D01*
X110034Y80034D01*
X109292Y80603D01*
X108427Y80961D01*
X107500Y81083D01*
D02*
G37*
G36*
X173000Y111835D02*
X172298Y111696D01*
X171702Y111298D01*
X171304Y110702D01*
X171165Y110000D01*
X171304Y109298D01*
X171702Y108702D01*
X171878Y108585D01*
Y103000D01*
X171878Y103000D01*
X171964Y102571D01*
X172207Y102207D01*
X190666Y83748D01*
Y81428D01*
X190603Y81420D01*
X189499Y80963D01*
X188552Y80236D01*
X187824Y79288D01*
X187367Y78184D01*
X187211Y77000D01*
X187367Y75816D01*
X187824Y74712D01*
X188552Y73764D01*
X189499Y73037D01*
X190603Y72580D01*
X191787Y72424D01*
X192972Y72580D01*
X194076Y73037D01*
X195023Y73764D01*
X195750Y74712D01*
X196208Y75816D01*
X196364Y77000D01*
X196208Y78184D01*
X195750Y79288D01*
X195023Y80236D01*
X194076Y80963D01*
X192972Y81420D01*
X192909Y81428D01*
Y84212D01*
X192909Y84213D01*
X192824Y84642D01*
X192580Y85006D01*
X192580Y85006D01*
X174122Y103465D01*
Y104671D01*
X174622Y104823D01*
X174702Y104702D01*
X175298Y104304D01*
X176000Y104165D01*
X176208Y104206D01*
X204207Y76207D01*
X204207Y76207D01*
X204571Y75964D01*
X205000Y75878D01*
X206572D01*
X206580Y75816D01*
X207037Y74712D01*
X207764Y73764D01*
X208712Y73037D01*
X209816Y72580D01*
X211000Y72424D01*
X212184Y72580D01*
X213288Y73037D01*
X214236Y73764D01*
X214963Y74712D01*
X215420Y75816D01*
X215576Y77000D01*
X215420Y78184D01*
X214963Y79288D01*
X214236Y80236D01*
X213288Y80963D01*
X212184Y81420D01*
X211000Y81576D01*
X209816Y81420D01*
X208712Y80963D01*
X207764Y80236D01*
X207037Y79288D01*
X206580Y78184D01*
X206572Y78122D01*
X205465D01*
X177794Y105792D01*
X177835Y106000D01*
X177696Y106702D01*
X177298Y107298D01*
X176702Y107696D01*
X176000Y107835D01*
X175298Y107696D01*
X174702Y107298D01*
X174622Y107177D01*
X174122Y107329D01*
Y108585D01*
X174298Y108702D01*
X174696Y109298D01*
X174835Y110000D01*
X174696Y110702D01*
X174298Y111298D01*
X173702Y111696D01*
X173000Y111835D01*
D02*
G37*
G36*
X67500Y72144D02*
Y70500D01*
X69144D01*
X69072Y70858D01*
X68586Y71586D01*
X67858Y72072D01*
X67500Y72144D01*
D02*
G37*
G36*
X66500D02*
X66142Y72072D01*
X65414Y71586D01*
X64928Y70858D01*
X64856Y70500D01*
X66500D01*
Y72144D01*
D02*
G37*
G36*
X69144Y69500D02*
X67500D01*
Y67856D01*
X67858Y67928D01*
X68586Y68414D01*
X69072Y69142D01*
X69144Y69500D01*
D02*
G37*
G36*
X66500D02*
X64856D01*
X64928Y69142D01*
X65414Y68414D01*
X66142Y67928D01*
X66500Y67856D01*
Y69500D01*
D02*
G37*
G36*
X196500Y69144D02*
Y67500D01*
X198144D01*
X198072Y67858D01*
X197586Y68586D01*
X196858Y69072D01*
X196500Y69144D01*
D02*
G37*
G36*
X195500D02*
X195142Y69072D01*
X194414Y68586D01*
X193928Y67858D01*
X193856Y67500D01*
X195500D01*
Y69144D01*
D02*
G37*
G36*
X198144Y66500D02*
X196500D01*
Y64856D01*
X196858Y64928D01*
X197586Y65414D01*
X198072Y66142D01*
X198144Y66500D01*
D02*
G37*
G36*
X195500D02*
X193856D01*
X193928Y66142D01*
X194414Y65414D01*
X195142Y64928D01*
X195500Y64856D01*
Y66500D01*
D02*
G37*
G36*
X74260Y65904D02*
Y64260D01*
X75903D01*
X75832Y64618D01*
X75346Y65346D01*
X74618Y65832D01*
X74260Y65904D01*
D02*
G37*
G36*
X73260D02*
X72901Y65832D01*
X72174Y65346D01*
X71688Y64618D01*
X71616Y64260D01*
X73260D01*
Y65904D01*
D02*
G37*
G36*
X98500Y64144D02*
Y62500D01*
X100144D01*
X100072Y62858D01*
X99586Y63586D01*
X98858Y64072D01*
X98500Y64144D01*
D02*
G37*
G36*
X97500D02*
X97142Y64072D01*
X96414Y63586D01*
X95928Y62858D01*
X95856Y62500D01*
X97500D01*
Y64144D01*
D02*
G37*
G36*
X75903Y63260D02*
X74260D01*
Y61616D01*
X74618Y61687D01*
X75346Y62174D01*
X75832Y62901D01*
X75903Y63260D01*
D02*
G37*
G36*
X73260D02*
X71616D01*
X71688Y62901D01*
X72174Y62174D01*
X72901Y61687D01*
X73260Y61616D01*
Y63260D01*
D02*
G37*
G36*
X100144Y61500D02*
X98500D01*
Y59856D01*
X98858Y59928D01*
X99586Y60414D01*
X100072Y61142D01*
X100144Y61500D01*
D02*
G37*
G36*
X97500D02*
X95856D01*
X95928Y61142D01*
X96414Y60414D01*
X97142Y59928D01*
X97500Y59856D01*
Y61500D01*
D02*
G37*
G36*
X209500Y50144D02*
Y48500D01*
X211144D01*
X211072Y48858D01*
X210586Y49586D01*
X209858Y50072D01*
X209500Y50144D01*
D02*
G37*
G36*
X208500D02*
X208142Y50072D01*
X207414Y49586D01*
X206928Y48858D01*
X206856Y48500D01*
X208500D01*
Y50144D01*
D02*
G37*
G36*
X211144Y47500D02*
X209500D01*
Y45856D01*
X209858Y45928D01*
X210586Y46414D01*
X211072Y47142D01*
X211144Y47500D01*
D02*
G37*
G36*
X208500D02*
X206856D01*
X206928Y47142D01*
X207414Y46414D01*
X208142Y45928D01*
X208500Y45856D01*
Y47500D01*
D02*
G37*
G36*
X175000Y41835D02*
X174298Y41696D01*
X174202Y41631D01*
X80798D01*
X80702Y41696D01*
X80000Y41835D01*
X79298Y41696D01*
X78702Y41298D01*
X78304Y40702D01*
X78165Y40000D01*
X78304Y39298D01*
X78702Y38702D01*
X79298Y38304D01*
X80000Y38165D01*
X80702Y38304D01*
X80798Y38369D01*
X174202D01*
X174298Y38304D01*
X175000Y38165D01*
X175702Y38304D01*
X176298Y38702D01*
X176696Y39298D01*
X176835Y40000D01*
X176696Y40702D01*
X176298Y41298D01*
X175702Y41696D01*
X175000Y41835D01*
D02*
G37*
G36*
X22803Y42477D02*
Y33000D01*
X27346D01*
Y37500D01*
X27174Y38805D01*
X26671Y40022D01*
X25869Y41066D01*
X24825Y41868D01*
X23608Y42371D01*
X22803Y42477D01*
D02*
G37*
G36*
X21803D02*
X20998Y42371D01*
X19782Y41868D01*
X18737Y41066D01*
X17936Y40022D01*
X17432Y38805D01*
X17260Y37500D01*
Y33000D01*
X21803D01*
Y42477D01*
D02*
G37*
G36*
X184000Y31835D02*
X183298Y31696D01*
X183202Y31631D01*
X76798D01*
X76702Y31696D01*
X76000Y31835D01*
X75298Y31696D01*
X74702Y31298D01*
X74304Y30702D01*
X74165Y30000D01*
X74304Y29298D01*
X74702Y28702D01*
X75298Y28304D01*
X76000Y28165D01*
X76702Y28304D01*
X76798Y28369D01*
X183202D01*
X183298Y28304D01*
X184000Y28165D01*
X184702Y28304D01*
X185298Y28702D01*
X185696Y29298D01*
X185835Y30000D01*
X185696Y30702D01*
X185298Y31298D01*
X184702Y31696D01*
X184000Y31835D01*
D02*
G37*
G36*
X47500Y42140D02*
X46299Y41982D01*
X45180Y41518D01*
X44219Y40781D01*
X43482Y39820D01*
X43018Y38701D01*
X42860Y37500D01*
Y27500D01*
X43018Y26299D01*
X43482Y25180D01*
X44219Y24219D01*
X45180Y23482D01*
X46299Y23018D01*
X47500Y22860D01*
X48701Y23018D01*
X49820Y23482D01*
X50781Y24219D01*
X51518Y25180D01*
X51982Y26299D01*
X52140Y27500D01*
Y37500D01*
X51982Y38701D01*
X51518Y39820D01*
X50781Y40781D01*
X49820Y41518D01*
X48701Y41982D01*
X47500Y42140D01*
D02*
G37*
G36*
X27346Y32000D02*
X22803D01*
Y22523D01*
X23608Y22629D01*
X24825Y23133D01*
X25869Y23934D01*
X26671Y24978D01*
X27174Y26195D01*
X27346Y27500D01*
Y32000D01*
D02*
G37*
G36*
X21803D02*
X17260D01*
Y27500D01*
X17432Y26195D01*
X17936Y24978D01*
X18737Y23934D01*
X19782Y23133D01*
X20998Y22629D01*
X21803Y22523D01*
Y32000D01*
D02*
G37*
G36*
X39902Y19039D02*
X35402D01*
Y14496D01*
X44879D01*
X44773Y15301D01*
X44269Y16518D01*
X43468Y17562D01*
X42423Y18364D01*
X41207Y18867D01*
X39902Y19039D01*
D02*
G37*
G36*
X34402D02*
X29902D01*
X28596Y18867D01*
X27380Y18364D01*
X26335Y17562D01*
X25534Y16518D01*
X25030Y15301D01*
X24924Y14496D01*
X34402D01*
Y19039D01*
D02*
G37*
G36*
X220500Y13921D02*
Y10500D01*
X223921D01*
X223851Y11032D01*
X223453Y11993D01*
X222819Y12819D01*
X221993Y13453D01*
X221032Y13851D01*
X220500Y13921D01*
D02*
G37*
G36*
X219500D02*
X218968Y13851D01*
X218007Y13453D01*
X217181Y12819D01*
X216547Y11993D01*
X216149Y11032D01*
X216079Y10500D01*
X219500D01*
Y13921D01*
D02*
G37*
G36*
X210500D02*
Y10500D01*
X213921D01*
X213851Y11032D01*
X213453Y11993D01*
X212819Y12819D01*
X211993Y13453D01*
X211032Y13851D01*
X210500Y13921D01*
D02*
G37*
G36*
X209500D02*
X208968Y13851D01*
X208007Y13453D01*
X207181Y12819D01*
X206547Y11993D01*
X206149Y11032D01*
X206079Y10500D01*
X209500D01*
Y13921D01*
D02*
G37*
G36*
X44879Y13496D02*
X35402D01*
Y8953D01*
X39902D01*
X41207Y9125D01*
X42423Y9629D01*
X43468Y10430D01*
X44269Y11474D01*
X44773Y12691D01*
X44879Y13496D01*
D02*
G37*
G36*
X34402D02*
X24924D01*
X25030Y12691D01*
X25534Y11474D01*
X26335Y10430D01*
X27380Y9629D01*
X28596Y9125D01*
X29902Y8953D01*
X34402D01*
Y13496D01*
D02*
G37*
G36*
X253553Y13553D02*
X246447D01*
Y6447D01*
X253553D01*
Y13553D01*
D02*
G37*
G36*
X163553D02*
X156447D01*
Y6447D01*
X163553D01*
Y13553D01*
D02*
G37*
G36*
X300000Y13583D02*
X299073Y13461D01*
X298208Y13103D01*
X297466Y12534D01*
X296897Y11792D01*
X296539Y10927D01*
X296417Y10000D01*
X296539Y9072D01*
X296897Y8208D01*
X297466Y7466D01*
X298208Y6897D01*
X299073Y6539D01*
X300000Y6417D01*
X300927Y6539D01*
X301792Y6897D01*
X302534Y7466D01*
X303103Y8208D01*
X303461Y9072D01*
X303583Y10000D01*
X303461Y10927D01*
X303103Y11792D01*
X302534Y12534D01*
X301792Y13103D01*
X300927Y13461D01*
X300000Y13583D01*
D02*
G37*
G36*
X290000D02*
X289073Y13461D01*
X288208Y13103D01*
X287466Y12534D01*
X286897Y11792D01*
X286539Y10927D01*
X286417Y10000D01*
X286539Y9072D01*
X286897Y8208D01*
X287466Y7466D01*
X288208Y6897D01*
X289073Y6539D01*
X290000Y6417D01*
X290927Y6539D01*
X291792Y6897D01*
X292534Y7466D01*
X293103Y8208D01*
X293461Y9072D01*
X293583Y10000D01*
X293461Y10927D01*
X293103Y11792D01*
X292534Y12534D01*
X291792Y13103D01*
X290927Y13461D01*
X290000Y13583D01*
D02*
G37*
G36*
X280000D02*
X279073Y13461D01*
X278208Y13103D01*
X277466Y12534D01*
X276897Y11792D01*
X276539Y10927D01*
X276417Y10000D01*
X276539Y9072D01*
X276897Y8208D01*
X277466Y7466D01*
X278208Y6897D01*
X279073Y6539D01*
X280000Y6417D01*
X280927Y6539D01*
X281792Y6897D01*
X282534Y7466D01*
X283103Y8208D01*
X283461Y9072D01*
X283583Y10000D01*
X283461Y10927D01*
X283103Y11792D01*
X282534Y12534D01*
X281792Y13103D01*
X280927Y13461D01*
X280000Y13583D01*
D02*
G37*
G36*
X270000D02*
X269073Y13461D01*
X268208Y13103D01*
X267466Y12534D01*
X266897Y11792D01*
X266539Y10927D01*
X266417Y10000D01*
X266539Y9072D01*
X266897Y8208D01*
X267466Y7466D01*
X268208Y6897D01*
X269073Y6539D01*
X270000Y6417D01*
X270927Y6539D01*
X271792Y6897D01*
X272534Y7466D01*
X273103Y8208D01*
X273461Y9072D01*
X273583Y10000D01*
X273461Y10927D01*
X273103Y11792D01*
X272534Y12534D01*
X271792Y13103D01*
X270927Y13461D01*
X270000Y13583D01*
D02*
G37*
G36*
X260000D02*
X259073Y13461D01*
X258208Y13103D01*
X257466Y12534D01*
X256897Y11792D01*
X256539Y10927D01*
X256417Y10000D01*
X256539Y9072D01*
X256897Y8208D01*
X257466Y7466D01*
X258208Y6897D01*
X259073Y6539D01*
X260000Y6417D01*
X260927Y6539D01*
X261792Y6897D01*
X262534Y7466D01*
X263103Y8208D01*
X263461Y9072D01*
X263583Y10000D01*
X263461Y10927D01*
X263103Y11792D01*
X262534Y12534D01*
X261792Y13103D01*
X260927Y13461D01*
X260000Y13583D01*
D02*
G37*
G36*
X230000D02*
X229073Y13461D01*
X228208Y13103D01*
X227466Y12534D01*
X226897Y11792D01*
X226539Y10927D01*
X226417Y10000D01*
X226539Y9072D01*
X226897Y8208D01*
X227466Y7466D01*
X228208Y6897D01*
X229073Y6539D01*
X230000Y6417D01*
X230927Y6539D01*
X231792Y6897D01*
X232534Y7466D01*
X233103Y8208D01*
X233461Y9072D01*
X233583Y10000D01*
X233461Y10927D01*
X233103Y11792D01*
X232534Y12534D01*
X231792Y13103D01*
X230927Y13461D01*
X230000Y13583D01*
D02*
G37*
G36*
X180000D02*
X179073Y13461D01*
X178208Y13103D01*
X177466Y12534D01*
X176897Y11792D01*
X176539Y10927D01*
X176417Y10000D01*
X176539Y9072D01*
X176897Y8208D01*
X177466Y7466D01*
X178208Y6897D01*
X179073Y6539D01*
X180000Y6417D01*
X180927Y6539D01*
X181792Y6897D01*
X182534Y7466D01*
X183103Y8208D01*
X183461Y9072D01*
X183583Y10000D01*
X183461Y10927D01*
X183103Y11792D01*
X182534Y12534D01*
X181792Y13103D01*
X180927Y13461D01*
X180000Y13583D01*
D02*
G37*
G36*
X170000D02*
X169073Y13461D01*
X168208Y13103D01*
X167466Y12534D01*
X166897Y11792D01*
X166539Y10927D01*
X166417Y10000D01*
X166539Y9072D01*
X166897Y8208D01*
X167466Y7466D01*
X168208Y6897D01*
X169073Y6539D01*
X170000Y6417D01*
X170927Y6539D01*
X171792Y6897D01*
X172534Y7466D01*
X173103Y8208D01*
X173461Y9072D01*
X173583Y10000D01*
X173461Y10927D01*
X173103Y11792D01*
X172534Y12534D01*
X171792Y13103D01*
X170927Y13461D01*
X170000Y13583D01*
D02*
G37*
G36*
X223921Y9500D02*
X220500D01*
Y6079D01*
X221032Y6149D01*
X221993Y6547D01*
X222819Y7181D01*
X223453Y8007D01*
X223851Y8968D01*
X223921Y9500D01*
D02*
G37*
G36*
X219500D02*
X216079D01*
X216149Y8968D01*
X216547Y8007D01*
X217181Y7181D01*
X218007Y6547D01*
X218968Y6149D01*
X219500Y6079D01*
Y9500D01*
D02*
G37*
G36*
X213921D02*
X210500D01*
Y6079D01*
X211032Y6149D01*
X211993Y6547D01*
X212819Y7181D01*
X213453Y8007D01*
X213851Y8968D01*
X213921Y9500D01*
D02*
G37*
G36*
X209500D02*
X206079D01*
X206149Y8968D01*
X206547Y8007D01*
X207181Y7181D01*
X208007Y6547D01*
X208968Y6149D01*
X209500Y6079D01*
Y9500D01*
D02*
G37*
%LPD*%
D31*
X199500Y10500D02*
Y19500D01*
Y10500D02*
X200000Y10000D01*
X308000Y128000D02*
X310551Y125449D01*
X293000Y128000D02*
X308000D01*
X283000Y118000D02*
X293000Y128000D01*
X103000Y138000D02*
X116000Y125000D01*
X95000Y160000D02*
X103000Y152000D01*
Y138000D02*
Y152000D01*
X80000Y40000D02*
X175000D01*
X190000Y10000D02*
Y62500D01*
X182500Y70000D02*
X190000Y62500D01*
X82000Y160000D02*
X95000D01*
X60000Y195000D02*
X67500Y202500D01*
X17000Y195000D02*
X60000D01*
X12000Y190000D02*
X17000Y195000D01*
X12000Y184000D02*
Y190000D01*
Y184000D02*
X15000Y181000D01*
X44000D01*
X52500Y55000D02*
Y67500D01*
X7500Y112500D02*
X52500Y67500D01*
X116000Y125000D02*
X136000Y105000D01*
X160000D01*
X182500Y82500D01*
X20000Y132500D02*
X40000Y112500D01*
X20000Y132500D02*
Y150000D01*
X283000Y92000D02*
Y118000D01*
X201000Y10000D02*
X283000Y92000D01*
X260000Y49000D02*
X288000D01*
X221000Y10000D02*
X260000Y49000D01*
X220000Y10000D02*
X221000D01*
X182500Y70000D02*
Y82500D01*
X76000Y30000D02*
X184000D01*
X288000Y49000D02*
X310552Y71552D01*
Y99902D01*
X200000Y10000D02*
X201000D01*
X310551Y119803D02*
Y125449D01*
X77000Y165000D02*
X82000Y160000D01*
X128000Y172000D02*
X144000Y188000D01*
Y200000D01*
X77000Y165000D02*
Y169000D01*
X80000Y172000D01*
X128000D01*
X44000Y181000D02*
X46000Y183000D01*
X69000D01*
X74000Y178000D01*
Y172000D02*
Y178000D01*
Y172000D02*
X77000Y169000D01*
D32*
X97500Y133500D02*
Y147500D01*
X51000Y87000D02*
X97500Y133500D01*
X100000Y125000D02*
Y142500D01*
X50000Y75000D02*
X100000Y125000D01*
X57000Y73500D02*
X64500D01*
X111999Y157901D02*
X116098Y162000D01*
X161000D01*
X89000Y165000D02*
X167000D01*
X211000Y121000D01*
X164000Y179000D02*
X197000Y146000D01*
X164000Y179000D02*
Y200000D01*
X174000Y175000D02*
Y200000D01*
Y175000D02*
X210000Y139000D01*
X168000Y168000D02*
X212000Y124000D01*
X85000Y168000D02*
X168000D01*
X211000Y121000D02*
X266000D01*
X156901Y157901D02*
X157000Y158000D01*
X121999Y157901D02*
X156901D01*
X107000Y183000D02*
X124000Y200000D01*
X96000Y183000D02*
X107000D01*
X91000Y178000D02*
X96000Y183000D01*
X134000Y189000D02*
Y200000D01*
X123000Y178000D02*
X134000Y189000D01*
X98000Y178000D02*
X123000D01*
X112000Y138000D02*
X117000Y143000D01*
X157000D01*
X161000Y147000D01*
X129000Y135000D02*
X155000D01*
X165000Y145000D01*
X81000Y201000D02*
X90000D01*
X67000Y187000D02*
X81000Y201000D01*
X19000Y187000D02*
X67000D01*
X60000Y145000D02*
X62500Y142500D01*
Y115000D02*
Y142500D01*
X280000Y198000D02*
Y200000D01*
X194000Y164000D02*
X229000Y129000D01*
X194000Y164000D02*
Y200000D01*
X184000Y169000D02*
X217000Y136000D01*
X184000Y169000D02*
Y200000D01*
X173000Y103000D02*
Y110000D01*
X191787Y77000D02*
Y84213D01*
X173000Y103000D02*
X191787Y84213D01*
X65000Y147500D02*
Y155000D01*
X44000Y175000D02*
X58000D01*
X68000Y165000D01*
Y140000D02*
Y165000D01*
X148000Y132000D02*
X166000Y114000D01*
X177000D01*
X180000Y111000D01*
Y108500D02*
Y111000D01*
X176000Y106000D02*
X205000Y77000D01*
X211000D01*
X290000Y166000D02*
Y200000D01*
X300000Y172000D02*
Y200000D01*
X212000Y124000D02*
X252000D01*
X300000Y172000D01*
X64500Y73500D02*
X116000Y125000D01*
X266000Y121000D02*
X290000Y145000D01*
D33*
X220000Y10000D02*
D03*
X210000D02*
D03*
X190000D02*
D03*
X180000D02*
D03*
X170000D02*
D03*
X200000D02*
D03*
X230000D02*
D03*
X112000Y148000D02*
D03*
X122000D02*
D03*
X112000Y138000D02*
D03*
X121999Y157901D02*
D03*
X111999D02*
D03*
X124000Y200000D02*
D03*
X134000D02*
D03*
X144000D02*
D03*
X174000D02*
D03*
X204000D02*
D03*
X194000D02*
D03*
X184000D02*
D03*
X164000D02*
D03*
X154000D02*
D03*
X240000D02*
D03*
X250000D02*
D03*
X270000D02*
D03*
X280000D02*
D03*
X290000D02*
D03*
X260000D02*
D03*
X230000D02*
D03*
X290000Y10000D02*
D03*
X260000D02*
D03*
X270000D02*
D03*
X280000D02*
D03*
X300000D02*
D03*
X310551Y109803D02*
D03*
X300551D02*
D03*
X310551Y119803D02*
D03*
X300552Y99902D02*
D03*
X310552D02*
D03*
X27500Y202500D02*
D03*
X57500D02*
D03*
X47500D02*
D03*
X37500D02*
D03*
X17500D02*
D03*
X7500D02*
D03*
X107500Y77500D02*
D03*
X117500D02*
D03*
X127500D02*
D03*
X137500D02*
D03*
X147500D02*
D03*
X157500D02*
D03*
X167500D02*
D03*
D34*
X160000Y10000D02*
D03*
X122000Y138000D02*
D03*
X214000Y200000D02*
D03*
X300000D02*
D03*
X250000Y10000D02*
D03*
X300551Y119803D02*
D03*
X67500Y202500D02*
D03*
D35*
X47500Y32500D02*
D03*
X22303D02*
D03*
D36*
X34902Y13996D02*
D03*
D37*
X310000Y140000D02*
D03*
D38*
X191787Y77000D02*
D03*
X211000D02*
D03*
D39*
X107500Y87500D02*
D03*
X117500D02*
D03*
X127500D02*
D03*
X137500D02*
D03*
X147500D02*
D03*
X157500D02*
D03*
X167500D02*
D03*
D40*
X199500Y19500D02*
D03*
X51000Y87000D02*
D03*
X50000Y75000D02*
D03*
X57000Y73500D02*
D03*
X105000Y128000D02*
D03*
X161000Y162000D02*
D03*
X157000Y158000D02*
D03*
X91000Y178000D02*
D03*
X98000D02*
D03*
X161000Y147000D02*
D03*
X129000Y135000D02*
D03*
X165000Y145000D02*
D03*
X103000Y201000D02*
D03*
X90000D02*
D03*
X175000Y40000D02*
D03*
X80000D02*
D03*
X67000Y70000D02*
D03*
X98000Y62000D02*
D03*
X74500Y119500D02*
D03*
X60000Y145000D02*
D03*
X62500Y115000D02*
D03*
X73760Y63760D02*
D03*
X100000Y142500D02*
D03*
X97500Y147500D02*
D03*
X52500Y55000D02*
D03*
X7500Y112500D02*
D03*
X25000Y145000D02*
D03*
X40000Y112500D02*
D03*
X20000Y150000D02*
D03*
X229000Y129000D02*
D03*
X217000Y136000D02*
D03*
X210000Y139000D02*
D03*
X197000Y146000D02*
D03*
X173000Y110000D02*
D03*
X65000Y147500D02*
D03*
Y155000D02*
D03*
X44000Y175000D02*
D03*
X68000Y140000D02*
D03*
X85000Y168000D02*
D03*
X89000Y165000D02*
D03*
X19000Y187000D02*
D03*
X76000Y30000D02*
D03*
X184000D02*
D03*
X148000Y132000D02*
D03*
X176000Y106000D02*
D03*
X180000Y108500D02*
D03*
X290000Y166000D02*
D03*
X116000Y125000D02*
D03*
X128000Y172000D02*
D03*
X44000Y181000D02*
D03*
X77000Y169000D02*
D03*
X69000Y171000D02*
D03*
X67000Y179000D02*
D03*
X144000Y129000D02*
D03*
X133000Y123000D02*
D03*
X209000Y48000D02*
D03*
X196000Y67000D02*
D03*
X13000Y173000D02*
D03*
X98000Y77000D02*
D03*
X290000Y145000D02*
D03*
D41*
X78169Y154331D02*
D03*
Y150000D02*
D03*
Y145669D02*
D03*
X86831Y154331D02*
D03*
Y150000D02*
D03*
Y145669D02*
D03*
X82500Y154331D02*
D03*
Y150000D02*
D03*
Y145669D02*
D03*
X191496Y133996D02*
D03*
Y129665D02*
D03*
Y125335D02*
D03*
Y121004D02*
D03*
X187165Y133996D02*
D03*
Y129665D02*
D03*
Y125335D02*
D03*
Y121004D02*
D03*
X182835Y133996D02*
D03*
Y129665D02*
D03*
Y125335D02*
D03*
Y121004D02*
D03*
X178504Y133996D02*
D03*
Y129665D02*
D03*
Y125335D02*
D03*
Y121004D02*
D03*
D42*
X260000Y10000D02*
X260337D01*
X249663D02*
X250000D01*
M02*
