G04 Layer_Color=65535*
%FSLAX25Y25*%
%MOIN*%
G70*
G01*
G75*
%ADD32C,0.01000*%
%ADD43C,0.00984*%
%ADD44C,0.00787*%
%ADD45C,0.00600*%
D32*
X229000Y114500D02*
G03*
X229000Y124500I0J5000D01*
G01*
X227000Y124500D02*
G03*
X222000Y114500I2500J-7500D01*
G01*
X29461Y153800D02*
G03*
X29461Y153800I-361J0D01*
G01*
X155000Y5000D02*
X235000D01*
Y15000D01*
X155000D02*
X235000D01*
X155000Y5000D02*
Y15000D01*
X227000Y114500D02*
Y124500D01*
X229000Y114500D02*
Y124500D01*
X222000Y119500D02*
X227000D01*
X107000Y133000D02*
X127000D01*
X107000D02*
Y163000D01*
X127000Y133000D02*
Y163000D01*
X107000D02*
X127000D01*
X93032Y176031D02*
X96969Y179969D01*
X87126D02*
X93032D01*
X96969D02*
X102874D01*
X83189Y170913D02*
X106811D01*
X83189Y185087D02*
X106811D01*
X93032Y198031D02*
X96969Y201969D01*
Y198031D02*
X102874D01*
X87126D02*
X93032D01*
X83189Y207087D02*
X106811D01*
X83189Y192913D02*
X106811D01*
X600Y170800D02*
X41300D01*
Y124300D02*
Y170800D01*
X600Y124300D02*
X41300D01*
X600D02*
Y170800D01*
X219000Y195000D02*
Y205000D01*
X119000Y195000D02*
X219000D01*
X119000D02*
Y205000D01*
X219000D01*
X225000D02*
X305000D01*
X225000Y195000D02*
Y205000D01*
Y195000D02*
X305000D01*
Y205000D01*
X245000Y15000D02*
X305000D01*
Y5000D02*
Y15000D01*
X245000Y5000D02*
Y15000D01*
Y5000D02*
X305000D01*
X295551Y124803D02*
X315551D01*
Y94803D02*
Y124803D01*
X295551Y94803D02*
Y124803D01*
Y94803D02*
X315551D01*
X185882Y71095D02*
X217378D01*
Y82906D01*
X185882D02*
X217378D01*
X185882Y71095D02*
Y82906D01*
X72500Y197500D02*
Y207500D01*
X2500Y197500D02*
X72500D01*
X2500D02*
Y207500D01*
X72500D01*
X102500Y72500D02*
Y92500D01*
Y72500D02*
X112500D01*
Y92500D01*
X102500D02*
X112500D01*
Y72500D02*
Y92500D01*
Y72500D02*
X122500D01*
Y92500D01*
X112500D02*
X122500D01*
Y72500D02*
Y92500D01*
Y72500D02*
X132500D01*
Y92500D01*
X122500D02*
X132500D01*
Y72500D02*
Y92500D01*
Y72500D02*
X142500D01*
Y92500D01*
X132500D02*
X142500D01*
Y72500D02*
Y92500D01*
Y72500D02*
X152500D01*
Y92500D01*
X142500D02*
X152500D01*
Y72500D02*
Y92500D01*
Y72500D02*
X162500D01*
Y92500D01*
X152500D02*
X162500D01*
Y72500D02*
Y92500D01*
Y72500D02*
X172500D01*
Y92500D01*
X162500D02*
X172500D01*
X46500Y161000D02*
X65500D01*
X46500D02*
Y169000D01*
X65500D01*
X300000Y162500D02*
Y172500D01*
X297500Y165000D02*
X300000Y162500D01*
X302500Y165000D01*
X290000Y162500D02*
Y172500D01*
X287500Y170000D02*
X290000Y172500D01*
X292500Y170000D01*
X195000Y162500D02*
Y175000D01*
X185000Y170000D02*
Y175000D01*
X175000Y170000D02*
Y175000D01*
X165000Y170000D02*
Y175000D01*
X77000Y114999D02*
X78000D01*
X77500D01*
Y112000D01*
X77000D01*
X78000D01*
X81498Y114499D02*
X80999Y114999D01*
X79999D01*
X79499Y114499D01*
Y112500D01*
X79999Y112000D01*
X80999D01*
X81498Y112500D01*
X82498Y112000D02*
X83498D01*
X82998D01*
Y114999D01*
X82498Y114499D01*
X133001Y31000D02*
X136000D01*
Y32999D01*
X133001Y35998D02*
Y33999D01*
X136000D01*
Y35998D01*
X134501Y33999D02*
Y34999D01*
X133001Y36998D02*
X136000D01*
Y38498D01*
X135500Y38997D01*
X133501D01*
X133001Y38498D01*
Y36998D01*
X136000Y41996D02*
Y39997D01*
X134001Y41996D01*
X133501D01*
X133001Y41497D01*
Y40497D01*
X133501Y39997D01*
X8999Y55499D02*
X8500Y55999D01*
X7500D01*
X7000Y55499D01*
Y53500D01*
X7500Y53000D01*
X8500D01*
X8999Y53500D01*
X9999Y53000D02*
Y55999D01*
X11998Y53000D01*
Y55999D01*
X12998Y53000D02*
X13998D01*
X13498D01*
Y55999D01*
X12998Y55499D01*
X2500Y90000D02*
Y92999D01*
X3999D01*
X4499Y92499D01*
Y91500D01*
X3999Y91000D01*
X2500D01*
X3500D02*
X4499Y90000D01*
X5499D02*
X6499D01*
X5999D01*
Y92999D01*
X5499Y92499D01*
X7998Y92999D02*
X9998D01*
Y92499D01*
X7998Y90500D01*
Y90000D01*
X2500Y77500D02*
Y80499D01*
X3999D01*
X4499Y79999D01*
Y79000D01*
X3999Y78500D01*
X2500D01*
X3500D02*
X4499Y77500D01*
X5499D02*
X6499D01*
X5999D01*
Y80499D01*
X5499Y79999D01*
X9998Y80499D02*
X8998Y79999D01*
X7998Y79000D01*
Y78000D01*
X8498Y77500D01*
X9498D01*
X9998Y78000D01*
Y78500D01*
X9498Y79000D01*
X7998D01*
X2500Y67500D02*
Y70499D01*
X3999D01*
X4499Y69999D01*
Y68999D01*
X3999Y68500D01*
X2500D01*
X3500D02*
X4499Y67500D01*
X5499D02*
X6499D01*
X5999D01*
Y70499D01*
X5499Y69999D01*
X9998Y70499D02*
X7998D01*
Y68999D01*
X8998Y69499D01*
X9498D01*
X9998Y68999D01*
Y68000D01*
X9498Y67500D01*
X8498D01*
X7998Y68000D01*
X65000Y111000D02*
Y113999D01*
X66500D01*
X66999Y113499D01*
Y112499D01*
X66500Y112000D01*
X65000D01*
X66000D02*
X66999Y111000D01*
X67999D02*
X68999D01*
X68499D01*
Y113999D01*
X67999Y113499D01*
X71998Y111000D02*
Y113999D01*
X70498Y112499D01*
X72498D01*
X49000Y94499D02*
Y91500D01*
X50999D01*
X53998Y94499D02*
X51999D01*
Y91500D01*
X53998D01*
X51999Y93000D02*
X52999D01*
X54998Y94499D02*
Y91500D01*
X56498D01*
X56997Y92000D01*
Y93999D01*
X56498Y94499D01*
X54998D01*
X57997Y91500D02*
X58997D01*
X58497D01*
Y94499D01*
X57997Y93999D01*
X60496D02*
X60996Y94499D01*
X61996D01*
X62496Y93999D01*
Y92000D01*
X61996Y91500D01*
X60996D01*
X60496Y92000D01*
Y93999D01*
X50500Y81499D02*
Y78500D01*
X52499D01*
X55498Y81499D02*
X53499D01*
Y78500D01*
X55498D01*
X53499Y80000D02*
X54499D01*
X56498Y81499D02*
Y78500D01*
X57998D01*
X58497Y79000D01*
Y80999D01*
X57998Y81499D01*
X56498D01*
X59497Y79000D02*
X59997Y78500D01*
X60997D01*
X61496Y79000D01*
Y80999D01*
X60997Y81499D01*
X59997D01*
X59497Y80999D01*
Y80499D01*
X59997Y80000D01*
X61496D01*
X50500Y68999D02*
Y66000D01*
X52499D01*
X55498Y68999D02*
X53499D01*
Y66000D01*
X55498D01*
X53499Y67500D02*
X54499D01*
X56498Y68999D02*
Y66000D01*
X57998D01*
X58497Y66500D01*
Y68499D01*
X57998Y68999D01*
X56498D01*
X59497Y68499D02*
X59997Y68999D01*
X60997D01*
X61496Y68499D01*
Y67999D01*
X60997Y67500D01*
X61496Y67000D01*
Y66500D01*
X60997Y66000D01*
X59997D01*
X59497Y66500D01*
Y67000D01*
X59997Y67500D01*
X59497Y67999D01*
Y68499D01*
X59997Y67500D02*
X60997D01*
X61999Y120999D02*
X60000D01*
Y119500D01*
X61000D01*
X60000D01*
Y118000D01*
X62999Y120999D02*
Y118000D01*
X64499D01*
X64998Y118500D01*
Y119000D01*
X64499Y119500D01*
X62999D01*
X64499D01*
X64998Y119999D01*
Y120499D01*
X64499Y120999D01*
X62999D01*
X65998Y120499D02*
X66498Y120999D01*
X67498D01*
X67997Y120499D01*
Y119999D01*
X67498Y119500D01*
X66998D01*
X67498D01*
X67997Y119000D01*
Y118500D01*
X67498Y118000D01*
X66498D01*
X65998Y118500D01*
X64499Y15499D02*
X62500D01*
Y13999D01*
X63500D01*
X62500D01*
Y12500D01*
X65499D02*
X66499D01*
X65999D01*
Y15499D01*
X65499Y14999D01*
X39000Y107999D02*
Y105000D01*
X40499D01*
X40999Y105500D01*
Y107499D01*
X40499Y107999D01*
X39000D01*
X41999Y107499D02*
X42499Y107999D01*
X43499D01*
X43998Y107499D01*
Y106999D01*
X43499Y106500D01*
X42999D01*
X43499D01*
X43998Y106000D01*
Y105500D01*
X43499Y105000D01*
X42499D01*
X41999Y105500D01*
X88000Y63999D02*
Y61000D01*
X89499D01*
X89999Y61500D01*
Y63499D01*
X89499Y63999D01*
X88000D01*
X92998Y61000D02*
X90999D01*
X92998Y62999D01*
Y63499D01*
X92499Y63999D01*
X91499D01*
X90999Y63499D01*
X4999Y121499D02*
X4499Y121999D01*
X3500D01*
X3000Y121499D01*
Y119500D01*
X3500Y119000D01*
X4499D01*
X4999Y119500D01*
X5999Y119000D02*
Y121999D01*
X7998Y119000D01*
Y121999D01*
X8998D02*
X10997D01*
Y121499D01*
X8998Y119500D01*
Y119000D01*
X199000Y91499D02*
X200999Y88500D01*
Y91499D02*
X199000Y88500D01*
X201999D02*
X202999D01*
X202499D01*
Y91499D01*
X201999Y90999D01*
X126999Y103999D02*
X125000D01*
Y102499D01*
X126000D01*
X125000D01*
Y101000D01*
X127999Y103999D02*
Y101000D01*
X129499D01*
X129998Y101500D01*
Y102000D01*
X129499Y102499D01*
X127999D01*
X129499D01*
X129998Y102999D01*
Y103499D01*
X129499Y103999D01*
X127999D01*
X130998Y101000D02*
X131998D01*
X131498D01*
Y103999D01*
X130998Y103499D01*
X62500Y62999D02*
Y60000D01*
X63999D01*
X64499Y60500D01*
Y62499D01*
X63999Y62999D01*
X62500D01*
X65499Y60000D02*
X66499D01*
X65999D01*
Y62999D01*
X65499Y62499D01*
X209999Y53499D02*
X209500Y53999D01*
X208500D01*
X208000Y53499D01*
Y51500D01*
X208500Y51000D01*
X209500D01*
X209999Y51500D01*
X210999Y53499D02*
X211499Y53999D01*
X212498D01*
X212998Y53499D01*
Y52999D01*
X212498Y52500D01*
X212998Y52000D01*
Y51500D01*
X212498Y51000D01*
X211499D01*
X210999Y51500D01*
Y52000D01*
X211499Y52500D01*
X210999Y52999D01*
Y53499D01*
X211499Y52500D02*
X212498D01*
X190999Y52499D02*
X190499Y52999D01*
X189500D01*
X189000Y52499D01*
Y50500D01*
X189500Y50000D01*
X190499D01*
X190999Y50500D01*
X191999Y52999D02*
X193998D01*
Y52499D01*
X191999Y50500D01*
Y50000D01*
X151999Y102999D02*
X151499Y103499D01*
X150500D01*
X150000Y102999D01*
Y101000D01*
X150500Y100500D01*
X151499D01*
X151999Y101000D01*
X154998Y103499D02*
X153999Y102999D01*
X152999Y101999D01*
Y101000D01*
X153499Y100500D01*
X154499D01*
X154998Y101000D01*
Y101500D01*
X154499Y101999D01*
X152999D01*
X141999Y102999D02*
X141499Y103499D01*
X140500D01*
X140000Y102999D01*
Y101000D01*
X140500Y100500D01*
X141499D01*
X141999Y101000D01*
X144998Y103499D02*
X142999D01*
Y101999D01*
X143999Y102499D01*
X144499D01*
X144998Y101999D01*
Y101000D01*
X144499Y100500D01*
X143499D01*
X142999Y101000D01*
X96999Y85499D02*
X96500Y85999D01*
X95500D01*
X95000Y85499D01*
Y83500D01*
X95500Y83000D01*
X96500D01*
X96999Y83500D01*
X99499Y83000D02*
Y85999D01*
X97999Y84500D01*
X99998D01*
X89999Y71499D02*
X89499Y71999D01*
X88500D01*
X88000Y71499D01*
Y69500D01*
X88500Y69000D01*
X89499D01*
X89999Y69500D01*
X90999Y71499D02*
X91499Y71999D01*
X92499D01*
X92998Y71499D01*
Y70999D01*
X92499Y70499D01*
X91999D01*
X92499D01*
X92998Y70000D01*
Y69500D01*
X92499Y69000D01*
X91499D01*
X90999Y69500D01*
X68999Y166499D02*
X68499Y166999D01*
X67500D01*
X67000Y166499D01*
Y164500D01*
X67500Y164000D01*
X68499D01*
X68999Y164500D01*
X69999D02*
X70499Y164000D01*
X71499D01*
X71998Y164500D01*
Y166499D01*
X71499Y166999D01*
X70499D01*
X69999Y166499D01*
Y165999D01*
X70499Y165499D01*
X71998D01*
X68999Y176499D02*
X68499Y176999D01*
X67500D01*
X67000Y176499D01*
Y174500D01*
X67500Y174000D01*
X68499D01*
X68999Y174500D01*
X69999Y174000D02*
X70999D01*
X70499D01*
Y176999D01*
X69999Y176499D01*
X72498D02*
X72998Y176999D01*
X73998D01*
X74498Y176499D01*
Y174500D01*
X73998Y174000D01*
X72998D01*
X72498Y174500D01*
Y176499D01*
X82999Y125499D02*
X82499Y125999D01*
X81500D01*
X81000Y125499D01*
Y123500D01*
X81500Y123000D01*
X82499D01*
X82999Y123500D01*
X83999Y123000D02*
X84999D01*
X84499D01*
Y125999D01*
X83999Y125499D01*
X86498Y123000D02*
X87498D01*
X86998D01*
Y125999D01*
X86498Y125499D01*
X76000Y165999D02*
X77000D01*
X76500D01*
Y163000D01*
X76000D01*
X77000D01*
X80498Y165499D02*
X79999Y165999D01*
X78999D01*
X78499Y165499D01*
Y163500D01*
X78999Y163000D01*
X79999D01*
X80498Y163500D01*
X82998Y163000D02*
Y165999D01*
X81498Y164499D01*
X83498D01*
X65500Y149500D02*
Y152499D01*
X67000D01*
X67499Y151999D01*
Y150999D01*
X67000Y150500D01*
X65500D01*
X66500D02*
X67499Y149500D01*
X68499D02*
X69499D01*
X68999D01*
Y152499D01*
X68499Y151999D01*
X65000Y142000D02*
Y144999D01*
X66500D01*
X66999Y144499D01*
Y143500D01*
X66500Y143000D01*
X65000D01*
X66000D02*
X66999Y142000D01*
X69998D02*
X67999D01*
X69998Y143999D01*
Y144499D01*
X69499Y144999D01*
X68499D01*
X67999Y144499D01*
X53000Y125000D02*
Y127999D01*
X54500D01*
X54999Y127499D01*
Y126499D01*
X54500Y126000D01*
X53000D01*
X54000D02*
X54999Y125000D01*
X55999Y127499D02*
X56499Y127999D01*
X57499D01*
X57998Y127499D01*
Y126999D01*
X57499Y126499D01*
X56999D01*
X57499D01*
X57998Y126000D01*
Y125500D01*
X57499Y125000D01*
X56499D01*
X55999Y125500D01*
X73000Y123000D02*
Y125999D01*
X74499D01*
X74999Y125499D01*
Y124499D01*
X74499Y124000D01*
X73000D01*
X74000D02*
X74999Y123000D01*
X77499D02*
Y125999D01*
X75999Y124499D01*
X77998D01*
X185000Y110499D02*
X186000D01*
X185500D01*
Y107500D01*
X185000D01*
X186000D01*
X189498Y109999D02*
X188999Y110499D01*
X187999D01*
X187499Y109999D01*
Y108000D01*
X187999Y107500D01*
X188999D01*
X189498Y108000D01*
X190498Y109999D02*
X190998Y110499D01*
X191998D01*
X192498Y109999D01*
Y109499D01*
X191998Y109000D01*
X191498D01*
X191998D01*
X192498Y108500D01*
Y108000D01*
X191998Y107500D01*
X190998D01*
X190498Y108000D01*
X10999Y188499D02*
X10499Y188999D01*
X9500D01*
X9000Y188499D01*
Y186500D01*
X9500Y186000D01*
X10499D01*
X10999Y186500D01*
X11999Y186000D02*
X12999D01*
X12499D01*
Y188999D01*
X11999Y188499D01*
X16498Y186000D02*
X14498D01*
X16498Y187999D01*
Y188499D01*
X15998Y188999D01*
X14998D01*
X14498Y188499D01*
X145999Y137499D02*
X145500Y137999D01*
X144500D01*
X144000Y137499D01*
Y135500D01*
X144500Y135000D01*
X145500D01*
X145999Y135500D01*
X146999Y135000D02*
X147999D01*
X147499D01*
Y137999D01*
X146999Y137499D01*
X149498D02*
X149998Y137999D01*
X150998D01*
X151498Y137499D01*
Y136999D01*
X150998Y136500D01*
X150498D01*
X150998D01*
X151498Y136000D01*
Y135500D01*
X150998Y135000D01*
X149998D01*
X149498Y135500D01*
X143001Y31000D02*
X146000D01*
Y32999D01*
X143001Y35998D02*
Y33999D01*
X146000D01*
Y35998D01*
X144501Y33999D02*
Y34999D01*
X143001Y36998D02*
X146000D01*
Y38498D01*
X145500Y38997D01*
X143501D01*
X143001Y38498D01*
Y36998D01*
X146000Y39997D02*
Y40997D01*
Y40497D01*
X143001D01*
X143501Y39997D01*
X123001Y31000D02*
X126000D01*
Y32999D01*
X123001Y35998D02*
Y33999D01*
X126000D01*
Y35998D01*
X124501Y33999D02*
Y34999D01*
X123001Y36998D02*
X126000D01*
Y38498D01*
X125500Y38997D01*
X123501D01*
X123001Y38498D01*
Y36998D01*
X123501Y39997D02*
X123001Y40497D01*
Y41497D01*
X123501Y41996D01*
X124001D01*
X124501Y41497D01*
Y40997D01*
Y41497D01*
X125000Y41996D01*
X125500D01*
X126000Y41497D01*
Y40497D01*
X125500Y39997D01*
X113001Y31000D02*
X116000D01*
Y32999D01*
X113001Y35998D02*
Y33999D01*
X116000D01*
Y35998D01*
X114500Y33999D02*
Y34999D01*
X113001Y36998D02*
X116000D01*
Y38498D01*
X115500Y38997D01*
X113501D01*
X113001Y38498D01*
Y36998D01*
X116000Y41497D02*
X113001D01*
X114500Y39997D01*
Y41996D01*
X30000Y186000D02*
Y188999D01*
X31499D01*
X31999Y188499D01*
Y187499D01*
X31499Y187000D01*
X30000D01*
X31000D02*
X31999Y186000D01*
X34998Y188999D02*
X32999D01*
Y187499D01*
X33999Y187999D01*
X34499D01*
X34998Y187499D01*
Y186500D01*
X34499Y186000D01*
X33499D01*
X32999Y186500D01*
X144000Y153000D02*
Y155999D01*
X145500D01*
X145999Y155499D01*
Y154499D01*
X145500Y154000D01*
X144000D01*
X145000D02*
X145999Y153000D01*
X148998Y155999D02*
X147999Y155499D01*
X146999Y154499D01*
Y153500D01*
X147499Y153000D01*
X148499D01*
X148998Y153500D01*
Y154000D01*
X148499Y154499D01*
X146999D01*
X167500Y62500D02*
Y65499D01*
X169000D01*
X169499Y64999D01*
Y63999D01*
X169000Y63500D01*
X167500D01*
X168500D02*
X169499Y62500D01*
X170499Y65499D02*
X172498D01*
Y64999D01*
X170499Y63000D01*
Y62500D01*
X157500D02*
Y65499D01*
X159000D01*
X159499Y64999D01*
Y63999D01*
X159000Y63500D01*
X157500D01*
X158500D02*
X159499Y62500D01*
X160499Y64999D02*
X160999Y65499D01*
X161999D01*
X162498Y64999D01*
Y64499D01*
X161999Y63999D01*
X162498Y63500D01*
Y63000D01*
X161999Y62500D01*
X160999D01*
X160499Y63000D01*
Y63500D01*
X160999Y63999D01*
X160499Y64499D01*
Y64999D01*
X160999Y63999D02*
X161999D01*
X147500Y62500D02*
Y65499D01*
X149000D01*
X149499Y64999D01*
Y63999D01*
X149000Y63500D01*
X147500D01*
X148500D02*
X149499Y62500D01*
X150499Y63000D02*
X150999Y62500D01*
X151999D01*
X152498Y63000D01*
Y64999D01*
X151999Y65499D01*
X150999D01*
X150499Y64999D01*
Y64499D01*
X150999Y63999D01*
X152498D01*
X135000Y62500D02*
Y65499D01*
X136500D01*
X136999Y64999D01*
Y63999D01*
X136500Y63500D01*
X135000D01*
X136000D02*
X136999Y62500D01*
X137999D02*
X138999D01*
X138499D01*
Y65499D01*
X137999Y64999D01*
X140498D02*
X140998Y65499D01*
X141998D01*
X142498Y64999D01*
Y63000D01*
X141998Y62500D01*
X140998D01*
X140498Y63000D01*
Y64999D01*
X93999Y189999D02*
X93499Y190499D01*
X92500D01*
X92000Y189999D01*
Y189499D01*
X92500Y188999D01*
X93499D01*
X93999Y188500D01*
Y188000D01*
X93499Y187500D01*
X92500D01*
X92000Y188000D01*
X94999Y190499D02*
Y187500D01*
X95999Y188500D01*
X96998Y187500D01*
Y190499D01*
X97998Y187500D02*
X98998D01*
X98498D01*
Y190499D01*
X97998Y189999D01*
X92999Y167499D02*
X92500Y167999D01*
X91500D01*
X91000Y167499D01*
Y166999D01*
X91500Y166499D01*
X92500D01*
X92999Y166000D01*
Y165500D01*
X92500Y165000D01*
X91500D01*
X91000Y165500D01*
X93999Y167999D02*
Y165000D01*
X94999Y166000D01*
X95998Y165000D01*
Y167999D01*
X98997Y165000D02*
X96998D01*
X98997Y166999D01*
Y167499D01*
X98498Y167999D01*
X97498D01*
X96998Y167499D01*
X44499Y192499D02*
X43999Y192999D01*
X43000D01*
X42500Y192499D01*
Y190500D01*
X43000Y190000D01*
X43999D01*
X44499Y190500D01*
X45499Y190000D02*
Y192999D01*
X47498Y190000D01*
Y192999D01*
X50497D02*
X49498Y192499D01*
X48498Y191499D01*
Y190500D01*
X48998Y190000D01*
X49998D01*
X50497Y190500D01*
Y191000D01*
X49998Y191499D01*
X48498D01*
X164499Y97999D02*
X163500D01*
X163999D01*
Y95500D01*
X163500Y95000D01*
X163000D01*
X162500Y95500D01*
X165499Y95000D02*
Y97999D01*
X166999D01*
X167498Y97499D01*
Y96500D01*
X166999Y96000D01*
X165499D01*
X168498Y95000D02*
X169498D01*
X168998D01*
Y97999D01*
X168498Y97499D01*
X154499Y97999D02*
X153500D01*
X153999D01*
Y95500D01*
X153500Y95000D01*
X153000D01*
X152500Y95500D01*
X155499Y95000D02*
Y97999D01*
X156999D01*
X157498Y97499D01*
Y96500D01*
X156999Y96000D01*
X155499D01*
X160497Y95000D02*
X158498D01*
X160497Y96999D01*
Y97499D01*
X159998Y97999D01*
X158998D01*
X158498Y97499D01*
X144499Y97999D02*
X143500D01*
X144000D01*
Y95500D01*
X143500Y95000D01*
X143000D01*
X142500Y95500D01*
X145499Y95000D02*
Y97999D01*
X146999D01*
X147498Y97499D01*
Y96500D01*
X146999Y96000D01*
X145499D01*
X148498Y97499D02*
X148998Y97999D01*
X149998D01*
X150497Y97499D01*
Y96999D01*
X149998Y96500D01*
X149498D01*
X149998D01*
X150497Y96000D01*
Y95500D01*
X149998Y95000D01*
X148998D01*
X148498Y95500D01*
X134499Y97999D02*
X133500D01*
X134000D01*
Y95500D01*
X133500Y95000D01*
X133000D01*
X132500Y95500D01*
X135499Y95000D02*
Y97999D01*
X136999D01*
X137498Y97499D01*
Y96500D01*
X136999Y96000D01*
X135499D01*
X139998Y95000D02*
Y97999D01*
X138498Y96500D01*
X140497D01*
X124499Y97999D02*
X123500D01*
X124000D01*
Y95500D01*
X123500Y95000D01*
X123000D01*
X122500Y95500D01*
X125499Y95000D02*
Y97999D01*
X126999D01*
X127498Y97499D01*
Y96500D01*
X126999Y96000D01*
X125499D01*
X130497Y97999D02*
X128498D01*
Y96500D01*
X129498Y96999D01*
X129998D01*
X130497Y96500D01*
Y95500D01*
X129998Y95000D01*
X128998D01*
X128498Y95500D01*
X104999Y97999D02*
X104000D01*
X104499D01*
Y95500D01*
X104000Y95000D01*
X103500D01*
X103000Y95500D01*
X105999Y95000D02*
Y97999D01*
X107499D01*
X107998Y97499D01*
Y96500D01*
X107499Y96000D01*
X105999D01*
X108998Y97999D02*
X110997D01*
Y97499D01*
X108998Y95500D01*
Y95000D01*
X114499Y97999D02*
X113500D01*
X113999D01*
Y95500D01*
X113500Y95000D01*
X113000D01*
X112500Y95500D01*
X115499Y95000D02*
Y97999D01*
X116999D01*
X117498Y97499D01*
Y96500D01*
X116999Y96000D01*
X115499D01*
X120497Y97999D02*
X119498Y97499D01*
X118498Y96500D01*
Y95500D01*
X118998Y95000D01*
X119998D01*
X120497Y95500D01*
Y96000D01*
X119998Y96500D01*
X118498D01*
X103001Y31000D02*
X106000D01*
Y32999D01*
X103001Y35998D02*
Y33999D01*
X106000D01*
Y35998D01*
X104500Y33999D02*
Y34999D01*
X103001Y36998D02*
X106000D01*
Y38498D01*
X105500Y38997D01*
X103501D01*
X103001Y38498D01*
Y36998D01*
Y41996D02*
Y39997D01*
X104500D01*
X104001Y40997D01*
Y41497D01*
X104500Y41996D01*
X105500D01*
X106000Y41497D01*
Y40497D01*
X105500Y39997D01*
X93001Y31000D02*
X96000D01*
Y32999D01*
X93001Y35998D02*
Y33999D01*
X96000D01*
Y35998D01*
X94500Y33999D02*
Y34999D01*
X93001Y36998D02*
X96000D01*
Y38498D01*
X95500Y38997D01*
X93501D01*
X93001Y38498D01*
Y36998D01*
Y41996D02*
X93501Y40997D01*
X94500Y39997D01*
X95500D01*
X96000Y40497D01*
Y41497D01*
X95500Y41996D01*
X95000D01*
X94500Y41497D01*
Y39997D01*
X83001Y31000D02*
X86000D01*
Y32999D01*
X83001Y35998D02*
Y33999D01*
X86000D01*
Y35998D01*
X84500Y33999D02*
Y34999D01*
X83001Y36998D02*
X86000D01*
Y38498D01*
X85500Y38997D01*
X83501D01*
X83001Y38498D01*
Y36998D01*
Y39997D02*
Y41996D01*
X83501D01*
X85500Y39997D01*
X86000D01*
X125000Y62500D02*
Y65499D01*
X126499D01*
X126999Y64999D01*
Y63999D01*
X126499Y63500D01*
X125000D01*
X126000D02*
X126999Y62500D01*
X127999D02*
X128999D01*
X128499D01*
Y65499D01*
X127999Y64999D01*
X130498Y62500D02*
X131498D01*
X130998D01*
Y65499D01*
X130498Y64999D01*
X115000Y62500D02*
Y65499D01*
X116499D01*
X116999Y64999D01*
Y63999D01*
X116499Y63500D01*
X115000D01*
X116000D02*
X116999Y62500D01*
X117999D02*
X118999D01*
X118499D01*
Y65499D01*
X117999Y64999D01*
X122498Y62500D02*
X120498D01*
X122498Y64499D01*
Y64999D01*
X121998Y65499D01*
X120998D01*
X120498Y64999D01*
X105000Y62500D02*
Y65499D01*
X106500D01*
X106999Y64999D01*
Y63999D01*
X106500Y63500D01*
X105000D01*
X106000D02*
X106999Y62500D01*
X107999D02*
X108999D01*
X108499D01*
Y65499D01*
X107999Y64999D01*
X110498D02*
X110998Y65499D01*
X111998D01*
X112498Y64999D01*
Y64499D01*
X111998Y63999D01*
X111498D01*
X111998D01*
X112498Y63500D01*
Y63000D01*
X111998Y62500D01*
X110998D01*
X110498Y63000D01*
X108000Y105999D02*
Y103000D01*
X109500D01*
X109999Y103500D01*
Y105499D01*
X109500Y105999D01*
X108000D01*
X112499Y103000D02*
Y105999D01*
X110999Y104499D01*
X112998D01*
X297502Y177500D02*
X302500D01*
Y179999D01*
X301667Y180832D01*
X298335D01*
X297502Y179999D01*
Y177500D01*
X298335Y182498D02*
X297502Y183331D01*
Y184998D01*
X298335Y185831D01*
X301667D01*
X302500Y184998D01*
Y183331D01*
X301667Y182498D01*
X298335D01*
X287502Y177500D02*
X292500D01*
Y179999D01*
X291667Y180832D01*
X288335D01*
X287502Y179999D01*
Y177500D01*
X292500Y182498D02*
Y184165D01*
Y183331D01*
X287502D01*
X288335Y182498D01*
X277502Y177500D02*
X282500D01*
Y179999D01*
X281667Y180832D01*
X278335D01*
X277502Y179999D01*
Y177500D01*
X282500Y185831D02*
Y182498D01*
X279168Y185831D01*
X278335D01*
X277502Y184998D01*
Y183331D01*
X278335Y182498D01*
X267502Y177500D02*
X272500D01*
Y179999D01*
X271667Y180832D01*
X268335D01*
X267502Y179999D01*
Y177500D01*
X268335Y182498D02*
X267502Y183331D01*
Y184998D01*
X268335Y185831D01*
X269168D01*
X270001Y184998D01*
Y184165D01*
Y184998D01*
X270834Y185831D01*
X271667D01*
X272500Y184998D01*
Y183331D01*
X271667Y182498D01*
X257502Y177500D02*
X262500D01*
Y179999D01*
X261667Y180832D01*
X258335D01*
X257502Y179999D01*
Y177500D01*
X262500Y184998D02*
X257502D01*
X260001Y182498D01*
Y185831D01*
X247502Y177500D02*
X252500D01*
Y179999D01*
X251667Y180832D01*
X248335D01*
X247502Y179999D01*
Y177500D01*
Y185831D02*
Y182498D01*
X250001D01*
X249168Y184165D01*
Y184998D01*
X250001Y185831D01*
X251667D01*
X252500Y184998D01*
Y183331D01*
X251667Y182498D01*
X237502Y177500D02*
X242500D01*
Y179999D01*
X241667Y180832D01*
X238335D01*
X237502Y179999D01*
Y177500D01*
Y185831D02*
X238335Y184165D01*
X240001Y182498D01*
X241667D01*
X242500Y183331D01*
Y184998D01*
X241667Y185831D01*
X240834D01*
X240001Y184998D01*
Y182498D01*
X227502Y177500D02*
X232500D01*
Y179999D01*
X231667Y180832D01*
X228335D01*
X227502Y179999D01*
Y177500D01*
Y182498D02*
Y185831D01*
X228335D01*
X231667Y182498D01*
X232500D01*
X212502Y177500D02*
X217500D01*
Y179999D01*
X216667Y180832D01*
X213335D01*
X212502Y179999D01*
Y177500D01*
X213335Y182498D02*
X212502Y183331D01*
Y184998D01*
X213335Y185831D01*
X214168D01*
X215001Y184998D01*
X215834Y185831D01*
X216667D01*
X217500Y184998D01*
Y183331D01*
X216667Y182498D01*
X215834D01*
X215001Y183331D01*
X214168Y182498D01*
X213335D01*
X215001Y183331D02*
Y184998D01*
X202502Y177500D02*
X207500D01*
Y179999D01*
X206667Y180832D01*
X203335D01*
X202502Y179999D01*
Y177500D01*
X206667Y182498D02*
X207500Y183331D01*
Y184998D01*
X206667Y185831D01*
X203335D01*
X202502Y184998D01*
Y183331D01*
X203335Y182498D01*
X204168D01*
X205001Y183331D01*
Y185831D01*
X192502Y177500D02*
X197500D01*
Y179999D01*
X196667Y180832D01*
X193335D01*
X192502Y179999D01*
Y177500D01*
X197500Y182498D02*
Y184165D01*
Y183331D01*
X192502D01*
X193335Y182498D01*
Y186664D02*
X192502Y187497D01*
Y189163D01*
X193335Y189996D01*
X196667D01*
X197500Y189163D01*
Y187497D01*
X196667Y186664D01*
X193335D01*
X182502Y177500D02*
X187500D01*
Y179999D01*
X186667Y180832D01*
X183335D01*
X182502Y179999D01*
Y177500D01*
X187500Y182498D02*
Y184165D01*
Y183331D01*
X182502D01*
X183335Y182498D01*
X187500Y186664D02*
Y188330D01*
Y187497D01*
X182502D01*
X183335Y186664D01*
X172502Y177500D02*
X177500D01*
Y179999D01*
X176667Y180832D01*
X173335D01*
X172502Y179999D01*
Y177500D01*
X177500Y182498D02*
Y184165D01*
Y183331D01*
X172502D01*
X173335Y182498D01*
X177500Y189996D02*
Y186664D01*
X174168Y189996D01*
X173335D01*
X172502Y189163D01*
Y187497D01*
X173335Y186664D01*
X162502Y177500D02*
X167500D01*
Y179999D01*
X166667Y180832D01*
X163335D01*
X162502Y179999D01*
Y177500D01*
X167500Y182498D02*
Y184165D01*
Y183331D01*
X162502D01*
X163335Y182498D01*
Y186664D02*
X162502Y187497D01*
Y189163D01*
X163335Y189996D01*
X164168D01*
X165001Y189163D01*
Y188330D01*
Y189163D01*
X165834Y189996D01*
X166667D01*
X167500Y189163D01*
Y187497D01*
X166667Y186664D01*
X153335Y180832D02*
X152502Y179999D01*
Y178333D01*
X153335Y177500D01*
X156667D01*
X157500Y178333D01*
Y179999D01*
X156667Y180832D01*
X155001D01*
Y179166D01*
X157500Y182498D02*
X152502D01*
X157500Y185831D01*
X152502D01*
Y187497D02*
X157500D01*
Y189996D01*
X156667Y190829D01*
X153335D01*
X152502Y189996D01*
Y187497D01*
X147500Y174000D02*
X144168D01*
X142502Y175666D01*
X144168Y177332D01*
X147500D01*
X145001D01*
Y174000D01*
X147500Y178998D02*
X142502D01*
Y181498D01*
X143335Y182331D01*
X145001D01*
X145834Y181498D01*
Y178998D01*
Y180665D02*
X147500Y182331D01*
X142502Y187329D02*
Y183997D01*
X147500D01*
Y187329D01*
X145001Y183997D02*
Y185663D01*
X142502Y192327D02*
Y188995D01*
X145001D01*
Y190661D01*
Y188995D01*
X147500D01*
X132502Y177500D02*
X137500D01*
Y179999D01*
X136667Y180832D01*
X133335D01*
X132502Y179999D01*
Y177500D01*
X137500Y182498D02*
Y184165D01*
Y183331D01*
X132502D01*
X133335Y182498D01*
X137500Y189163D02*
X132502D01*
X135001Y186664D01*
Y189996D01*
X122502Y177500D02*
X127500D01*
Y179999D01*
X126667Y180832D01*
X123335D01*
X122502Y179999D01*
Y177500D01*
X127500Y182498D02*
Y184165D01*
Y183331D01*
X122502D01*
X123335Y182498D01*
X122502Y189996D02*
Y186664D01*
X125001D01*
X124168Y188330D01*
Y189163D01*
X125001Y189996D01*
X126667D01*
X127500Y189163D01*
Y187497D01*
X126667Y186664D01*
X252500Y22500D02*
X249168D01*
X247502Y24166D01*
X249168Y25832D01*
X252500D01*
X250001D01*
Y22500D01*
X248335Y27498D02*
X247502Y28331D01*
Y29998D01*
X248335Y30831D01*
X251667D01*
X252500Y29998D01*
Y28331D01*
X251667Y27498D01*
X248335D01*
X262500Y22500D02*
X259168D01*
X257502Y24166D01*
X259168Y25832D01*
X262500D01*
X260001D01*
Y22500D01*
X262500Y27498D02*
Y29164D01*
Y28331D01*
X257502D01*
X258335Y27498D01*
X272500Y22500D02*
X269168D01*
X267502Y24166D01*
X269168Y25832D01*
X272500D01*
X270001D01*
Y22500D01*
X272500Y30831D02*
Y27498D01*
X269168Y30831D01*
X268335D01*
X267502Y29998D01*
Y28331D01*
X268335Y27498D01*
X282500Y22500D02*
X279168D01*
X277502Y24166D01*
X279168Y25832D01*
X282500D01*
X280001D01*
Y22500D01*
X278335Y27498D02*
X277502Y28331D01*
Y29998D01*
X278335Y30831D01*
X279168D01*
X280001Y29998D01*
Y29164D01*
Y29998D01*
X280834Y30831D01*
X281667D01*
X282500Y29998D01*
Y28331D01*
X281667Y27498D01*
X292500Y22500D02*
X289168D01*
X287502Y24166D01*
X289168Y25832D01*
X292500D01*
X290001D01*
Y22500D01*
X292500Y29998D02*
X287502D01*
X290001Y27498D01*
Y30831D01*
X302500Y22500D02*
X299168D01*
X297502Y24166D01*
X299168Y25832D01*
X302500D01*
X300001D01*
Y22500D01*
X297502Y30831D02*
Y27498D01*
X300001D01*
X299168Y29164D01*
Y29998D01*
X300001Y30831D01*
X301667D01*
X302500Y29998D01*
Y28331D01*
X301667Y27498D01*
X227502Y22500D02*
X230834D01*
X232500Y24166D01*
X230834Y25832D01*
X227502D01*
Y27498D02*
Y29164D01*
Y28331D01*
X232500D01*
Y27498D01*
Y29164D01*
Y31664D02*
X227502D01*
X232500Y34996D01*
X227502D01*
X218335Y25832D02*
X217502Y24999D01*
Y23333D01*
X218335Y22500D01*
X221667D01*
X222500Y23333D01*
Y24999D01*
X221667Y25832D01*
X220001D01*
Y24166D01*
X222500Y27498D02*
X217502D01*
X222500Y30831D01*
X217502D01*
Y32497D02*
X222500D01*
Y34996D01*
X221667Y35829D01*
X218335D01*
X217502Y34996D01*
Y32497D01*
X208335Y25832D02*
X207502Y24999D01*
Y23333D01*
X208335Y22500D01*
X211667D01*
X212500Y23333D01*
Y24999D01*
X211667Y25832D01*
X210001D01*
Y24166D01*
X212500Y27498D02*
X207502D01*
X212500Y30831D01*
X207502D01*
Y32497D02*
X212500D01*
Y34996D01*
X211667Y35829D01*
X208335D01*
X207502Y34996D01*
Y32497D01*
X197502Y25832D02*
Y22500D01*
X200001D01*
X199168Y24166D01*
Y24999D01*
X200001Y25832D01*
X201667D01*
X202500Y24999D01*
Y23333D01*
X201667Y22500D01*
X197502Y27498D02*
X200834D01*
X202500Y29164D01*
X200834Y30831D01*
X197502D01*
X188335Y22500D02*
X187502Y23333D01*
Y24999D01*
X188335Y25832D01*
X189168D01*
X190001Y24999D01*
Y24166D01*
Y24999D01*
X190834Y25832D01*
X191667D01*
X192500Y24999D01*
Y23333D01*
X191667Y22500D01*
X192500Y27498D02*
X191667D01*
Y28331D01*
X192500D01*
Y27498D01*
X188335Y31664D02*
X187502Y32497D01*
Y34163D01*
X188335Y34996D01*
X189168D01*
X190001Y34163D01*
Y33330D01*
Y34163D01*
X190834Y34996D01*
X191667D01*
X192500Y34163D01*
Y32497D01*
X191667Y31664D01*
X187502Y36662D02*
X190834D01*
X192500Y38328D01*
X190834Y39994D01*
X187502D01*
X182500Y22500D02*
X177502D01*
Y24999D01*
X178335Y25832D01*
X180001D01*
X180834Y24999D01*
Y22500D01*
Y24166D02*
X182500Y25832D01*
X178335Y30831D02*
X177502Y29998D01*
Y28331D01*
X178335Y27498D01*
X179168D01*
X180001Y28331D01*
Y29998D01*
X180834Y30831D01*
X181667D01*
X182500Y29998D01*
Y28331D01*
X181667Y27498D01*
X177502Y32497D02*
Y35829D01*
Y34163D01*
X182500D01*
X302500Y150000D02*
X297502D01*
Y152499D01*
X298335Y153332D01*
X300001D01*
X300834Y152499D01*
Y150000D01*
Y151666D02*
X302500Y153332D01*
X297502Y154998D02*
X302500Y158331D01*
X297502D02*
X302500Y154998D01*
X287502Y150000D02*
Y153332D01*
Y151666D01*
X292500D01*
X287502Y154998D02*
X292500Y158331D01*
X287502D02*
X292500Y154998D01*
X193335Y153332D02*
X192502Y152499D01*
Y150833D01*
X193335Y150000D01*
X196667D01*
X197500Y150833D01*
Y152499D01*
X196667Y153332D01*
X193335Y158331D02*
X192502Y157498D01*
Y155831D01*
X193335Y154998D01*
X194168D01*
X195001Y155831D01*
Y157498D01*
X195834Y158331D01*
X196667D01*
X197500Y157498D01*
Y155831D01*
X196667Y154998D01*
X187500Y150000D02*
X182502D01*
X184168Y151666D01*
X182502Y153332D01*
X187500D01*
X182502Y157498D02*
Y155831D01*
X183335Y154998D01*
X186667D01*
X187500Y155831D01*
Y157498D01*
X186667Y158331D01*
X183335D01*
X182502Y157498D01*
X183335Y163329D02*
X182502Y162496D01*
Y160830D01*
X183335Y159997D01*
X184168D01*
X185001Y160830D01*
Y162496D01*
X185834Y163329D01*
X186667D01*
X187500Y162496D01*
Y160830D01*
X186667Y159997D01*
X182502Y164995D02*
Y166661D01*
Y165828D01*
X187500D01*
Y164995D01*
Y166661D01*
X177500Y150000D02*
X172502D01*
X174168Y151666D01*
X172502Y153332D01*
X177500D01*
X172502Y154998D02*
Y156665D01*
Y155831D01*
X177500D01*
Y154998D01*
Y156665D01*
X173335Y162496D02*
X172502Y161663D01*
Y159997D01*
X173335Y159164D01*
X174168D01*
X175001Y159997D01*
Y161663D01*
X175834Y162496D01*
X176667D01*
X177500Y161663D01*
Y159997D01*
X176667Y159164D01*
X172502Y166661D02*
Y164995D01*
X173335Y164162D01*
X176667D01*
X177500Y164995D01*
Y166661D01*
X176667Y167494D01*
X173335D01*
X172502Y166661D01*
X163335Y153332D02*
X162502Y152499D01*
Y150833D01*
X163335Y150000D01*
X164168D01*
X165001Y150833D01*
Y152499D01*
X165834Y153332D01*
X166667D01*
X167500Y152499D01*
Y150833D01*
X166667Y150000D01*
X163335Y158331D02*
X162502Y157498D01*
Y155831D01*
X163335Y154998D01*
X166667D01*
X167500Y155831D01*
Y157498D01*
X166667Y158331D01*
X162502Y159997D02*
X167500D01*
Y163329D01*
X162502Y164995D02*
X167500D01*
X165834D01*
X162502Y168327D01*
X165001Y165828D01*
X167500Y168327D01*
X222500Y105000D02*
Y110998D01*
X224499Y108999D01*
X226499Y110998D01*
Y105000D01*
X232497Y109998D02*
X231497Y110998D01*
X229498D01*
X228498Y109998D01*
Y108999D01*
X229498Y107999D01*
X231497D01*
X232497Y106999D01*
Y106000D01*
X231497Y105000D01*
X229498D01*
X228498Y106000D01*
X234496Y105000D02*
Y110998D01*
X237495D01*
X238495Y109998D01*
Y107999D01*
X237495Y106999D01*
X234496D01*
X240494Y107999D02*
X244493D01*
X246492Y110998D02*
Y105000D01*
X249491D01*
X250491Y106000D01*
Y109998D01*
X249491Y110998D01*
X246492D01*
X252490D02*
Y106000D01*
X253490Y105000D01*
X255489D01*
X256489Y106000D01*
Y110998D01*
X258488D02*
X260488D01*
X259488D01*
Y105000D01*
X258488D01*
X260488D01*
X263487D02*
Y110998D01*
X267485Y105000D01*
Y110998D01*
X272484D02*
X270484D01*
X269485Y109998D01*
Y106000D01*
X270484Y105000D01*
X272484D01*
X273483Y106000D01*
Y109998D01*
X272484Y110998D01*
X222500Y98999D02*
X224499Y95000D01*
X226499Y98999D01*
X228498Y95000D02*
X230497D01*
X229498D01*
Y100998D01*
X228498Y99998D01*
X233496Y95000D02*
Y96000D01*
X234496D01*
Y95000D01*
X233496D01*
X238495Y99998D02*
X239494Y100998D01*
X241494D01*
X242494Y99998D01*
Y96000D01*
X241494Y95000D01*
X239494D01*
X238495Y96000D01*
Y99998D01*
D43*
X64803Y80697D02*
G03*
X64803Y80697I-492J0D01*
G01*
X77303Y57717D02*
G03*
X77303Y57717I-492J0D01*
G01*
X13484Y118898D02*
G03*
X13484Y118898I-492J0D01*
G01*
X71890Y59508D02*
G03*
X71890Y59508I-492J0D01*
G01*
X70591Y159252D02*
G03*
X70591Y159252I-492J0D01*
G01*
X173976Y112835D02*
G03*
X173976Y112835I-492J0D01*
G01*
X112500Y110602D02*
G03*
X112500Y110602I-492J0D01*
G01*
D44*
X64311Y85323D02*
X90689D01*
X64311Y100677D02*
X90689D01*
X64311Y85323D02*
Y100677D01*
X90689Y85323D02*
Y100677D01*
X131063Y21772D02*
Y28071D01*
X138937Y21772D02*
Y28071D01*
X131063D02*
X138937D01*
X132638Y10748D02*
X137362D01*
X131063Y12717D02*
Y18228D01*
X137362Y10748D02*
X138937Y12717D01*
X131063D02*
X132638Y10748D01*
X138937Y12717D02*
Y18228D01*
X108937Y12717D02*
Y18228D01*
X101063Y12717D02*
X102638Y10748D01*
X107362D02*
X108937Y12717D01*
X101063D02*
Y18228D01*
X102638Y10748D02*
X107362D01*
X101063Y28071D02*
X108937D01*
Y21772D02*
Y28071D01*
X101063Y21772D02*
Y28071D01*
X118937Y12717D02*
Y18228D01*
X111063Y12717D02*
X112638Y10748D01*
X117362D02*
X118937Y12717D01*
X111063D02*
Y18228D01*
X112638Y10748D02*
X117362D01*
X111063Y28071D02*
X118937D01*
Y21772D02*
Y28071D01*
X111063Y21772D02*
Y28071D01*
X39773Y96938D02*
X45284D01*
Y89064D02*
X47253Y90638D01*
X45284Y96938D02*
X47253Y95363D01*
X39773Y89064D02*
X45284D01*
X47253Y90638D02*
Y95363D01*
X29930Y89064D02*
Y96938D01*
X36229D01*
X29930Y89064D02*
X36229D01*
X128938Y12716D02*
Y18227D01*
X121064Y12716D02*
X122638Y10747D01*
X127363D02*
X128938Y12716D01*
X121064D02*
Y18227D01*
X122638Y10747D02*
X127363D01*
X121064Y28070D02*
X128938D01*
Y21771D02*
Y28070D01*
X121064Y21771D02*
Y28070D01*
X32717Y63563D02*
X38228D01*
X30748Y69862D02*
X32717Y71437D01*
X30748Y65138D02*
X32717Y63563D01*
Y71437D02*
X38228D01*
X30748Y65138D02*
Y69862D01*
X48071Y63563D02*
Y71437D01*
X41772Y63563D02*
X48071D01*
X41772Y71437D02*
X48071D01*
X88937Y12717D02*
Y18228D01*
X81063Y12717D02*
X82638Y10748D01*
X87362D02*
X88937Y12717D01*
X81063D02*
Y18228D01*
X82638Y10748D02*
X87362D01*
X81063Y28071D02*
X88937D01*
Y21772D02*
Y28071D01*
X81063Y21772D02*
Y28071D01*
X98937Y12717D02*
Y18228D01*
X91063Y12717D02*
X92638Y10748D01*
X97362D02*
X98937Y12717D01*
X91063D02*
Y18228D01*
X92638Y10748D02*
X97362D01*
X91063Y28071D02*
X98937D01*
Y21772D02*
Y28071D01*
X91063Y21772D02*
Y28071D01*
X29931Y76064D02*
X36230D01*
X29931Y83938D02*
X36230D01*
X29931Y76064D02*
Y83938D01*
X47254Y77639D02*
Y82363D01*
X39774Y76064D02*
X45285D01*
Y83938D02*
X47254Y82363D01*
X45285Y76064D02*
X47254Y77639D01*
X39774Y83938D02*
X45285D01*
X141064Y21770D02*
Y28069D01*
X148938Y21770D02*
Y28069D01*
X141064D02*
X148938D01*
X142639Y10746D02*
X147363D01*
X141064Y12715D02*
Y18226D01*
X147363Y10746D02*
X148938Y12715D01*
X141064D02*
X142639Y10746D01*
X148938Y12715D02*
Y18226D01*
X67559Y24606D02*
Y25394D01*
X62441Y24606D02*
Y25394D01*
X79370Y58209D02*
X100630D01*
X79370Y46791D02*
X100630D01*
X79370Y57126D02*
Y58209D01*
X100630Y57126D02*
Y58209D01*
X79370Y46791D02*
Y47874D01*
X100630Y46791D02*
Y47874D01*
X15551Y120374D02*
X34449D01*
X15551Y104626D02*
X34449D01*
X15551Y118307D02*
Y120374D01*
X34449Y118307D02*
Y120374D01*
X15551Y104626D02*
Y106693D01*
X34449Y104626D02*
Y106693D01*
X72874Y38051D02*
Y56949D01*
X57126Y38051D02*
Y56949D01*
X70807D02*
X72874D01*
X70807Y38051D02*
X72874D01*
X57126Y56949D02*
X59193D01*
X57126Y38051D02*
X59193D01*
X72658Y158169D02*
Y159843D01*
X74331D01*
X90669D02*
X92343D01*
Y158169D02*
Y159843D01*
Y140157D02*
Y141831D01*
X90669Y140157D02*
X92343D01*
X72658D02*
Y141831D01*
Y140157D02*
X74331D01*
X197106Y115394D02*
Y116378D01*
X196122Y115394D02*
X197106D01*
Y138622D02*
Y139606D01*
X196122D02*
X197106D01*
X172894D02*
X173878D01*
X172894Y138622D02*
Y139606D01*
Y115394D02*
Y116378D01*
Y115394D02*
X173878D01*
X90551Y122807D02*
Y124874D01*
X109449Y122807D02*
Y124874D01*
X90551Y109126D02*
Y111193D01*
X109449Y109126D02*
Y111193D01*
X90551Y124874D02*
X109449D01*
X90551Y109126D02*
X109449D01*
X129000Y138000D02*
X130312D01*
X129656D01*
Y141936D01*
X129000Y141280D01*
X292000Y118000D02*
X293312D01*
X292656D01*
Y121936D01*
X292000Y121280D01*
X67500Y190000D02*
X68812D01*
X68156D01*
Y193936D01*
X67500Y193280D01*
D45*
X92400Y88700D02*
Y105300D01*
X101600Y88700D02*
Y105300D01*
X92400Y88700D02*
X101600D01*
X92400Y105300D02*
X101600D01*
X68700Y74600D02*
X85300D01*
X68700Y65400D02*
X85300D01*
X68700D02*
Y74600D01*
X85300Y65400D02*
Y74600D01*
X-7618Y50500D02*
X48100D01*
X-7618Y12500D02*
Y50500D01*
X48087Y43851D02*
X48100Y50500D01*
X-7618Y12500D02*
X23191D01*
X47591Y13648D02*
Y21648D01*
X47200Y102900D02*
Y112100D01*
X62800Y102900D02*
Y112100D01*
X47200D02*
X62800D01*
X47200Y102900D02*
X62800D01*
X12200Y62900D02*
Y72100D01*
X27800Y62900D02*
Y72100D01*
X12200D02*
X27800D01*
X12200Y62900D02*
X27800D01*
X12200Y75400D02*
Y84600D01*
X27800Y75400D02*
Y84600D01*
X12200D02*
X27800D01*
X12200Y75400D02*
X27800D01*
X12200Y87900D02*
Y97100D01*
X27800Y87900D02*
Y97100D01*
X12200D02*
X27800D01*
X12200Y87900D02*
X27800D01*
X67200Y127900D02*
X82800D01*
X67200Y137100D02*
X82800D01*
Y127900D02*
Y137100D01*
X67200Y127900D02*
Y137100D01*
X47200Y139600D02*
X62800D01*
X47200Y130400D02*
X62800D01*
X47200D02*
Y139600D01*
X62800Y130400D02*
Y139600D01*
X47200Y140400D02*
X62800D01*
X47200Y149600D02*
X62800D01*
Y140400D02*
Y149600D01*
X47200Y140400D02*
Y149600D01*
Y150400D02*
X62800D01*
X47200Y159600D02*
X62800D01*
Y150400D02*
Y159600D01*
X47200Y150400D02*
Y159600D01*
X24200Y174400D02*
X39800D01*
X24200Y183600D02*
X39800D01*
Y174400D02*
Y183600D01*
X24200Y174400D02*
Y183600D01*
X135400Y44700D02*
Y60300D01*
X144600Y44700D02*
Y60300D01*
X135400Y44700D02*
X144600D01*
X135400Y60300D02*
X144600D01*
X145400Y44700D02*
Y60300D01*
X154600Y44700D02*
Y60300D01*
X145400Y44700D02*
X154600D01*
X145400Y60300D02*
X154600D01*
X155400Y44700D02*
Y60300D01*
X164600Y44700D02*
Y60300D01*
X155400Y44700D02*
X164600D01*
X155400Y60300D02*
X164600D01*
X165400Y44700D02*
Y60300D01*
X174600Y44700D02*
Y60300D01*
X165400Y44700D02*
X174600D01*
X165400Y60300D02*
X174600D01*
X141600Y147200D02*
Y162800D01*
X132400Y147200D02*
Y162800D01*
X141600D01*
X132400Y147200D02*
X141600D01*
X105400Y44700D02*
Y60300D01*
X114600Y44700D02*
Y60300D01*
X105400Y44700D02*
X114600D01*
X105400Y60300D02*
X114600D01*
X115400Y44700D02*
Y60300D01*
X124600Y44700D02*
Y60300D01*
X115400Y44700D02*
X124600D01*
X115400Y60300D02*
X124600D01*
X125400Y44700D02*
Y60300D01*
X134600Y44700D02*
Y60300D01*
X125400Y44700D02*
X134600D01*
X125400Y60300D02*
X134600D01*
X132400Y145300D02*
X141600D01*
X132400Y128700D02*
X141600D01*
Y145300D01*
X132400Y128700D02*
Y145300D01*
X21300Y174400D02*
Y183600D01*
X4700Y174400D02*
Y183600D01*
Y174400D02*
X21300D01*
X4700Y183600D02*
X21300D01*
X84200Y127900D02*
Y137100D01*
X100800Y127900D02*
Y137100D01*
X84200D02*
X100800D01*
X84200Y127900D02*
X100800D01*
X47700Y170400D02*
Y179600D01*
X64300Y170400D02*
Y179600D01*
X47700D02*
X64300D01*
X47700Y170400D02*
X64300D01*
X137400Y105700D02*
X146600D01*
X137400Y122300D02*
X146600D01*
X137400Y105700D02*
Y122300D01*
X146600Y105700D02*
Y122300D01*
X148400Y105700D02*
X157600D01*
X148400Y122300D02*
X157600D01*
X148400Y105700D02*
Y122300D01*
X157600Y105700D02*
Y122300D01*
X182700Y56400D02*
Y65600D01*
X199300Y56400D02*
Y65600D01*
X182700D02*
X199300D01*
X182700Y56400D02*
X199300D01*
X219300D02*
Y65600D01*
X202700Y56400D02*
Y65600D01*
Y56400D02*
X219300D01*
X202700Y65600D02*
X219300D01*
X120666Y130332D02*
X119999Y130999D01*
X118667D01*
X118000Y130332D01*
Y127666D01*
X118667Y127000D01*
X119999D01*
X120666Y127666D01*
X121999Y127000D02*
Y130999D01*
X124664Y127000D01*
Y130999D01*
X125997Y130332D02*
X126664Y130999D01*
X127997D01*
X128663Y130332D01*
Y129666D01*
X127997Y128999D01*
X128663Y128333D01*
Y127666D01*
X127997Y127000D01*
X126664D01*
X125997Y127666D01*
Y128333D01*
X126664Y128999D01*
X125997Y129666D01*
Y130332D01*
X126664Y128999D02*
X127997D01*
M02*
