G04 Layer_Color=8388736*
%FSLAX25Y25*%
%MOIN*%
G70*
G01*
G75*
%ADD46R,0.04540X0.09265*%
%ADD47R,0.13595X0.09265*%
%ADD48R,0.07300X0.05800*%
%ADD49R,0.05800X0.07300*%
%ADD50R,0.05524X0.05524*%
%ADD51R,0.05524X0.05524*%
%ADD52R,0.06706X0.05524*%
%ADD53R,0.06706X0.05131*%
%ADD54R,0.10249X0.07257*%
%ADD55R,0.10642X0.08674*%
%ADD56R,0.09855X0.02769*%
%ADD57R,0.05721X0.08083*%
%ADD58R,0.10642X0.09265*%
%ADD59R,0.09265X0.10642*%
%ADD60R,0.04540X0.02178*%
%ADD61R,0.02178X0.04540*%
%ADD62R,0.13398X0.13398*%
%ADD63R,0.17139X0.17139*%
%ADD64R,0.04147X0.01902*%
%ADD65R,0.01902X0.04147*%
%ADD66R,0.07099X0.05721*%
%ADD67C,0.06706*%
%ADD68R,0.06706X0.06706*%
%ADD69O,0.08800X0.18800*%
%ADD70O,0.18800X0.08800*%
%ADD71C,0.13300*%
%ADD72C,0.00800*%
%ADD73C,0.08674*%
%ADD74R,0.06706X0.06706*%
%ADD75C,0.03200*%
%ADD76C,0.02769*%
D46*
X68445Y81583D02*
D03*
X77500D02*
D03*
X86555D02*
D03*
D47*
X77500Y104417D02*
D03*
D48*
X97000Y101500D02*
D03*
Y92500D02*
D03*
X140000Y56500D02*
D03*
Y48500D02*
D03*
X150000Y56500D02*
D03*
Y48500D02*
D03*
X160000Y56500D02*
D03*
Y48500D02*
D03*
X170000Y56500D02*
D03*
Y48500D02*
D03*
X137000Y151000D02*
D03*
Y159000D02*
D03*
X110000Y56500D02*
D03*
Y48500D02*
D03*
X120000Y56500D02*
D03*
Y48500D02*
D03*
X130000Y56500D02*
D03*
Y48500D02*
D03*
X137000Y132500D02*
D03*
Y141500D02*
D03*
X142000Y118500D02*
D03*
Y109500D02*
D03*
X153000Y118500D02*
D03*
Y109500D02*
D03*
D49*
X81500Y70000D02*
D03*
X72500D02*
D03*
X59000Y107500D02*
D03*
X51000D02*
D03*
X24000Y67500D02*
D03*
X16000D02*
D03*
X24000Y80000D02*
D03*
X16000D02*
D03*
X24000Y92500D02*
D03*
X16000D02*
D03*
X71000Y132500D02*
D03*
X79000D02*
D03*
X59000Y135000D02*
D03*
X51000D02*
D03*
Y145000D02*
D03*
X59000D02*
D03*
X51000Y155000D02*
D03*
X59000D02*
D03*
X28000Y179000D02*
D03*
X36000D02*
D03*
X8500D02*
D03*
X17500D02*
D03*
X97000Y132500D02*
D03*
X88000D02*
D03*
X60500Y175000D02*
D03*
X51500D02*
D03*
X195500Y61000D02*
D03*
X186500D02*
D03*
X206500D02*
D03*
X215500D02*
D03*
D50*
X135000Y15866D02*
D03*
Y24134D02*
D03*
X105000D02*
D03*
Y15866D02*
D03*
X115000Y24134D02*
D03*
Y15866D02*
D03*
X125001Y24133D02*
D03*
Y15865D02*
D03*
X85000Y24134D02*
D03*
Y15866D02*
D03*
X95000Y24134D02*
D03*
Y15866D02*
D03*
X145001Y15864D02*
D03*
Y24132D02*
D03*
D51*
X33867Y93001D02*
D03*
X42135D02*
D03*
X44134Y67500D02*
D03*
X35866D02*
D03*
X42136Y80001D02*
D03*
X33868D02*
D03*
D52*
X110158Y178000D02*
D03*
X79843D02*
D03*
Y200000D02*
D03*
X110158D02*
D03*
D53*
X65000Y29331D02*
D03*
Y20669D02*
D03*
D54*
X82126Y52500D02*
D03*
X97874D02*
D03*
D55*
X13189Y129980D02*
D03*
Y165020D02*
D03*
X34843Y129980D02*
D03*
Y165020D02*
D03*
D56*
X35236Y141201D02*
D03*
Y144350D02*
D03*
Y147500D02*
D03*
Y150650D02*
D03*
Y153799D02*
D03*
D57*
X47555Y119000D02*
D03*
X54445D02*
D03*
X124555Y110000D02*
D03*
X131445D02*
D03*
D58*
X18701Y112500D02*
D03*
X31299D02*
D03*
X93701Y117000D02*
D03*
X106299D02*
D03*
D59*
X65000Y53799D02*
D03*
Y41201D02*
D03*
D60*
X73051Y155905D02*
D03*
Y153937D02*
D03*
Y151969D02*
D03*
Y150000D02*
D03*
Y148031D02*
D03*
Y146063D02*
D03*
Y144095D02*
D03*
X91949D02*
D03*
Y146063D02*
D03*
Y148031D02*
D03*
Y150000D02*
D03*
Y151969D02*
D03*
Y153937D02*
D03*
Y155905D02*
D03*
D61*
X76595Y140551D02*
D03*
X78563D02*
D03*
X80532D02*
D03*
X82500D02*
D03*
X84469D02*
D03*
X86437D02*
D03*
X88406D02*
D03*
Y159449D02*
D03*
X86437D02*
D03*
X84469D02*
D03*
X82500D02*
D03*
X80532D02*
D03*
X78563D02*
D03*
X76595D02*
D03*
D62*
X82500Y150000D02*
D03*
D63*
X185000Y127500D02*
D03*
D64*
X173386Y118642D02*
D03*
Y120610D02*
D03*
Y122579D02*
D03*
Y124547D02*
D03*
Y126516D02*
D03*
Y128484D02*
D03*
Y130453D02*
D03*
Y132421D02*
D03*
Y134390D02*
D03*
Y136358D02*
D03*
X196614D02*
D03*
Y134390D02*
D03*
Y132421D02*
D03*
Y130453D02*
D03*
Y128484D02*
D03*
Y126516D02*
D03*
Y124547D02*
D03*
Y122579D02*
D03*
Y120610D02*
D03*
Y118642D02*
D03*
D65*
X176142Y139114D02*
D03*
X178110D02*
D03*
X180079D02*
D03*
X182047D02*
D03*
X184016D02*
D03*
X185984D02*
D03*
X187953D02*
D03*
X189921D02*
D03*
X191890D02*
D03*
X193858D02*
D03*
Y115886D02*
D03*
X191890D02*
D03*
X189921D02*
D03*
X187953D02*
D03*
X185984D02*
D03*
X184016D02*
D03*
X182047D02*
D03*
X180079D02*
D03*
X178110D02*
D03*
X176142D02*
D03*
D66*
X61413Y165000D02*
D03*
X50587D02*
D03*
D67*
X220000Y10000D02*
D03*
X210000D02*
D03*
X190000D02*
D03*
X180000D02*
D03*
X170000D02*
D03*
X200000D02*
D03*
X230000D02*
D03*
X112000Y148000D02*
D03*
X122000D02*
D03*
X112000Y138000D02*
D03*
X121999Y157901D02*
D03*
X111999D02*
D03*
X124000Y200000D02*
D03*
X134000D02*
D03*
X144000D02*
D03*
X174000D02*
D03*
X204000D02*
D03*
X194000D02*
D03*
X184000D02*
D03*
X164000D02*
D03*
X154000D02*
D03*
X240000D02*
D03*
X250000D02*
D03*
X270000D02*
D03*
X280000D02*
D03*
X290000D02*
D03*
X260000D02*
D03*
X230000D02*
D03*
X290000Y10000D02*
D03*
X260000D02*
D03*
X270000D02*
D03*
X280000D02*
D03*
X300000D02*
D03*
X310551Y109803D02*
D03*
X300551D02*
D03*
X310551Y119803D02*
D03*
X300552Y99902D02*
D03*
X310552D02*
D03*
X27500Y202500D02*
D03*
X57500D02*
D03*
X47500D02*
D03*
X37500D02*
D03*
X17500D02*
D03*
X7500D02*
D03*
X107500Y77500D02*
D03*
X117500D02*
D03*
X127500D02*
D03*
X137500D02*
D03*
X147500D02*
D03*
X157500D02*
D03*
X167500D02*
D03*
D68*
X160000Y10000D02*
D03*
X122000Y138000D02*
D03*
X214000Y200000D02*
D03*
X300000D02*
D03*
X250000Y10000D02*
D03*
X300551Y119803D02*
D03*
X67500Y202500D02*
D03*
D69*
X47500Y32500D02*
D03*
X22303D02*
D03*
D70*
X34902Y13996D02*
D03*
D71*
X310000Y140000D02*
D03*
D72*
X25000Y156161D02*
D03*
Y138839D02*
D03*
D73*
X191787Y77000D02*
D03*
X211000D02*
D03*
D74*
X107500Y87500D02*
D03*
X117500D02*
D03*
X127500D02*
D03*
X137500D02*
D03*
X147500D02*
D03*
X157500D02*
D03*
X167500D02*
D03*
D75*
X199500Y19500D02*
D03*
X51000Y87000D02*
D03*
X50000Y75000D02*
D03*
X57000Y73500D02*
D03*
X105000Y128000D02*
D03*
X161000Y162000D02*
D03*
X157000Y158000D02*
D03*
X91000Y178000D02*
D03*
X98000D02*
D03*
X161000Y147000D02*
D03*
X129000Y135000D02*
D03*
X165000Y145000D02*
D03*
X103000Y201000D02*
D03*
X90000D02*
D03*
X175000Y40000D02*
D03*
X80000D02*
D03*
X67000Y70000D02*
D03*
X98000Y62000D02*
D03*
X74500Y119500D02*
D03*
X60000Y145000D02*
D03*
X62500Y115000D02*
D03*
X73760Y63760D02*
D03*
X100000Y142500D02*
D03*
X97500Y147500D02*
D03*
X52500Y55000D02*
D03*
X7500Y112500D02*
D03*
X25000Y145000D02*
D03*
X40000Y112500D02*
D03*
X20000Y150000D02*
D03*
X229000Y129000D02*
D03*
X217000Y136000D02*
D03*
X210000Y139000D02*
D03*
X197000Y146000D02*
D03*
X173000Y110000D02*
D03*
X65000Y147500D02*
D03*
Y155000D02*
D03*
X44000Y175000D02*
D03*
X68000Y140000D02*
D03*
X85000Y168000D02*
D03*
X89000Y165000D02*
D03*
X19000Y187000D02*
D03*
X76000Y30000D02*
D03*
X184000D02*
D03*
X148000Y132000D02*
D03*
X176000Y106000D02*
D03*
X180000Y108500D02*
D03*
X290000Y166000D02*
D03*
X116000Y125000D02*
D03*
X128000Y172000D02*
D03*
X44000Y181000D02*
D03*
X77000Y169000D02*
D03*
X69000Y171000D02*
D03*
X67000Y179000D02*
D03*
X144000Y129000D02*
D03*
X133000Y123000D02*
D03*
X209000Y48000D02*
D03*
X196000Y67000D02*
D03*
X13000Y173000D02*
D03*
X98000Y77000D02*
D03*
X290000Y145000D02*
D03*
D76*
X78169Y154331D02*
D03*
Y150000D02*
D03*
Y145669D02*
D03*
X86831Y154331D02*
D03*
Y150000D02*
D03*
Y145669D02*
D03*
X82500Y154331D02*
D03*
Y150000D02*
D03*
Y145669D02*
D03*
X191496Y133996D02*
D03*
Y129665D02*
D03*
Y125335D02*
D03*
Y121004D02*
D03*
X187165Y133996D02*
D03*
Y129665D02*
D03*
Y125335D02*
D03*
Y121004D02*
D03*
X182835Y133996D02*
D03*
Y129665D02*
D03*
Y125335D02*
D03*
Y121004D02*
D03*
X178504Y133996D02*
D03*
Y129665D02*
D03*
Y125335D02*
D03*
Y121004D02*
D03*
M02*
