G04 Layer_Color=16711935*
%FSLAX25Y25*%
%MOIN*%
G70*
G01*
G75*
%ADD67C,0.06706*%
%ADD68R,0.06706X0.06706*%
%ADD69O,0.08800X0.18800*%
%ADD70O,0.18800X0.08800*%
%ADD71C,0.13300*%
%ADD72C,0.00800*%
%ADD73C,0.08674*%
%ADD74R,0.06706X0.06706*%
%ADD75C,0.03200*%
%ADD76C,0.02769*%
D67*
X220000Y10000D02*
D03*
X210000D02*
D03*
X190000D02*
D03*
X180000D02*
D03*
X170000D02*
D03*
X200000D02*
D03*
X230000D02*
D03*
X112000Y148000D02*
D03*
X122000D02*
D03*
X112000Y138000D02*
D03*
X121999Y157901D02*
D03*
X111999D02*
D03*
X124000Y200000D02*
D03*
X134000D02*
D03*
X144000D02*
D03*
X174000D02*
D03*
X204000D02*
D03*
X194000D02*
D03*
X184000D02*
D03*
X164000D02*
D03*
X154000D02*
D03*
X240000D02*
D03*
X250000D02*
D03*
X270000D02*
D03*
X280000D02*
D03*
X290000D02*
D03*
X260000D02*
D03*
X230000D02*
D03*
X290000Y10000D02*
D03*
X260000D02*
D03*
X270000D02*
D03*
X280000D02*
D03*
X300000D02*
D03*
X310551Y109803D02*
D03*
X300551D02*
D03*
X310551Y119803D02*
D03*
X300552Y99902D02*
D03*
X310552D02*
D03*
X27500Y202500D02*
D03*
X57500D02*
D03*
X47500D02*
D03*
X37500D02*
D03*
X17500D02*
D03*
X7500D02*
D03*
X107500Y77500D02*
D03*
X117500D02*
D03*
X127500D02*
D03*
X137500D02*
D03*
X147500D02*
D03*
X157500D02*
D03*
X167500D02*
D03*
D68*
X160000Y10000D02*
D03*
X122000Y138000D02*
D03*
X214000Y200000D02*
D03*
X300000D02*
D03*
X250000Y10000D02*
D03*
X300551Y119803D02*
D03*
X67500Y202500D02*
D03*
D69*
X47500Y32500D02*
D03*
X22303D02*
D03*
D70*
X34902Y13996D02*
D03*
D71*
X310000Y140000D02*
D03*
D72*
X25000Y156161D02*
D03*
Y138839D02*
D03*
D73*
X191787Y77000D02*
D03*
X211000D02*
D03*
D74*
X107500Y87500D02*
D03*
X117500D02*
D03*
X127500D02*
D03*
X137500D02*
D03*
X147500D02*
D03*
X157500D02*
D03*
X167500D02*
D03*
D75*
X199500Y19500D02*
D03*
X51000Y87000D02*
D03*
X50000Y75000D02*
D03*
X57000Y73500D02*
D03*
X105000Y128000D02*
D03*
X161000Y162000D02*
D03*
X157000Y158000D02*
D03*
X91000Y178000D02*
D03*
X98000D02*
D03*
X161000Y147000D02*
D03*
X129000Y135000D02*
D03*
X165000Y145000D02*
D03*
X103000Y201000D02*
D03*
X90000D02*
D03*
X175000Y40000D02*
D03*
X80000D02*
D03*
X67000Y70000D02*
D03*
X98000Y62000D02*
D03*
X74500Y119500D02*
D03*
X60000Y145000D02*
D03*
X62500Y115000D02*
D03*
X73760Y63760D02*
D03*
X100000Y142500D02*
D03*
X97500Y147500D02*
D03*
X52500Y55000D02*
D03*
X7500Y112500D02*
D03*
X25000Y145000D02*
D03*
X40000Y112500D02*
D03*
X20000Y150000D02*
D03*
X229000Y129000D02*
D03*
X217000Y136000D02*
D03*
X210000Y139000D02*
D03*
X197000Y146000D02*
D03*
X173000Y110000D02*
D03*
X65000Y147500D02*
D03*
Y155000D02*
D03*
X44000Y175000D02*
D03*
X68000Y140000D02*
D03*
X85000Y168000D02*
D03*
X89000Y165000D02*
D03*
X19000Y187000D02*
D03*
X76000Y30000D02*
D03*
X184000D02*
D03*
X148000Y132000D02*
D03*
X176000Y106000D02*
D03*
X180000Y108500D02*
D03*
X290000Y166000D02*
D03*
X116000Y125000D02*
D03*
X128000Y172000D02*
D03*
X44000Y181000D02*
D03*
X77000Y169000D02*
D03*
X69000Y171000D02*
D03*
X67000Y179000D02*
D03*
X144000Y129000D02*
D03*
X133000Y123000D02*
D03*
X209000Y48000D02*
D03*
X196000Y67000D02*
D03*
X13000Y173000D02*
D03*
X98000Y77000D02*
D03*
X290000Y145000D02*
D03*
D76*
X78169Y154331D02*
D03*
Y150000D02*
D03*
Y145669D02*
D03*
X86831Y154331D02*
D03*
Y150000D02*
D03*
Y145669D02*
D03*
X82500Y154331D02*
D03*
Y150000D02*
D03*
Y145669D02*
D03*
X191496Y133996D02*
D03*
Y129665D02*
D03*
Y125335D02*
D03*
Y121004D02*
D03*
X187165Y133996D02*
D03*
Y129665D02*
D03*
Y125335D02*
D03*
Y121004D02*
D03*
X182835Y133996D02*
D03*
Y129665D02*
D03*
Y125335D02*
D03*
Y121004D02*
D03*
X178504Y133996D02*
D03*
Y129665D02*
D03*
Y125335D02*
D03*
Y121004D02*
D03*
M02*
