G04 Layer_Physical_Order=1*
G04 Layer_Color=255*
%FSLAX25Y25*%
%MOIN*%
G70*
G01*
G75*
%ADD10R,0.03740X0.08465*%
%ADD11R,0.12795X0.08465*%
%ADD12R,0.06500X0.05000*%
%ADD13R,0.05000X0.06500*%
%ADD14R,0.04724X0.04724*%
%ADD15R,0.04724X0.04724*%
%ADD16R,0.05906X0.04724*%
%ADD17R,0.05906X0.04331*%
%ADD18R,0.09449X0.06457*%
%ADD19R,0.09843X0.07874*%
%ADD20R,0.09055X0.01969*%
%ADD21R,0.04921X0.07284*%
%ADD22R,0.09843X0.08465*%
%ADD23R,0.08465X0.09843*%
%ADD24R,0.03740X0.01378*%
%ADD25R,0.01378X0.03740*%
%ADD26R,0.12598X0.12598*%
%ADD27R,0.16339X0.16339*%
%ADD28R,0.03347X0.01102*%
%ADD29R,0.01102X0.03347*%
%ADD30R,0.06299X0.04921*%
%ADD31C,0.02000*%
%ADD32C,0.01000*%
%ADD33C,0.05906*%
%ADD34R,0.05906X0.05906*%
%ADD35O,0.08000X0.18000*%
%ADD36O,0.18000X0.08000*%
%ADD37C,0.12500*%
%ADD38C,0.07874*%
%ADD39R,0.05906X0.05906*%
%ADD40C,0.02400*%
%ADD41C,0.01969*%
G36*
X300089Y204553D02*
X299601Y203553D01*
X296447D01*
Y196447D01*
X298879D01*
Y182465D01*
X276535Y160122D01*
X269122D01*
X268708Y161122D01*
X280793Y173207D01*
X280793Y173207D01*
X281036Y173571D01*
X281122Y174000D01*
X281121Y174000D01*
Y196619D01*
X281792Y196897D01*
X282534Y197466D01*
X283103Y198208D01*
X283461Y199073D01*
X283583Y200000D01*
X283461Y200927D01*
X283103Y201792D01*
X282534Y202534D01*
X281792Y203103D01*
X280927Y203461D01*
X280000Y203583D01*
X279073Y203461D01*
X278208Y203103D01*
X277466Y202534D01*
X276897Y201792D01*
X276539Y200927D01*
X276417Y200000D01*
X276539Y199073D01*
X276897Y198208D01*
X277466Y197466D01*
X278208Y196897D01*
X278878Y196619D01*
Y174465D01*
X266535Y162122D01*
X259122D01*
X258708Y163122D01*
X270793Y175207D01*
X270793Y175207D01*
X271036Y175571D01*
X271122Y176000D01*
X271122Y176000D01*
Y196619D01*
X271792Y196897D01*
X272534Y197466D01*
X273103Y198208D01*
X273461Y199073D01*
X273583Y200000D01*
X273461Y200927D01*
X273103Y201792D01*
X272534Y202534D01*
X271792Y203103D01*
X270927Y203461D01*
X270000Y203583D01*
X269073Y203461D01*
X268208Y203103D01*
X267466Y202534D01*
X266897Y201792D01*
X266539Y200927D01*
X266417Y200000D01*
X266539Y199073D01*
X266897Y198208D01*
X267466Y197466D01*
X268208Y196897D01*
X268879Y196619D01*
Y176465D01*
X256535Y164122D01*
X249122D01*
X248708Y165122D01*
X260793Y177207D01*
X260793Y177207D01*
X261036Y177571D01*
X261122Y178000D01*
X261122Y178000D01*
Y196619D01*
X261792Y196897D01*
X262534Y197466D01*
X263103Y198208D01*
X263461Y199073D01*
X263583Y200000D01*
X263461Y200927D01*
X263103Y201792D01*
X262534Y202534D01*
X261792Y203103D01*
X260927Y203461D01*
X260000Y203583D01*
X259073Y203461D01*
X258208Y203103D01*
X257466Y202534D01*
X256897Y201792D01*
X256539Y200927D01*
X256417Y200000D01*
X256539Y199073D01*
X256897Y198208D01*
X257466Y197466D01*
X258208Y196897D01*
X258878Y196619D01*
Y178465D01*
X246535Y166122D01*
X241122D01*
X240708Y167122D01*
X250793Y177207D01*
X251036Y177571D01*
X251122Y178000D01*
X251121Y178000D01*
Y196619D01*
X251792Y196897D01*
X252534Y197466D01*
X253103Y198208D01*
X253461Y199073D01*
X253583Y200000D01*
X253461Y200927D01*
X253103Y201792D01*
X252534Y202534D01*
X251792Y203103D01*
X250927Y203461D01*
X250000Y203583D01*
X249073Y203461D01*
X248208Y203103D01*
X247466Y202534D01*
X246897Y201792D01*
X246539Y200927D01*
X246417Y200000D01*
X246539Y199073D01*
X246897Y198208D01*
X247466Y197466D01*
X248208Y196897D01*
X248879Y196619D01*
Y178465D01*
X238535Y168122D01*
X233930D01*
X233665Y169122D01*
X233793Y169207D01*
X240793Y176207D01*
X240793Y176207D01*
X241036Y176571D01*
X241122Y177000D01*
Y196619D01*
X241792Y196897D01*
X242534Y197466D01*
X243103Y198208D01*
X243461Y199073D01*
X243583Y200000D01*
X243461Y200927D01*
X243103Y201792D01*
X242534Y202534D01*
X241792Y203103D01*
X240927Y203461D01*
X240000Y203583D01*
X239073Y203461D01*
X238208Y203103D01*
X237466Y202534D01*
X236897Y201792D01*
X236539Y200927D01*
X236417Y200000D01*
X236539Y199073D01*
X236897Y198208D01*
X237466Y197466D01*
X238208Y196897D01*
X238878Y196619D01*
Y177465D01*
X232535Y171122D01*
X226122D01*
X225708Y172122D01*
X230793Y177207D01*
X230793Y177207D01*
X231036Y177571D01*
X231122Y178000D01*
X231121Y178000D01*
Y196619D01*
X231792Y196897D01*
X232534Y197466D01*
X233103Y198208D01*
X233461Y199073D01*
X233583Y200000D01*
X233461Y200927D01*
X233103Y201792D01*
X232534Y202534D01*
X231792Y203103D01*
X230927Y203461D01*
X230000Y203583D01*
X229073Y203461D01*
X228208Y203103D01*
X227466Y202534D01*
X226897Y201792D01*
X226539Y200927D01*
X226417Y200000D01*
X226539Y199073D01*
X226897Y198208D01*
X227466Y197466D01*
X228208Y196897D01*
X228878Y196619D01*
Y178465D01*
X223535Y173122D01*
X208122D01*
X207708Y174122D01*
X214793Y181207D01*
X214793Y181207D01*
X215036Y181571D01*
X215122Y182000D01*
X215122Y182000D01*
Y196447D01*
X217553D01*
Y203553D01*
X210447D01*
Y196447D01*
X212878D01*
Y182465D01*
X205535Y175122D01*
X196931D01*
X196665Y176122D01*
X196793Y176207D01*
X204793Y184207D01*
X204793Y184207D01*
X205036Y184571D01*
X205122Y185000D01*
X205121Y185000D01*
Y196619D01*
X205792Y196897D01*
X206534Y197466D01*
X207103Y198208D01*
X207461Y199073D01*
X207583Y200000D01*
X207461Y200927D01*
X207103Y201792D01*
X206534Y202534D01*
X205792Y203103D01*
X204927Y203461D01*
X204000Y203583D01*
X203073Y203461D01*
X202208Y203103D01*
X201466Y202534D01*
X200897Y201792D01*
X200539Y200927D01*
X200417Y200000D01*
X200539Y199073D01*
X200897Y198208D01*
X201466Y197466D01*
X202208Y196897D01*
X202878Y196619D01*
Y185465D01*
X195535Y178122D01*
X186000D01*
X185571Y178036D01*
X185207Y177793D01*
X185207Y177793D01*
X167207Y159793D01*
X166964Y159429D01*
X166878Y159000D01*
X166878Y159000D01*
Y147092D01*
X165878Y146578D01*
X165702Y146696D01*
X165000Y146835D01*
X164298Y146696D01*
X163717Y146308D01*
X163646Y146323D01*
X162779Y146715D01*
X162835Y147000D01*
X162696Y147702D01*
X162298Y148298D01*
X161702Y148696D01*
X161000Y148835D01*
X160298Y148696D01*
X159702Y148298D01*
X159304Y147702D01*
X159165Y147000D01*
X159304Y146298D01*
X159702Y145702D01*
X159878Y145585D01*
Y141122D01*
X158878Y140708D01*
X155122Y144465D01*
Y155908D01*
X156122Y156422D01*
X156298Y156304D01*
X157000Y156165D01*
X157702Y156304D01*
X158298Y156702D01*
X158415Y156878D01*
X162000D01*
X162000Y156878D01*
X162429Y156964D01*
X162793Y157207D01*
X184793Y179207D01*
X184793Y179207D01*
X185036Y179571D01*
X185122Y180000D01*
X185122Y180000D01*
Y196619D01*
X185792Y196897D01*
X186534Y197466D01*
X187103Y198208D01*
X187461Y199073D01*
X187583Y200000D01*
X187461Y200927D01*
X187103Y201792D01*
X186534Y202534D01*
X185792Y203103D01*
X184927Y203461D01*
X184000Y203583D01*
X183073Y203461D01*
X182208Y203103D01*
X181466Y202534D01*
X180897Y201792D01*
X180539Y200927D01*
X180417Y200000D01*
X180539Y199073D01*
X180897Y198208D01*
X181466Y197466D01*
X182208Y196897D01*
X182878Y196619D01*
Y180465D01*
X164361Y161947D01*
X163309Y162309D01*
X163263Y162677D01*
X174793Y174207D01*
X174793Y174207D01*
X175036Y174571D01*
X175122Y175000D01*
X175122Y175000D01*
Y196619D01*
X175792Y196897D01*
X176534Y197466D01*
X177103Y198208D01*
X177461Y199073D01*
X177583Y200000D01*
X177461Y200927D01*
X177103Y201792D01*
X176534Y202534D01*
X175792Y203103D01*
X174927Y203461D01*
X174000Y203583D01*
X173073Y203461D01*
X172208Y203103D01*
X171466Y202534D01*
X170897Y201792D01*
X170539Y200927D01*
X170417Y200000D01*
X170539Y199073D01*
X170897Y198208D01*
X171466Y197466D01*
X172208Y196897D01*
X172878Y196619D01*
Y175465D01*
X161208Y163794D01*
X161000Y163835D01*
X160298Y163696D01*
X159702Y163298D01*
X159304Y162702D01*
X159165Y162000D01*
X159304Y161298D01*
X159702Y160702D01*
X160298Y160304D01*
X160701Y159205D01*
X160651Y159122D01*
X158415D01*
X158298Y159298D01*
X157702Y159696D01*
X157000Y159835D01*
X156298Y159696D01*
X156122Y159578D01*
X155122Y160092D01*
Y166000D01*
X155036Y166429D01*
X154793Y166793D01*
X154793Y166793D01*
X125793Y195793D01*
X125773Y195807D01*
X125792Y196897D01*
X126534Y197466D01*
X127103Y198208D01*
X127461Y199073D01*
X127583Y200000D01*
X127461Y200927D01*
X127103Y201792D01*
X126534Y202534D01*
X125792Y203103D01*
X124927Y203461D01*
X124000Y203583D01*
X123073Y203461D01*
X122208Y203103D01*
X121466Y202534D01*
X120897Y201792D01*
X120539Y200927D01*
X120417Y200000D01*
X120539Y199073D01*
X120897Y198208D01*
X121466Y197466D01*
X121915Y197122D01*
X121576Y196122D01*
X114896D01*
X114110Y196638D01*
X114110Y197122D01*
Y199500D01*
X106205D01*
Y197122D01*
X106205Y196638D01*
X105419Y196122D01*
X83597D01*
X83395Y197038D01*
X83395Y197122D01*
Y199878D01*
X88585D01*
X88702Y199702D01*
X89298Y199304D01*
X90000Y199165D01*
X90702Y199304D01*
X91298Y199702D01*
X91696Y200298D01*
X91835Y201000D01*
X91696Y201702D01*
X91298Y202298D01*
X90702Y202696D01*
X90000Y202835D01*
X89298Y202696D01*
X88702Y202298D01*
X88585Y202122D01*
X83395D01*
Y202962D01*
X76290D01*
Y197122D01*
X76290Y197038D01*
X76088Y196122D01*
X55465D01*
X50684Y200902D01*
X50961Y201573D01*
X51083Y202500D01*
X50961Y203427D01*
X50724Y204000D01*
X51202Y205000D01*
X53247D01*
X53843Y204000D01*
X53649Y203532D01*
X53579Y203000D01*
X57500D01*
X61421D01*
X61351Y203532D01*
X61157Y204000D01*
X61753Y205000D01*
X63947D01*
Y198947D01*
X71053D01*
Y205000D01*
X299740D01*
X300089Y204553D01*
D02*
G37*
G36*
X6379Y198348D02*
Y189000D01*
X6378Y189000D01*
X6464Y188571D01*
X6707Y188207D01*
X10740Y184174D01*
X10357Y183250D01*
X9000D01*
Y179000D01*
Y174750D01*
X10321D01*
X10857Y173962D01*
X10906Y173750D01*
X10856Y173500D01*
X15144D01*
X15072Y173858D01*
X14877Y174150D01*
X15405Y175150D01*
X20600D01*
Y177878D01*
X24900D01*
Y175150D01*
X31100D01*
Y182850D01*
X25736D01*
X23708Y184878D01*
X24122Y185878D01*
X120535D01*
X144878Y161535D01*
Y140000D01*
X144878Y140000D01*
X144964Y139571D01*
X145207Y139207D01*
X162628Y121786D01*
X162628Y121786D01*
X162992Y121543D01*
X163421Y121457D01*
X170050D01*
X170518Y120730D01*
X170212Y119678D01*
X169849Y119435D01*
X169849Y119435D01*
X161035Y110622D01*
X156850D01*
Y112600D01*
X149150D01*
Y111131D01*
X145850D01*
Y112600D01*
X138150D01*
Y111131D01*
X134505D01*
Y114242D01*
X128616D01*
X128384Y114242D01*
X127616D01*
X127384Y114242D01*
X121494D01*
Y111631D01*
X113975D01*
X111820Y113786D01*
Y120214D01*
X114975Y123369D01*
X115202D01*
X115298Y123304D01*
X116000Y123165D01*
X116702Y123304D01*
X117298Y123702D01*
X117696Y124298D01*
X117835Y125000D01*
X117696Y125702D01*
X117298Y126298D01*
X116702Y126696D01*
X116000Y126835D01*
X115298Y126696D01*
X115202Y126631D01*
X114299D01*
X113675Y126507D01*
X113146Y126154D01*
X108824Y121832D01*
X100778D01*
Y112168D01*
X108824D01*
X112146Y108846D01*
X112675Y108493D01*
X113299Y108369D01*
X121494D01*
Y105758D01*
X127384D01*
X127616Y105758D01*
X128384D01*
X128616Y105758D01*
X134505D01*
Y107869D01*
X138150D01*
Y106400D01*
X145850D01*
Y107869D01*
X149150D01*
Y106400D01*
X156850D01*
Y108378D01*
X161500D01*
X161500Y108378D01*
X161929Y108464D01*
X162293Y108707D01*
X170395Y116809D01*
X171113Y117491D01*
X172951D01*
X174991Y115451D01*
Y113613D01*
X174990D01*
X175304Y112855D01*
X173968Y111518D01*
X173702Y111696D01*
X173000Y111835D01*
X172298Y111696D01*
X171702Y111298D01*
X171304Y110702D01*
X171165Y110000D01*
X171304Y109298D01*
X171702Y108702D01*
X172298Y108304D01*
X173000Y108165D01*
X173494Y108263D01*
X174209Y107810D01*
X174434Y107590D01*
X174511Y107012D01*
X174304Y106702D01*
X174165Y106000D01*
X174304Y105298D01*
X174702Y104702D01*
X175298Y104304D01*
X176000Y104165D01*
X176702Y104304D01*
X177298Y104702D01*
X177696Y105298D01*
X177835Y106000D01*
X177696Y106702D01*
X177640Y106786D01*
X177769Y107768D01*
X178304Y107798D01*
X178702Y107202D01*
X179298Y106804D01*
X180000Y106665D01*
X180702Y106804D01*
X181009Y107009D01*
X181647Y106233D01*
X178535Y103122D01*
X122000D01*
X122000Y103122D01*
X121571Y103036D01*
X121207Y102793D01*
X121207Y102793D01*
X109467Y91053D01*
X103947D01*
Y83947D01*
X111053D01*
Y89467D01*
X113165Y91579D01*
X113947Y90947D01*
Y83947D01*
X121053D01*
Y89467D01*
X123165Y91579D01*
X123947Y90947D01*
Y83947D01*
X131053D01*
Y89467D01*
X133165Y91579D01*
X133947Y90947D01*
Y83947D01*
X141053D01*
Y89467D01*
X143165Y91579D01*
X143947Y90947D01*
Y83947D01*
X151053D01*
Y89467D01*
X153165Y91579D01*
X153947Y90947D01*
Y83947D01*
X161053D01*
Y89467D01*
X162465Y90878D01*
X163947D01*
Y83947D01*
X171053D01*
Y86378D01*
X182500D01*
X182500Y86378D01*
X182929Y86464D01*
X183293Y86707D01*
X205793Y109207D01*
X205793Y109207D01*
X206036Y109571D01*
X206122Y110000D01*
X206121Y110000D01*
Y115000D01*
X206036Y115429D01*
X205793Y115793D01*
X205793Y115793D01*
X203097Y118489D01*
X203512Y119489D01*
X204925D01*
X248879Y75535D01*
Y13553D01*
X246447D01*
Y6447D01*
X253553D01*
Y13553D01*
X251121D01*
Y76000D01*
X251122Y76000D01*
X251036Y76429D01*
X250793Y76793D01*
X250793Y76793D01*
X207129Y120457D01*
X207543Y121457D01*
X208957D01*
X258878Y71535D01*
Y13381D01*
X258208Y13103D01*
X257466Y12534D01*
X256897Y11792D01*
X256539Y10927D01*
X256417Y10000D01*
X256539Y9072D01*
X256897Y8208D01*
X257466Y7466D01*
X258208Y6897D01*
X259073Y6539D01*
X260000Y6417D01*
X260927Y6539D01*
X261792Y6897D01*
X262534Y7466D01*
X263103Y8208D01*
X263461Y9072D01*
X263583Y10000D01*
X263461Y10927D01*
X263103Y11792D01*
X262534Y12534D01*
X261792Y13103D01*
X261122Y13381D01*
Y72000D01*
X261122Y72000D01*
X261036Y72429D01*
X260793Y72793D01*
X211160Y122426D01*
X211575Y123426D01*
X213988D01*
X268879Y68535D01*
Y13381D01*
X268208Y13103D01*
X267466Y12534D01*
X266897Y11792D01*
X266539Y10927D01*
X266417Y10000D01*
X266539Y9072D01*
X266897Y8208D01*
X267466Y7466D01*
X268208Y6897D01*
X269073Y6539D01*
X270000Y6417D01*
X270927Y6539D01*
X271792Y6897D01*
X272534Y7466D01*
X273103Y8208D01*
X273461Y9072D01*
X273583Y10000D01*
X273461Y10927D01*
X273103Y11792D01*
X272534Y12534D01*
X271792Y13103D01*
X271122Y13381D01*
Y69000D01*
X271036Y69429D01*
X270793Y69793D01*
X270793Y69793D01*
X216192Y124394D01*
X216606Y125394D01*
X218020D01*
X278878Y64535D01*
Y13381D01*
X278208Y13103D01*
X277466Y12534D01*
X276897Y11792D01*
X276539Y10927D01*
X276417Y10000D01*
X276539Y9072D01*
X276897Y8208D01*
X277466Y7466D01*
X278208Y6897D01*
X279073Y6539D01*
X280000Y6417D01*
X280927Y6539D01*
X281792Y6897D01*
X282534Y7466D01*
X283103Y8208D01*
X283461Y9072D01*
X283583Y10000D01*
X283461Y10927D01*
X283103Y11792D01*
X282534Y12534D01*
X281792Y13103D01*
X281121Y13381D01*
Y64878D01*
X281408Y65102D01*
X282073Y65341D01*
X288878Y58535D01*
Y13381D01*
X288208Y13103D01*
X287466Y12534D01*
X286897Y11792D01*
X286539Y10927D01*
X286417Y10000D01*
X286539Y9072D01*
X286897Y8208D01*
X287466Y7466D01*
X288208Y6897D01*
X289073Y6539D01*
X290000Y6417D01*
X290927Y6539D01*
X291792Y6897D01*
X292534Y7466D01*
X293103Y8208D01*
X293461Y9072D01*
X293583Y10000D01*
X293461Y10927D01*
X293103Y11792D01*
X292534Y12534D01*
X291792Y13103D01*
X291122Y13381D01*
Y58878D01*
X291408Y59102D01*
X292073Y59341D01*
X298879Y52535D01*
Y13381D01*
X298208Y13103D01*
X297466Y12534D01*
X296897Y11792D01*
X296539Y10927D01*
X296417Y10000D01*
X296539Y9072D01*
X296897Y8208D01*
X297466Y7466D01*
X298208Y6897D01*
X299073Y6539D01*
X300000Y6417D01*
X300927Y6539D01*
X301792Y6897D01*
X302534Y7466D01*
X303103Y8208D01*
X303461Y9072D01*
X303583Y10000D01*
X303461Y10927D01*
X303103Y11792D01*
X302534Y12534D01*
X301792Y13103D01*
X301121Y13381D01*
Y53000D01*
X301036Y53429D01*
X300793Y53793D01*
X300793Y53793D01*
X228302Y126284D01*
X228795Y127206D01*
X229000Y127165D01*
X229702Y127304D01*
X230298Y127702D01*
X230696Y128298D01*
X230835Y129000D01*
X230794Y129205D01*
X231716Y129698D01*
X257207Y104207D01*
X257571Y103964D01*
X258000Y103878D01*
X258000Y103878D01*
X298327D01*
X298499Y103532D01*
X298595Y102878D01*
X298018Y102436D01*
X297449Y101694D01*
X297091Y100830D01*
X296969Y99902D01*
X297091Y98975D01*
X297449Y98111D01*
X298018Y97368D01*
X298761Y96799D01*
X299625Y96441D01*
X300552Y96319D01*
X301480Y96441D01*
X302150Y96719D01*
X305878Y92990D01*
Y10878D01*
X305000Y10000D01*
Y7586D01*
X302535Y5122D01*
X220889D01*
X220824Y6121D01*
X221032Y6149D01*
X221993Y6547D01*
X222819Y7181D01*
X223453Y8007D01*
X223851Y8968D01*
X223921Y9500D01*
X216079D01*
X216149Y8968D01*
X216547Y8007D01*
X217181Y7181D01*
X218007Y6547D01*
X218968Y6149D01*
X219177Y6121D01*
X219111Y5122D01*
X210889D01*
X210823Y6121D01*
X211032Y6149D01*
X211993Y6547D01*
X212819Y7181D01*
X213453Y8007D01*
X213851Y8968D01*
X213921Y9500D01*
X206079D01*
X206149Y8968D01*
X206547Y8007D01*
X207181Y7181D01*
X208007Y6547D01*
X208968Y6149D01*
X209176Y6121D01*
X209111Y5122D01*
X186465D01*
X183184Y8402D01*
X183461Y9072D01*
X183583Y10000D01*
X183461Y10927D01*
X183103Y11792D01*
X182534Y12534D01*
X181792Y13103D01*
X180927Y13461D01*
X180000Y13583D01*
X179073Y13461D01*
X178208Y13103D01*
X177466Y12534D01*
X176897Y11792D01*
X176539Y10927D01*
X176417Y10000D01*
X176539Y9072D01*
X176897Y8208D01*
X177466Y7466D01*
X178208Y6897D01*
X179073Y6539D01*
X180000Y6417D01*
X180927Y6539D01*
X181598Y6816D01*
X182490Y5924D01*
X182107Y5000D01*
X5000D01*
Y111202D01*
X6000Y111505D01*
X6202Y111202D01*
X6798Y110804D01*
X7500Y110665D01*
X8202Y110804D01*
X8298Y110869D01*
X13180D01*
Y107668D01*
X24222D01*
Y117332D01*
X13180D01*
Y114131D01*
X8298D01*
X8202Y114196D01*
X7500Y114335D01*
X6798Y114196D01*
X6202Y113798D01*
X6000Y113495D01*
X5000Y113798D01*
Y174750D01*
X8000D01*
Y179000D01*
Y183250D01*
X5000D01*
Y198036D01*
X6000Y198587D01*
X6379Y198348D01*
D02*
G37*
G36*
X315000Y108738D02*
Y102106D01*
X314005Y101896D01*
X313371Y102721D01*
X312546Y103355D01*
X311584Y103753D01*
X311052Y103823D01*
Y99902D01*
Y95981D01*
X311584Y96051D01*
X312546Y96450D01*
X313371Y97083D01*
X314005Y97909D01*
X315000Y97698D01*
Y20000D01*
X309045Y14045D01*
X308121Y14428D01*
Y93454D01*
X308036Y93884D01*
X307793Y94248D01*
X307793Y94248D01*
X303736Y98305D01*
X304013Y98975D01*
X304136Y99902D01*
X304013Y100830D01*
X303656Y101694D01*
X303086Y102436D01*
X302510Y102878D01*
X302605Y103532D01*
X302778Y103878D01*
X305748D01*
X305748Y103878D01*
X306177Y103964D01*
X306541Y104207D01*
X308954Y106619D01*
X309624Y106342D01*
X310551Y106220D01*
X311479Y106342D01*
X312343Y106700D01*
X313085Y107269D01*
X313654Y108011D01*
X314013Y108876D01*
X315000Y108738D01*
D02*
G37*
%LPC*%
G36*
X102500Y203144D02*
X102142Y203072D01*
X101414Y202586D01*
X100928Y201858D01*
X100856Y201500D01*
X102500D01*
Y203144D01*
D02*
G37*
G36*
X109658Y203362D02*
X106205D01*
Y201291D01*
X105205Y201193D01*
X105072Y201858D01*
X104586Y202586D01*
X103858Y203072D01*
X103500Y203144D01*
Y201000D01*
Y198856D01*
X103858Y198928D01*
X104586Y199414D01*
X105072Y200142D01*
X105205Y200807D01*
X106205Y200709D01*
Y200500D01*
X109658D01*
Y203362D01*
D02*
G37*
G36*
X154500Y203921D02*
Y200500D01*
X157921D01*
X157851Y201032D01*
X157453Y201993D01*
X156819Y202819D01*
X155993Y203453D01*
X155032Y203851D01*
X154500Y203921D01*
D02*
G37*
G36*
X114110Y203362D02*
X110658D01*
Y200500D01*
X114110D01*
Y203362D01*
D02*
G37*
G36*
X153500Y203921D02*
X152968Y203851D01*
X152007Y203453D01*
X151181Y202819D01*
X150547Y201993D01*
X150149Y201032D01*
X150079Y200500D01*
X153500D01*
Y203921D01*
D02*
G37*
G36*
X102500Y200500D02*
X100856D01*
X100928Y200142D01*
X101414Y199414D01*
X102142Y198928D01*
X102500Y198856D01*
Y200500D01*
D02*
G37*
G36*
X61421Y202000D02*
X58000D01*
Y198579D01*
X58532Y198649D01*
X59493Y199047D01*
X60319Y199681D01*
X60953Y200507D01*
X61351Y201468D01*
X61421Y202000D01*
D02*
G37*
G36*
X57000D02*
X53579D01*
X53649Y201468D01*
X54047Y200507D01*
X54681Y199681D01*
X55507Y199047D01*
X56468Y198649D01*
X57000Y198579D01*
Y202000D01*
D02*
G37*
G36*
X290000Y203583D02*
X289073Y203461D01*
X288208Y203103D01*
X287466Y202534D01*
X286897Y201792D01*
X286539Y200927D01*
X286417Y200000D01*
X286539Y199073D01*
X286897Y198208D01*
X287466Y197466D01*
X288208Y196897D01*
X289073Y196539D01*
X290000Y196417D01*
X290927Y196539D01*
X291792Y196897D01*
X292534Y197466D01*
X293103Y198208D01*
X293461Y199073D01*
X293583Y200000D01*
X293461Y200927D01*
X293103Y201792D01*
X292534Y202534D01*
X291792Y203103D01*
X290927Y203461D01*
X290000Y203583D01*
D02*
G37*
G36*
X194000D02*
X193073Y203461D01*
X192208Y203103D01*
X191466Y202534D01*
X190897Y201792D01*
X190539Y200927D01*
X190417Y200000D01*
X190539Y199073D01*
X190897Y198208D01*
X191466Y197466D01*
X192208Y196897D01*
X193073Y196539D01*
X194000Y196417D01*
X194927Y196539D01*
X195792Y196897D01*
X196534Y197466D01*
X197103Y198208D01*
X197461Y199073D01*
X197583Y200000D01*
X197461Y200927D01*
X197103Y201792D01*
X196534Y202534D01*
X195792Y203103D01*
X194927Y203461D01*
X194000Y203583D01*
D02*
G37*
G36*
X164000D02*
X163073Y203461D01*
X162208Y203103D01*
X161466Y202534D01*
X160897Y201792D01*
X160539Y200927D01*
X160417Y200000D01*
X160539Y199073D01*
X160897Y198208D01*
X161466Y197466D01*
X162208Y196897D01*
X163073Y196539D01*
X164000Y196417D01*
X164927Y196539D01*
X165792Y196897D01*
X166534Y197466D01*
X167103Y198208D01*
X167461Y199073D01*
X167583Y200000D01*
X167461Y200927D01*
X167103Y201792D01*
X166534Y202534D01*
X165792Y203103D01*
X164927Y203461D01*
X164000Y203583D01*
D02*
G37*
G36*
X144000D02*
X143073Y203461D01*
X142208Y203103D01*
X141466Y202534D01*
X140897Y201792D01*
X140539Y200927D01*
X140417Y200000D01*
X140539Y199073D01*
X140897Y198208D01*
X141466Y197466D01*
X142208Y196897D01*
X143073Y196539D01*
X144000Y196417D01*
X144927Y196539D01*
X145792Y196897D01*
X146534Y197466D01*
X147103Y198208D01*
X147461Y199073D01*
X147583Y200000D01*
X147461Y200927D01*
X147103Y201792D01*
X146534Y202534D01*
X145792Y203103D01*
X144927Y203461D01*
X144000Y203583D01*
D02*
G37*
G36*
X134000D02*
X133073Y203461D01*
X132208Y203103D01*
X131466Y202534D01*
X130897Y201792D01*
X130539Y200927D01*
X130417Y200000D01*
X130539Y199073D01*
X130897Y198208D01*
X131466Y197466D01*
X132208Y196897D01*
X133073Y196539D01*
X134000Y196417D01*
X134927Y196539D01*
X135792Y196897D01*
X136534Y197466D01*
X137103Y198208D01*
X137461Y199073D01*
X137583Y200000D01*
X137461Y200927D01*
X137103Y201792D01*
X136534Y202534D01*
X135792Y203103D01*
X134927Y203461D01*
X134000Y203583D01*
D02*
G37*
G36*
X157921Y199500D02*
X154500D01*
Y196079D01*
X155032Y196149D01*
X155993Y196547D01*
X156819Y197181D01*
X157453Y198007D01*
X157851Y198968D01*
X157921Y199500D01*
D02*
G37*
G36*
X153500D02*
X150079D01*
X150149Y198968D01*
X150547Y198007D01*
X151181Y197181D01*
X152007Y196547D01*
X152968Y196149D01*
X153500Y196079D01*
Y199500D01*
D02*
G37*
G36*
X67500Y181144D02*
Y179500D01*
X69144D01*
X69072Y179858D01*
X68586Y180586D01*
X67858Y181072D01*
X67500Y181144D01*
D02*
G37*
G36*
X83795Y181362D02*
X80343D01*
Y178500D01*
X83795D01*
Y181362D01*
D02*
G37*
G36*
X79343D02*
X75890D01*
Y178500D01*
X79343D01*
Y181362D01*
D02*
G37*
G36*
X69144Y178500D02*
X67500D01*
Y176856D01*
X67858Y176928D01*
X68586Y177414D01*
X69072Y178142D01*
X69144Y178500D01*
D02*
G37*
G36*
X66500Y181144D02*
X66142Y181072D01*
X65414Y180586D01*
X64928Y179858D01*
X64869Y179565D01*
X64000Y179250D01*
X63787Y179250D01*
X61000D01*
Y175500D01*
X64000D01*
Y177310D01*
X64184Y177454D01*
X65414Y177414D01*
X66142Y176928D01*
X66500Y176856D01*
Y179000D01*
Y181144D01*
D02*
G37*
G36*
X54600Y178850D02*
X48400D01*
Y176122D01*
X45415D01*
X45298Y176298D01*
X44702Y176696D01*
X44000Y176835D01*
X43298Y176696D01*
X42702Y176298D01*
X42304Y175702D01*
X42165Y175000D01*
X42304Y174298D01*
X42702Y173702D01*
X43298Y173304D01*
X44000Y173165D01*
X44702Y173304D01*
X45298Y173702D01*
X45415Y173878D01*
X48400D01*
Y171150D01*
X50378D01*
Y168061D01*
X46837D01*
Y162837D01*
X39384Y155384D01*
X35473D01*
X35236Y155431D01*
X28799D01*
X28495Y155370D01*
X27748Y155891D01*
X27584Y156115D01*
X27591Y156161D01*
X27502Y156832D01*
X27244Y157457D01*
X26832Y157993D01*
X26295Y158405D01*
X25670Y158664D01*
X25000Y158752D01*
X24329Y158664D01*
X23705Y158405D01*
X23168Y157993D01*
X22756Y157457D01*
X22498Y156832D01*
X22409Y156161D01*
X22498Y155491D01*
X22756Y154866D01*
X23168Y154330D01*
X23705Y153918D01*
X24329Y153659D01*
X24867Y153588D01*
X25109Y153211D01*
X25294Y152601D01*
X24324Y151631D01*
X20798D01*
X20702Y151696D01*
X20000Y151835D01*
X19298Y151696D01*
X18702Y151298D01*
X18304Y150702D01*
X18165Y150000D01*
X18304Y149298D01*
X18702Y148702D01*
X19298Y148304D01*
X20000Y148165D01*
X20702Y148304D01*
X20798Y148369D01*
X25000D01*
X25624Y148493D01*
X26153Y148846D01*
X29109Y151802D01*
X30109Y151387D01*
Y149065D01*
Y145916D01*
Y143185D01*
X29709D01*
Y141701D01*
X35236D01*
X40764D01*
Y142236D01*
X41764Y142650D01*
X47900Y136514D01*
Y131150D01*
X54100D01*
Y138850D01*
X48736D01*
X42443Y145143D01*
X42079Y145387D01*
X42218Y146378D01*
X44535D01*
X46707Y144207D01*
X46707Y144207D01*
X47071Y143964D01*
X47500Y143878D01*
X47900D01*
Y141150D01*
X54100D01*
Y148850D01*
X47900D01*
Y147493D01*
X46976Y147110D01*
X45793Y148293D01*
X45429Y148536D01*
X45000Y148622D01*
X45000Y148622D01*
X43718D01*
X43579Y149613D01*
X43943Y149856D01*
X46976Y152890D01*
X47900Y152507D01*
Y151150D01*
X54100D01*
Y158850D01*
X47900D01*
Y156965D01*
X47500Y156122D01*
X47071Y156036D01*
X46707Y155793D01*
X42685Y151771D01*
X40364D01*
Y153191D01*
X49112Y161939D01*
X54336D01*
Y168061D01*
X52622D01*
Y171150D01*
X54600D01*
Y178850D01*
D02*
G37*
G36*
X60000Y179250D02*
X57000D01*
Y175500D01*
X60000D01*
Y179250D01*
D02*
G37*
G36*
X39100Y182850D02*
X32900D01*
Y175150D01*
X39100D01*
Y177369D01*
X42000D01*
X42624Y177493D01*
X43154Y177847D01*
X44589Y179282D01*
X44702Y179304D01*
X45298Y179702D01*
X45696Y180298D01*
X45835Y181000D01*
X45696Y181702D01*
X45298Y182298D01*
X44702Y182696D01*
X44000Y182835D01*
X43298Y182696D01*
X42702Y182298D01*
X42304Y181702D01*
X42282Y181589D01*
X41324Y180631D01*
X39100D01*
Y182850D01*
D02*
G37*
G36*
X83795Y177500D02*
X80343D01*
Y174638D01*
X83795D01*
Y177500D01*
D02*
G37*
G36*
X79343D02*
X75890D01*
Y174638D01*
X79343D01*
Y177500D01*
D02*
G37*
G36*
X69500Y173144D02*
Y171500D01*
X71144D01*
X71072Y171858D01*
X70586Y172586D01*
X69858Y173072D01*
X69500Y173144D01*
D02*
G37*
G36*
X68500D02*
X68142Y173072D01*
X67414Y172586D01*
X66928Y171858D01*
X66856Y171500D01*
X68500D01*
Y173144D01*
D02*
G37*
G36*
X15144Y172500D02*
X13500D01*
Y170856D01*
X13858Y170928D01*
X14586Y171414D01*
X15072Y172142D01*
X15144Y172500D01*
D02*
G37*
G36*
X12500D02*
X10856D01*
X10928Y172142D01*
X11414Y171414D01*
X12142Y170928D01*
X12500Y170856D01*
Y172500D01*
D02*
G37*
G36*
X64000Y174500D02*
X61000D01*
Y170750D01*
X64000D01*
Y174500D01*
D02*
G37*
G36*
X60000D02*
X57000D01*
Y170750D01*
X60000D01*
Y174500D01*
D02*
G37*
G36*
X71144Y170500D02*
X69500D01*
Y168856D01*
X69858Y168928D01*
X70586Y169414D01*
X71072Y170142D01*
X71144Y170500D01*
D02*
G37*
G36*
X68500D02*
X66856D01*
X66928Y170142D01*
X67414Y169414D01*
X68142Y168928D01*
X68500Y168856D01*
Y170500D01*
D02*
G37*
G36*
X98000Y179835D02*
X97298Y179696D01*
X96702Y179298D01*
X96304Y178702D01*
X96165Y178000D01*
X96304Y177298D01*
X96702Y176702D01*
X97298Y176304D01*
X98000Y176165D01*
X98208Y176206D01*
X103878Y170535D01*
Y168122D01*
X102878Y167708D01*
X92794Y177792D01*
X92835Y178000D01*
X92696Y178702D01*
X92298Y179298D01*
X91702Y179696D01*
X91000Y179835D01*
X90298Y179696D01*
X89702Y179298D01*
X89304Y178702D01*
X89165Y178000D01*
X89304Y177298D01*
X89702Y176702D01*
X90298Y176304D01*
X91000Y176165D01*
X91208Y176206D01*
X97340Y170073D01*
X97102Y169408D01*
X96878Y169122D01*
X86415D01*
X86298Y169298D01*
X85702Y169696D01*
X85000Y169835D01*
X84298Y169696D01*
X83702Y169298D01*
X83304Y168702D01*
X83165Y168000D01*
X83206Y167792D01*
X79738Y164324D01*
X79495Y163961D01*
X79410Y163531D01*
X79410Y163531D01*
Y161919D01*
X75305D01*
Y157299D01*
X75201D01*
Y157194D01*
X70581D01*
Y153657D01*
X70181D01*
Y152469D01*
X73051D01*
Y151469D01*
X70181D01*
Y151122D01*
X64000D01*
X64000Y151122D01*
X63571Y151036D01*
X63207Y150793D01*
X63207Y150793D01*
X61264Y148850D01*
X55900D01*
Y141150D01*
X62100D01*
Y145918D01*
X62604Y146281D01*
X63702Y146202D01*
X64298Y145804D01*
X65000Y145665D01*
X65205Y145706D01*
X65698Y144784D01*
X64207Y143293D01*
X63964Y142929D01*
X63878Y142500D01*
X63878Y142500D01*
Y127500D01*
X63878Y127500D01*
X63964Y127071D01*
X64207Y126707D01*
X66707Y124207D01*
X66707Y124207D01*
X67071Y123964D01*
X67500Y123878D01*
X82500D01*
X82500Y123878D01*
X82929Y123964D01*
X83293Y124207D01*
X87736Y128650D01*
X91100D01*
Y136350D01*
X84900D01*
Y128986D01*
X82035Y126122D01*
X67965D01*
X66122Y127965D01*
Y137908D01*
X67122Y138422D01*
X67298Y138304D01*
X68000Y138165D01*
X68208Y138206D01*
X69064Y137350D01*
X68650Y136350D01*
X67900D01*
Y128650D01*
X74100D01*
Y136350D01*
X72798D01*
X72122Y137000D01*
X72036Y137429D01*
X71793Y137793D01*
X71632Y137955D01*
X72014Y138878D01*
X75305D01*
Y138081D01*
X77441D01*
Y136350D01*
X75900D01*
Y128650D01*
X82100D01*
Y136350D01*
X79685D01*
Y138081D01*
X89694D01*
Y142701D01*
X89799D01*
Y142806D01*
X94419D01*
Y144774D01*
Y148711D01*
Y152648D01*
Y157194D01*
X89799D01*
Y157299D01*
X89694D01*
Y161919D01*
X84919D01*
X84505Y162919D01*
X85465Y163878D01*
X87585D01*
X87702Y163702D01*
X88298Y163304D01*
X89000Y163165D01*
X89702Y163304D01*
X90298Y163702D01*
X90415Y163878D01*
X92035D01*
X96378Y159535D01*
Y148915D01*
X96202Y148798D01*
X95804Y148202D01*
X95665Y147500D01*
X95804Y146798D01*
X96202Y146202D01*
X96798Y145804D01*
X97500Y145665D01*
X97878Y145740D01*
X98701Y145251D01*
X98878Y145054D01*
Y143915D01*
X98702Y143798D01*
X98304Y143202D01*
X98165Y142500D01*
X98304Y141798D01*
X98702Y141202D01*
X99298Y140804D01*
X100000Y140665D01*
X100702Y140804D01*
X101298Y141202D01*
X101696Y141798D01*
X101835Y142500D01*
X101696Y143202D01*
X101298Y143798D01*
X101122Y143915D01*
Y153069D01*
X102122Y153335D01*
X102207Y153207D01*
X108207Y147207D01*
X108207Y147207D01*
X108571Y146964D01*
X108585Y146961D01*
X108897Y146208D01*
X109466Y145466D01*
X110208Y144897D01*
X111073Y144539D01*
X112000Y144417D01*
X112927Y144539D01*
X113792Y144897D01*
X114534Y145466D01*
X115103Y146208D01*
X115461Y147073D01*
X115583Y148000D01*
X115461Y148927D01*
X115103Y149792D01*
X114534Y150534D01*
X114085Y150878D01*
X114424Y151878D01*
X116535D01*
X118816Y149598D01*
X118539Y148927D01*
X118417Y148000D01*
X118539Y147073D01*
X118897Y146208D01*
X119466Y145466D01*
X120208Y144897D01*
X121073Y144539D01*
X122000Y144417D01*
X122927Y144539D01*
X123792Y144897D01*
X124534Y145466D01*
X125103Y146208D01*
X125461Y147073D01*
X125583Y148000D01*
X125461Y148927D01*
X125103Y149792D01*
X124534Y150534D01*
X123792Y151103D01*
X122927Y151461D01*
X122000Y151583D01*
X121073Y151461D01*
X120402Y151184D01*
X117793Y153793D01*
X117429Y154036D01*
X117000Y154122D01*
X117000Y154122D01*
X114552D01*
X114213Y155122D01*
X114533Y155367D01*
X115102Y156109D01*
X115460Y156973D01*
X115582Y157901D01*
X115460Y158828D01*
X115102Y159693D01*
X114533Y160435D01*
X113791Y161004D01*
X112926Y161362D01*
X111999Y161484D01*
X111072Y161362D01*
X110207Y161004D01*
X109465Y160435D01*
X108896Y159693D01*
X108538Y158828D01*
X108416Y157901D01*
X108538Y156973D01*
X108896Y156109D01*
X108911Y156090D01*
X108157Y155429D01*
X106122Y157465D01*
Y171000D01*
X106036Y171429D01*
X105793Y171793D01*
X105793Y171793D01*
X99794Y177792D01*
X99835Y178000D01*
X99696Y178702D01*
X99298Y179298D01*
X98702Y179696D01*
X98000Y179835D01*
D02*
G37*
G36*
X77000Y170835D02*
X76298Y170696D01*
X75702Y170298D01*
X75304Y169702D01*
X75165Y169000D01*
X75304Y168298D01*
X75702Y167702D01*
X76298Y167304D01*
X77000Y167165D01*
X77702Y167304D01*
X78298Y167702D01*
X78696Y168298D01*
X78835Y169000D01*
X78696Y169702D01*
X78298Y170298D01*
X77702Y170696D01*
X77000Y170835D01*
D02*
G37*
G36*
X40364Y169557D02*
X29321D01*
Y166141D01*
X18710D01*
Y169557D01*
X7668D01*
Y160483D01*
X12067D01*
Y134517D01*
X7668D01*
Y125443D01*
X18710D01*
Y128859D01*
X29321D01*
Y125443D01*
X39526D01*
X44495Y120475D01*
Y114758D01*
X50150D01*
X50984Y114358D01*
X51450Y114358D01*
X53945D01*
Y119000D01*
Y123642D01*
X51450D01*
X50984Y123642D01*
X50150Y123242D01*
X49984D01*
X44899D01*
X40364Y127778D01*
Y134517D01*
X29321D01*
Y131102D01*
X18710D01*
Y134517D01*
X14311D01*
Y160483D01*
X18710D01*
Y163898D01*
X29321D01*
Y160483D01*
X40364D01*
Y169557D01*
D02*
G37*
G36*
X65563Y168461D02*
X61913D01*
Y165500D01*
X65563D01*
Y168461D01*
D02*
G37*
G36*
X60913D02*
X57264D01*
Y165500D01*
X60913D01*
Y168461D01*
D02*
G37*
G36*
X65563Y164500D02*
X61913D01*
Y161539D01*
X65563D01*
Y164500D01*
D02*
G37*
G36*
X60913D02*
X57264D01*
Y161539D01*
X60913D01*
Y164500D01*
D02*
G37*
G36*
X113710Y180962D02*
X106605D01*
Y175038D01*
X113710D01*
Y176878D01*
X117535D01*
X128878Y165535D01*
Y156000D01*
X128878Y156000D01*
X128964Y155571D01*
X129207Y155207D01*
X133150Y151264D01*
Y147900D01*
X135878D01*
Y144600D01*
X133150D01*
Y138400D01*
X140014D01*
X141405Y137009D01*
X141420Y136826D01*
X140759Y136000D01*
X140354Y136000D01*
X137500D01*
Y132500D01*
Y129000D01*
X140815D01*
X141250Y129000D01*
X141902Y128270D01*
X141928Y128142D01*
X142414Y127414D01*
X143142Y126928D01*
X143500Y126856D01*
Y129000D01*
X144000D01*
Y129500D01*
X146144D01*
X146094Y129751D01*
X146072Y129858D01*
X146050Y130016D01*
X146885Y130580D01*
X147298Y130304D01*
X148000Y130165D01*
X148702Y130304D01*
X149298Y130702D01*
X149696Y131298D01*
X149835Y132000D01*
X149696Y132702D01*
X149298Y133298D01*
X148702Y133696D01*
X148000Y133835D01*
X147792Y133794D01*
X140850Y140736D01*
Y144600D01*
X138122D01*
Y147900D01*
X140850D01*
Y154100D01*
X133486D01*
X131122Y156465D01*
Y165157D01*
X132122Y165571D01*
X134593Y163100D01*
X134179Y162100D01*
X133150D01*
Y155900D01*
X140850D01*
Y162100D01*
X138631D01*
Y163000D01*
X138507Y163624D01*
X138154Y164154D01*
X129718Y172589D01*
X129696Y172702D01*
X129298Y173298D01*
X128702Y173696D01*
X128000Y173835D01*
X127298Y173696D01*
X126702Y173298D01*
X126304Y172702D01*
X126303Y172697D01*
X125218Y172368D01*
X118793Y178793D01*
X118429Y179036D01*
X118000Y179122D01*
X118000Y179122D01*
X113710D01*
Y180962D01*
D02*
G37*
G36*
X121999Y161484D02*
X121072Y161362D01*
X120207Y161004D01*
X119465Y160435D01*
X118896Y159693D01*
X118538Y158828D01*
X118416Y157901D01*
X118538Y156973D01*
X118896Y156109D01*
X119465Y155367D01*
X120207Y154797D01*
X121072Y154439D01*
X121999Y154317D01*
X122926Y154439D01*
X123791Y154797D01*
X124533Y155367D01*
X125102Y156109D01*
X125460Y156973D01*
X125582Y157901D01*
X125460Y158828D01*
X125102Y159693D01*
X124533Y160435D01*
X123791Y161004D01*
X122926Y161362D01*
X121999Y161484D01*
D02*
G37*
G36*
X62100Y158850D02*
X55900D01*
Y151150D01*
X62100D01*
Y153878D01*
X63585D01*
X63702Y153702D01*
X64298Y153304D01*
X65000Y153165D01*
X65702Y153304D01*
X66298Y153702D01*
X66696Y154298D01*
X66835Y155000D01*
X66696Y155702D01*
X66298Y156298D01*
X65702Y156696D01*
X65000Y156835D01*
X64298Y156696D01*
X63702Y156298D01*
X63585Y156122D01*
X62100D01*
Y158850D01*
D02*
G37*
G36*
X25500Y147144D02*
Y145500D01*
X27144D01*
X27072Y145858D01*
X26586Y146586D01*
X25858Y147072D01*
X25500Y147144D01*
D02*
G37*
G36*
X24500D02*
X24142Y147072D01*
X23414Y146586D01*
X22928Y145858D01*
X22856Y145500D01*
X24500D01*
Y147144D01*
D02*
G37*
G36*
X27144Y144500D02*
X25500D01*
Y142856D01*
X25858Y142928D01*
X26586Y143414D01*
X27072Y144142D01*
X27144Y144500D01*
D02*
G37*
G36*
X24500D02*
X22856D01*
X22928Y144142D01*
X23414Y143414D01*
X24142Y142928D01*
X24500Y142856D01*
Y144500D01*
D02*
G37*
G36*
X40764Y140701D02*
X35736D01*
Y139216D01*
X40764D01*
Y140701D01*
D02*
G37*
G36*
X34736D02*
X29709D01*
Y139216D01*
X34736D01*
Y140701D01*
D02*
G37*
G36*
X25000Y141429D02*
X24329Y141341D01*
X23705Y141082D01*
X23168Y140671D01*
X22756Y140134D01*
X22498Y139509D01*
X22409Y138839D01*
X22498Y138168D01*
X22756Y137543D01*
X23168Y137007D01*
X23705Y136595D01*
X24329Y136336D01*
X25000Y136248D01*
X25670Y136336D01*
X26295Y136595D01*
X26832Y137007D01*
X27244Y137543D01*
X27502Y138168D01*
X27591Y138839D01*
X27502Y139509D01*
X27244Y140134D01*
X26832Y140671D01*
X26295Y141082D01*
X25670Y141341D01*
X25000Y141429D01*
D02*
G37*
G36*
X62500Y139250D02*
X59500D01*
Y135500D01*
X62500D01*
Y139250D01*
D02*
G37*
G36*
X58500D02*
X55500D01*
Y135500D01*
X58500D01*
Y139250D01*
D02*
G37*
G36*
X112000Y141583D02*
X111073Y141461D01*
X110208Y141103D01*
X109466Y140534D01*
X108897Y139792D01*
X108539Y138927D01*
X108417Y138000D01*
X108539Y137073D01*
X108897Y136208D01*
X109466Y135466D01*
X110208Y134897D01*
X111073Y134539D01*
X112000Y134417D01*
X112927Y134539D01*
X113792Y134897D01*
X114534Y135466D01*
X115103Y136208D01*
X115461Y137073D01*
X115583Y138000D01*
X115461Y138927D01*
X115103Y139792D01*
X114534Y140534D01*
X113792Y141103D01*
X112927Y141461D01*
X112000Y141583D01*
D02*
G37*
G36*
X125553Y141553D02*
X118447D01*
Y134447D01*
X125553D01*
Y135555D01*
X126477Y135937D01*
X127206Y135208D01*
X127165Y135000D01*
X127304Y134298D01*
X127702Y133702D01*
X128298Y133304D01*
X129000Y133165D01*
X129702Y133304D01*
X130298Y133702D01*
X130696Y134298D01*
X130835Y135000D01*
X130696Y135702D01*
X130298Y136298D01*
X129702Y136696D01*
X129000Y136835D01*
X128792Y136794D01*
X126793Y138793D01*
X126429Y139036D01*
X126000Y139122D01*
X125553Y139934D01*
Y141553D01*
D02*
G37*
G36*
X100500Y136750D02*
X97500D01*
Y133000D01*
X100500D01*
Y136750D01*
D02*
G37*
G36*
X96500D02*
X93500D01*
Y133000D01*
X96500D01*
Y136750D01*
D02*
G37*
G36*
X136500Y136000D02*
X132750D01*
Y133000D01*
X136500D01*
Y136000D01*
D02*
G37*
G36*
X62500Y134500D02*
X59500D01*
Y130750D01*
X62500D01*
Y134500D01*
D02*
G37*
G36*
X58500D02*
X55500D01*
Y130750D01*
X58500D01*
Y134500D01*
D02*
G37*
G36*
X136500Y132000D02*
X132750D01*
Y129000D01*
X136500D01*
Y132000D01*
D02*
G37*
G36*
X105500Y130144D02*
Y128500D01*
X107144D01*
X107072Y128858D01*
X106586Y129586D01*
X105858Y130072D01*
X105500Y130144D01*
D02*
G37*
G36*
X104500D02*
X104142Y130072D01*
X103414Y129586D01*
X102928Y128858D01*
X102856Y128500D01*
X104500D01*
Y130144D01*
D02*
G37*
G36*
X100500Y132000D02*
X97500D01*
Y128250D01*
X100500D01*
Y132000D01*
D02*
G37*
G36*
X96500D02*
X93500D01*
Y128250D01*
X96500D01*
Y132000D01*
D02*
G37*
G36*
X146144Y128500D02*
X144500D01*
Y126856D01*
X144858Y126928D01*
X145586Y127414D01*
X146072Y128142D01*
X146144Y128500D01*
D02*
G37*
G36*
X107144Y127500D02*
X105500D01*
Y125856D01*
X105858Y125928D01*
X106586Y126414D01*
X107072Y127142D01*
X107144Y127500D01*
D02*
G37*
G36*
X104500D02*
X102856D01*
X102928Y127142D01*
X103414Y126414D01*
X104142Y125928D01*
X104500Y125856D01*
Y127500D01*
D02*
G37*
G36*
X133500Y125144D02*
Y123500D01*
X135144D01*
X135072Y123858D01*
X134586Y124586D01*
X133858Y125072D01*
X133500Y125144D01*
D02*
G37*
G36*
X132500D02*
X132142Y125072D01*
X131414Y124586D01*
X130928Y123858D01*
X130856Y123500D01*
X132500D01*
Y125144D01*
D02*
G37*
G36*
X135144Y122500D02*
X133500D01*
Y120856D01*
X133858Y120928D01*
X134586Y121414D01*
X135072Y122142D01*
X135144Y122500D01*
D02*
G37*
G36*
X132500D02*
X130856D01*
X130928Y122142D01*
X131414Y121414D01*
X132142Y120928D01*
X132500Y120856D01*
Y122500D01*
D02*
G37*
G36*
X75000Y121644D02*
Y120000D01*
X76644D01*
X76572Y120358D01*
X76086Y121086D01*
X75358Y121572D01*
X75000Y121644D01*
D02*
G37*
G36*
X74000D02*
X73642Y121572D01*
X72914Y121086D01*
X72428Y120358D01*
X72356Y120000D01*
X74000D01*
Y121644D01*
D02*
G37*
G36*
X54945Y123642D02*
Y119500D01*
X57906D01*
Y123642D01*
X54945D01*
D02*
G37*
G36*
X157250Y122000D02*
X153500D01*
Y119000D01*
X157250D01*
Y122000D01*
D02*
G37*
G36*
X152500D02*
X148750D01*
Y119000D01*
X152500D01*
Y122000D01*
D02*
G37*
G36*
X146250D02*
X142500D01*
Y119000D01*
X146250D01*
Y122000D01*
D02*
G37*
G36*
X141500D02*
X137750D01*
Y119000D01*
X141500D01*
Y122000D01*
D02*
G37*
G36*
X76644Y119000D02*
X75000D01*
Y117356D01*
X75358Y117428D01*
X76086Y117914D01*
X76572Y118642D01*
X76644Y119000D01*
D02*
G37*
G36*
X74000D02*
X72356D01*
X72428Y118642D01*
X72914Y117914D01*
X73642Y117428D01*
X74000Y117356D01*
Y119000D01*
D02*
G37*
G36*
X157250Y118000D02*
X153500D01*
Y115000D01*
X157250D01*
Y118000D01*
D02*
G37*
G36*
X152500D02*
X148750D01*
Y115000D01*
X152500D01*
Y118000D01*
D02*
G37*
G36*
X146250D02*
X142500D01*
Y115000D01*
X146250D01*
Y118000D01*
D02*
G37*
G36*
X141500D02*
X137750D01*
Y115000D01*
X141500D01*
Y118000D01*
D02*
G37*
G36*
X57906Y118500D02*
X54945D01*
Y114358D01*
X57906D01*
Y118500D01*
D02*
G37*
G36*
X36821Y117332D02*
X25778D01*
Y107668D01*
X36821D01*
Y110869D01*
X39202D01*
X39298Y110804D01*
X40000Y110665D01*
X40702Y110804D01*
X41298Y111202D01*
X41696Y111798D01*
X41835Y112500D01*
X41696Y113202D01*
X41298Y113798D01*
X40702Y114196D01*
X40000Y114335D01*
X39298Y114196D01*
X39202Y114131D01*
X36821D01*
Y117332D01*
D02*
G37*
G36*
X54500Y111750D02*
X51500D01*
Y108000D01*
X54500D01*
Y111750D01*
D02*
G37*
G36*
X50500D02*
X47500D01*
Y108000D01*
X50500D01*
Y111750D01*
D02*
G37*
G36*
X62500Y116835D02*
X61798Y116696D01*
X61202Y116298D01*
X60804Y115702D01*
X60665Y115000D01*
X60804Y114298D01*
X61202Y113702D01*
X61378Y113585D01*
Y111465D01*
X61264Y111350D01*
X55900D01*
Y103650D01*
X62100D01*
Y109014D01*
X63293Y110207D01*
X63293Y110207D01*
X63536Y110571D01*
X63622Y111000D01*
X63622Y111000D01*
Y113585D01*
X63798Y113702D01*
X64196Y114298D01*
X64335Y115000D01*
X64196Y115702D01*
X63798Y116298D01*
X63202Y116696D01*
X62500Y116835D01*
D02*
G37*
G36*
X54500Y107000D02*
X51500D01*
Y103250D01*
X54500D01*
Y107000D01*
D02*
G37*
G36*
X50500D02*
X47500D01*
Y103250D01*
X50500D01*
Y107000D01*
D02*
G37*
G36*
X99222Y121832D02*
X88179D01*
Y112168D01*
X95369D01*
Y104600D01*
X93150D01*
Y103131D01*
X84498D01*
Y109250D01*
X70502D01*
Y99585D01*
X75869D01*
Y86415D01*
X75030D01*
Y76750D01*
X79970D01*
Y86415D01*
X79131D01*
Y99585D01*
X84498D01*
Y99869D01*
X93150D01*
Y98400D01*
X100850D01*
Y104600D01*
X98631D01*
Y112168D01*
X99222D01*
Y121832D01*
D02*
G37*
G36*
X101250Y96000D02*
X97500D01*
Y93000D01*
X101250D01*
Y96000D01*
D02*
G37*
G36*
X96500D02*
X92750D01*
Y93000D01*
X96500D01*
Y96000D01*
D02*
G37*
G36*
X27100Y96350D02*
X20900D01*
Y88650D01*
X27100D01*
Y91378D01*
X30905D01*
Y90038D01*
X36829D01*
Y95963D01*
X30905D01*
Y93622D01*
X27100D01*
Y96350D01*
D02*
G37*
G36*
X101250Y92000D02*
X97500D01*
Y89000D01*
X101250D01*
Y92000D01*
D02*
G37*
G36*
X96500D02*
X92750D01*
Y89000D01*
X96500D01*
Y92000D01*
D02*
G37*
G36*
X45097Y95963D02*
X39173D01*
Y90038D01*
X42509D01*
X46341Y86207D01*
X46341Y86207D01*
X46705Y85964D01*
X47134Y85878D01*
X49585D01*
X49702Y85702D01*
X50298Y85304D01*
X51000Y85165D01*
X51702Y85304D01*
X52298Y85702D01*
X52696Y86298D01*
X52835Y87000D01*
X52696Y87702D01*
X52298Y88298D01*
X51702Y88696D01*
X51000Y88835D01*
X50298Y88696D01*
X49702Y88298D01*
X49585Y88122D01*
X47598D01*
X45097Y90623D01*
Y95963D01*
D02*
G37*
G36*
X71315Y86815D02*
X68945D01*
Y82083D01*
X71315D01*
Y86815D01*
D02*
G37*
G36*
X67945D02*
X65575D01*
Y82083D01*
X67945D01*
Y86815D01*
D02*
G37*
G36*
X98500Y79144D02*
Y77500D01*
X100144D01*
X100072Y77858D01*
X99586Y78586D01*
X98858Y79072D01*
X98500Y79144D01*
D02*
G37*
G36*
X97500D02*
X97142Y79072D01*
X96414Y78586D01*
X95928Y77858D01*
X95856Y77500D01*
X97500D01*
Y79144D01*
D02*
G37*
G36*
X27100Y83850D02*
X20900D01*
Y76150D01*
X27100D01*
Y78878D01*
X30906D01*
Y77039D01*
X36830D01*
Y82964D01*
X30906D01*
Y81122D01*
X27100D01*
Y83850D01*
D02*
G37*
G36*
X71315Y81083D02*
X68945D01*
Y76350D01*
X71315D01*
Y81083D01*
D02*
G37*
G36*
X67945D02*
X65575D01*
Y76350D01*
X67945D01*
Y81083D01*
D02*
G37*
G36*
X100144Y76500D02*
X98500D01*
Y74856D01*
X98858Y74928D01*
X99586Y75414D01*
X100072Y76142D01*
X100144Y76500D01*
D02*
G37*
G36*
X97500D02*
X95856D01*
X95928Y76142D01*
X96414Y75414D01*
X97142Y74928D01*
X97500Y74856D01*
Y76500D01*
D02*
G37*
G36*
X45098Y82964D02*
X39174D01*
Y77039D01*
X43009D01*
X45841Y74207D01*
X45841Y74207D01*
X46205Y73964D01*
X46634Y73878D01*
X46634Y73878D01*
X48585D01*
X48702Y73702D01*
X49298Y73304D01*
X50000Y73165D01*
X50702Y73304D01*
X51298Y73702D01*
X51696Y74298D01*
X51835Y75000D01*
X51696Y75702D01*
X51298Y76298D01*
X50702Y76696D01*
X50000Y76835D01*
X49298Y76696D01*
X48702Y76298D01*
X48585Y76122D01*
X47098D01*
X45098Y78122D01*
Y82964D01*
D02*
G37*
G36*
X191787Y81576D02*
X190603Y81420D01*
X189499Y80963D01*
X188552Y80236D01*
X187824Y79288D01*
X187367Y78184D01*
X187211Y77000D01*
X187367Y75816D01*
X187824Y74712D01*
X187863Y74662D01*
X185707Y72506D01*
X185464Y72142D01*
X185378Y71713D01*
X185378Y71712D01*
Y64850D01*
X183400D01*
Y57150D01*
X189600D01*
Y64850D01*
X187622D01*
Y71248D01*
X189449Y73075D01*
X189499Y73037D01*
X190603Y72580D01*
X191787Y72424D01*
X192972Y72580D01*
X194076Y73037D01*
X195023Y73764D01*
X195750Y74712D01*
X196208Y75816D01*
X196364Y77000D01*
X196208Y78184D01*
X195750Y79288D01*
X195023Y80236D01*
X194076Y80963D01*
X192972Y81420D01*
X191787Y81576D01*
D02*
G37*
G36*
X72000Y74250D02*
X69000D01*
Y72512D01*
X68000Y71978D01*
X67858Y72072D01*
X67500Y72144D01*
Y70000D01*
Y67856D01*
X67858Y67928D01*
X68000Y68022D01*
X69000Y67488D01*
Y65750D01*
X71241D01*
X71776Y64750D01*
X71688Y64618D01*
X71616Y64260D01*
X75903D01*
X75832Y64618D01*
X75744Y64750D01*
X76000Y65750D01*
X76000D01*
Y69500D01*
X72500D01*
Y70000D01*
X72000D01*
Y74250D01*
D02*
G37*
G36*
X52000Y101122D02*
X52000Y101122D01*
X20000D01*
X19571Y101036D01*
X19207Y100793D01*
X19207Y100793D01*
X15207Y96793D01*
X14964Y96429D01*
X14948Y96350D01*
X12900D01*
Y88650D01*
X14878D01*
Y83850D01*
X12900D01*
Y76150D01*
X19100D01*
Y83850D01*
X17121D01*
Y88650D01*
X19100D01*
Y96350D01*
X19100D01*
X18759Y97173D01*
X20465Y98878D01*
X51535D01*
X55878Y94535D01*
Y74915D01*
X55702Y74798D01*
X55304Y74202D01*
X55165Y73500D01*
X55304Y72798D01*
X55702Y72202D01*
X56298Y71804D01*
X57000Y71665D01*
X57702Y71804D01*
X58298Y72202D01*
X58696Y72798D01*
X58835Y73500D01*
X58696Y74202D01*
X58298Y74798D01*
X58122Y74915D01*
Y95000D01*
X58122Y95000D01*
X58036Y95429D01*
X57793Y95793D01*
X57793Y95793D01*
X52793Y100793D01*
X52429Y101036D01*
X52000Y101122D01*
D02*
G37*
G36*
X76000Y74250D02*
X73000D01*
Y70500D01*
X76000D01*
Y74250D01*
D02*
G37*
G36*
X66500Y72144D02*
X66142Y72072D01*
X65414Y71586D01*
X64928Y70858D01*
X64856Y70500D01*
X66500D01*
Y72144D01*
D02*
G37*
G36*
X19500Y71750D02*
X16500D01*
Y68000D01*
X19500D01*
Y71750D01*
D02*
G37*
G36*
X15500D02*
X12500D01*
Y68000D01*
X15500D01*
Y71750D01*
D02*
G37*
G36*
X66500Y69500D02*
X64856D01*
X64928Y69142D01*
X65414Y68414D01*
X66142Y67928D01*
X66500Y67856D01*
Y69500D01*
D02*
G37*
G36*
X196500Y69144D02*
Y67500D01*
X198144D01*
X198072Y67858D01*
X197586Y68586D01*
X196858Y69072D01*
X196500Y69144D01*
D02*
G37*
G36*
X195500D02*
X195142Y69072D01*
X194414Y68586D01*
X193928Y67858D01*
X193856Y67500D01*
X195500D01*
Y69144D01*
D02*
G37*
G36*
X27100Y71350D02*
X20900D01*
Y63650D01*
X27100D01*
Y66378D01*
X32904D01*
Y64538D01*
X38828D01*
Y70462D01*
X32904D01*
Y68622D01*
X27100D01*
Y71350D01*
D02*
G37*
G36*
X19500Y67000D02*
X16500D01*
Y63250D01*
X19500D01*
Y67000D01*
D02*
G37*
G36*
X15500D02*
X12500D01*
Y63250D01*
X15500D01*
Y67000D01*
D02*
G37*
G36*
X98500Y64144D02*
Y62500D01*
X100144D01*
X100072Y62858D01*
X99586Y63586D01*
X98858Y64072D01*
X98500Y64144D01*
D02*
G37*
G36*
X97500D02*
X97142Y64072D01*
X96414Y63586D01*
X95928Y62858D01*
X95856Y62500D01*
X97500D01*
Y64144D01*
D02*
G37*
G36*
X75903Y63260D02*
X74260D01*
Y61616D01*
X74618Y61687D01*
X75346Y62174D01*
X75832Y62901D01*
X75903Y63260D01*
D02*
G37*
G36*
X73260D02*
X71616D01*
X71688Y62901D01*
X72174Y62174D01*
X72901Y61687D01*
X73260Y61616D01*
Y63260D01*
D02*
G37*
G36*
X210000Y65250D02*
X207000D01*
Y61500D01*
X210000D01*
Y65250D01*
D02*
G37*
G36*
X198144Y66500D02*
X193856D01*
X193906Y66250D01*
X193857Y66038D01*
X193321Y65250D01*
X192000D01*
Y61500D01*
X195500D01*
X199000D01*
Y65250D01*
X198679D01*
X198143Y66038D01*
X198094Y66250D01*
X198144Y66500D01*
D02*
G37*
G36*
X206000Y65250D02*
X203000D01*
Y61500D01*
X206000D01*
Y65250D01*
D02*
G37*
G36*
X100144Y61500D02*
X98500D01*
Y59856D01*
X98858Y59928D01*
X99586Y60414D01*
X100072Y61142D01*
X100144Y61500D01*
D02*
G37*
G36*
X97500D02*
X95856D01*
X95928Y61142D01*
X96414Y60414D01*
X97142Y59928D01*
X97500Y59856D01*
Y61500D01*
D02*
G37*
G36*
X211000Y81576D02*
X209816Y81420D01*
X208712Y80963D01*
X207764Y80236D01*
X207037Y79288D01*
X206580Y78184D01*
X206424Y77000D01*
X206580Y75816D01*
X207037Y74712D01*
X207764Y73764D01*
X208712Y73037D01*
X209816Y72580D01*
X211000Y72424D01*
X212184Y72580D01*
X213288Y73037D01*
X213338Y73075D01*
X214378Y72035D01*
Y64850D01*
X212400D01*
Y57150D01*
X218600D01*
Y64850D01*
X216621D01*
Y72500D01*
X216622Y72500D01*
X216536Y72929D01*
X216293Y73293D01*
X216293Y73293D01*
X214925Y74662D01*
X214963Y74712D01*
X215420Y75816D01*
X215576Y77000D01*
X215420Y78184D01*
X214963Y79288D01*
X214236Y80236D01*
X213288Y80963D01*
X212184Y81420D01*
X211000Y81576D01*
D02*
G37*
G36*
X210000Y60500D02*
X207000D01*
Y56750D01*
X210000D01*
Y60500D01*
D02*
G37*
G36*
X206000D02*
X203000D01*
Y56750D01*
X206000D01*
Y60500D01*
D02*
G37*
G36*
X199000D02*
X196000D01*
Y56750D01*
X199000D01*
Y60500D01*
D02*
G37*
G36*
X195000D02*
X192000D01*
Y56750D01*
X195000D01*
Y60500D01*
D02*
G37*
G36*
X89025Y86415D02*
X84085D01*
Y76750D01*
X84344D01*
X84684Y75750D01*
X82783Y73850D01*
X78400D01*
Y66150D01*
X79609D01*
Y56328D01*
X76802D01*
Y55431D01*
X69832D01*
Y59320D01*
X60168D01*
Y55431D01*
X54377D01*
X54218Y55589D01*
X54196Y55702D01*
X53798Y56298D01*
X53202Y56696D01*
X52500Y56835D01*
X52292Y56794D01*
X45548Y63538D01*
X45963Y64538D01*
X47096D01*
Y70462D01*
X41172D01*
Y64538D01*
X43012D01*
Y63366D01*
X43012Y63366D01*
X43098Y62937D01*
X43341Y62573D01*
X50706Y55208D01*
X50665Y55000D01*
X50804Y54298D01*
X51202Y53702D01*
X51798Y53304D01*
X51911Y53282D01*
X52547Y52646D01*
X53076Y52292D01*
X53701Y52168D01*
X60168D01*
Y48278D01*
X69832D01*
Y52168D01*
X76802D01*
Y48672D01*
X80495D01*
Y42802D01*
X79411Y41718D01*
X79298Y41696D01*
X78702Y41298D01*
X78304Y40702D01*
X78165Y40000D01*
X78304Y39298D01*
X78702Y38702D01*
X79298Y38304D01*
X80000Y38165D01*
X80702Y38304D01*
X81298Y38702D01*
X81696Y39298D01*
X81718Y39411D01*
X83280Y40972D01*
X83633Y41502D01*
X83757Y42126D01*
Y48672D01*
X87450D01*
Y56328D01*
X82872D01*
Y66150D01*
X84600D01*
Y71053D01*
X87709Y74161D01*
X88062Y74691D01*
X88187Y75315D01*
Y76750D01*
X89025D01*
Y86415D01*
D02*
G37*
G36*
X167500Y81083D02*
X166573Y80961D01*
X165708Y80603D01*
X164966Y80034D01*
X164397Y79292D01*
X164039Y78427D01*
X163917Y77500D01*
X164039Y76573D01*
X164397Y75708D01*
X164966Y74966D01*
X165708Y74397D01*
X166573Y74039D01*
X167500Y73917D01*
X167878Y73966D01*
X168878Y73232D01*
Y59600D01*
X166150D01*
Y53400D01*
X173850D01*
Y59600D01*
X171122D01*
Y75000D01*
X171036Y75429D01*
X170793Y75793D01*
X170793Y75793D01*
X170684Y75902D01*
X170961Y76573D01*
X171083Y77500D01*
X170961Y78427D01*
X170603Y79292D01*
X170034Y80034D01*
X169292Y80603D01*
X168427Y80961D01*
X167500Y81083D01*
D02*
G37*
G36*
X157500D02*
X156573Y80961D01*
X155708Y80603D01*
X154966Y80034D01*
X154397Y79292D01*
X154039Y78427D01*
X153917Y77500D01*
X154039Y76573D01*
X154397Y75708D01*
X154966Y74966D01*
X155708Y74397D01*
X156573Y74039D01*
X157500Y73917D01*
X157878Y73966D01*
X158878Y73232D01*
Y59600D01*
X156150D01*
Y53400D01*
X163850D01*
Y59600D01*
X161122D01*
Y75000D01*
X161036Y75429D01*
X160793Y75793D01*
X160793Y75793D01*
X160684Y75902D01*
X160961Y76573D01*
X161083Y77500D01*
X160961Y78427D01*
X160603Y79292D01*
X160034Y80034D01*
X159292Y80603D01*
X158427Y80961D01*
X157500Y81083D01*
D02*
G37*
G36*
X147500D02*
X146573Y80961D01*
X145708Y80603D01*
X144966Y80034D01*
X144397Y79292D01*
X144039Y78427D01*
X143917Y77500D01*
X144039Y76573D01*
X144397Y75708D01*
X144966Y74966D01*
X145708Y74397D01*
X146378Y74119D01*
Y59600D01*
X146150D01*
Y53400D01*
X153850D01*
Y59600D01*
X148622D01*
Y74119D01*
X149292Y74397D01*
X150034Y74966D01*
X150603Y75708D01*
X150961Y76573D01*
X151083Y77500D01*
X150961Y78427D01*
X150603Y79292D01*
X150034Y80034D01*
X149292Y80603D01*
X148427Y80961D01*
X147500Y81083D01*
D02*
G37*
G36*
X137500D02*
X136573Y80961D01*
X135708Y80603D01*
X134966Y80034D01*
X134397Y79292D01*
X134039Y78427D01*
X133917Y77500D01*
X134039Y76573D01*
X134397Y75708D01*
X134966Y74966D01*
X135708Y74397D01*
X136573Y74039D01*
X137500Y73917D01*
X137878Y73966D01*
X138878Y73232D01*
Y59600D01*
X136150D01*
Y53400D01*
X143850D01*
Y59600D01*
X141122D01*
Y75000D01*
X141036Y75429D01*
X140793Y75793D01*
X140793Y75793D01*
X140684Y75902D01*
X140961Y76573D01*
X141083Y77500D01*
X140961Y78427D01*
X140603Y79292D01*
X140034Y80034D01*
X139292Y80603D01*
X138427Y80961D01*
X137500Y81083D01*
D02*
G37*
G36*
X127500D02*
X126573Y80961D01*
X125708Y80603D01*
X124966Y80034D01*
X124397Y79292D01*
X124039Y78427D01*
X123917Y77500D01*
X124039Y76573D01*
X124397Y75708D01*
X124966Y74966D01*
X125708Y74397D01*
X126573Y74039D01*
X127500Y73917D01*
X127878Y73966D01*
X128878Y73232D01*
Y59600D01*
X126150D01*
Y53400D01*
X133850D01*
Y59600D01*
X131122D01*
Y75000D01*
X131036Y75429D01*
X130793Y75793D01*
X130793Y75793D01*
X130684Y75902D01*
X130961Y76573D01*
X131083Y77500D01*
X130961Y78427D01*
X130603Y79292D01*
X130034Y80034D01*
X129292Y80603D01*
X128427Y80961D01*
X127500Y81083D01*
D02*
G37*
G36*
X117500D02*
X116573Y80961D01*
X115708Y80603D01*
X114966Y80034D01*
X114397Y79292D01*
X114039Y78427D01*
X113917Y77500D01*
X114039Y76573D01*
X114397Y75708D01*
X114966Y74966D01*
X115708Y74397D01*
X116573Y74039D01*
X117500Y73917D01*
X117878Y73966D01*
X118878Y73232D01*
Y59600D01*
X116150D01*
Y53400D01*
X123850D01*
Y59600D01*
X121122D01*
Y75000D01*
X121036Y75429D01*
X120793Y75793D01*
X120793Y75793D01*
X120684Y75902D01*
X120961Y76573D01*
X121083Y77500D01*
X120961Y78427D01*
X120603Y79292D01*
X120034Y80034D01*
X119292Y80603D01*
X118427Y80961D01*
X117500Y81083D01*
D02*
G37*
G36*
X103598Y56728D02*
X98374D01*
Y53000D01*
X103598D01*
Y56728D01*
D02*
G37*
G36*
X97374D02*
X92150D01*
Y53000D01*
X97374D01*
Y56728D01*
D02*
G37*
G36*
X107500Y81083D02*
X106573Y80961D01*
X105708Y80603D01*
X104966Y80034D01*
X104397Y79292D01*
X104039Y78427D01*
X103917Y77500D01*
X104039Y76573D01*
X104397Y75708D01*
X104966Y74966D01*
X105708Y74397D01*
X106573Y74039D01*
X107500Y73917D01*
X107878Y73966D01*
X108878Y73232D01*
Y59600D01*
X106150D01*
Y54057D01*
X105945Y53393D01*
X105501Y52893D01*
X105401Y52793D01*
X104857Y52249D01*
X104614Y51885D01*
X104598Y51807D01*
X103598Y51906D01*
Y52000D01*
X98374D01*
Y48272D01*
X103554D01*
X103598Y48272D01*
X104582Y48232D01*
X104614Y48071D01*
X104857Y47707D01*
X104976Y46630D01*
X104948Y46535D01*
X85510Y27096D01*
X82038D01*
Y27042D01*
X81538Y26122D01*
X81109Y26036D01*
X80745Y25793D01*
X80502Y25429D01*
X80416Y25000D01*
Y24134D01*
X80502Y23705D01*
X80745Y23341D01*
X81109Y23098D01*
X81538Y23012D01*
X82038Y22092D01*
Y21172D01*
X87962D01*
Y26376D01*
X106986Y45400D01*
X113850D01*
Y51600D01*
X112042D01*
X111556Y51864D01*
X111457Y52483D01*
X112214Y53400D01*
X113850D01*
Y59600D01*
X111122D01*
Y75000D01*
X111036Y75429D01*
X110793Y75793D01*
X110793Y75793D01*
X110684Y75902D01*
X110961Y76573D01*
X111083Y77500D01*
X110961Y78427D01*
X110603Y79292D01*
X110034Y80034D01*
X109292Y80603D01*
X108427Y80961D01*
X107500Y81083D01*
D02*
G37*
G36*
X209500Y50144D02*
Y48500D01*
X211144D01*
X211072Y48858D01*
X210586Y49586D01*
X209858Y50072D01*
X209500Y50144D01*
D02*
G37*
G36*
X208500D02*
X208142Y50072D01*
X207414Y49586D01*
X206928Y48858D01*
X206856Y48500D01*
X208500D01*
Y50144D01*
D02*
G37*
G36*
X97374Y52000D02*
X92150D01*
Y48272D01*
X97374D01*
Y52000D01*
D02*
G37*
G36*
X211144Y47500D02*
X209500D01*
Y45856D01*
X209858Y45928D01*
X210586Y46414D01*
X211072Y47142D01*
X211144Y47500D01*
D02*
G37*
G36*
X208500D02*
X206856D01*
X206928Y47142D01*
X207414Y46414D01*
X208142Y45928D01*
X208500Y45856D01*
Y47500D01*
D02*
G37*
G36*
X22803Y42477D02*
Y33000D01*
X27346D01*
Y37500D01*
X27174Y38805D01*
X26671Y40022D01*
X25869Y41066D01*
X24825Y41868D01*
X23608Y42371D01*
X22803Y42477D01*
D02*
G37*
G36*
X21803D02*
X20998Y42371D01*
X19782Y41868D01*
X18737Y41066D01*
X17936Y40022D01*
X17432Y38805D01*
X17260Y37500D01*
Y33000D01*
X21803D01*
Y42477D01*
D02*
G37*
G36*
X173850Y51600D02*
X166150D01*
Y45400D01*
X168878D01*
Y33465D01*
X160667Y25253D01*
X147964D01*
Y26878D01*
X147964Y27094D01*
X148484Y27878D01*
X154000D01*
X154000Y27878D01*
X154429Y27964D01*
X154793Y28207D01*
X160793Y34207D01*
X160793Y34207D01*
X161036Y34571D01*
X161122Y35000D01*
X161122Y35000D01*
Y45400D01*
X163850D01*
Y51600D01*
X156150D01*
Y45400D01*
X158878D01*
Y35465D01*
X153535Y30122D01*
X144931D01*
X144665Y31122D01*
X144793Y31207D01*
X150793Y37207D01*
X150793Y37207D01*
X151036Y37571D01*
X151122Y38000D01*
X151122Y38000D01*
Y45400D01*
X153850D01*
Y51600D01*
X146150D01*
Y45400D01*
X148878D01*
Y38465D01*
X143535Y33122D01*
X138122D01*
X137708Y34122D01*
X140793Y37207D01*
X140793Y37207D01*
X141036Y37571D01*
X141122Y38000D01*
Y45400D01*
X143850D01*
Y51600D01*
X136150D01*
Y45400D01*
X138878D01*
Y38465D01*
X135535Y35122D01*
X127930D01*
X127665Y36122D01*
X127793Y36207D01*
X130793Y39207D01*
X131036Y39571D01*
X131122Y40000D01*
X131122Y40000D01*
Y45400D01*
X133850D01*
Y51600D01*
X126150D01*
Y45400D01*
X128878D01*
Y40465D01*
X126535Y38122D01*
X117930D01*
X117665Y39122D01*
X117793Y39207D01*
X120793Y42207D01*
X121036Y42571D01*
X121122Y43000D01*
X121122Y43000D01*
Y45400D01*
X123850D01*
Y51600D01*
X116150D01*
Y45400D01*
X118878D01*
Y43465D01*
X116535Y41122D01*
X105000D01*
X105000Y41122D01*
X104571Y41036D01*
X104207Y40793D01*
X104207Y40793D01*
X94207Y30793D01*
X93964Y30429D01*
X93878Y30000D01*
X93878Y30000D01*
Y27096D01*
X92038D01*
Y21172D01*
X97962D01*
Y27096D01*
X96122D01*
Y29535D01*
X105465Y38878D01*
X111070D01*
X111335Y37878D01*
X111207Y37793D01*
X111207Y37793D01*
X104207Y30793D01*
X103964Y30429D01*
X103878Y30000D01*
X103878Y30000D01*
Y27096D01*
X102038D01*
Y21172D01*
X107962D01*
Y27096D01*
X106122D01*
Y29535D01*
X112465Y35878D01*
X123936D01*
X124201Y34878D01*
X124073Y34793D01*
X124073Y34793D01*
X116376Y27096D01*
X112038D01*
Y21172D01*
X117962D01*
Y25510D01*
X125331Y32878D01*
X130746D01*
X131160Y31878D01*
X126377Y27095D01*
X122038D01*
Y21171D01*
X127963D01*
Y25509D01*
X133332Y30878D01*
X138936D01*
X139201Y29878D01*
X139073Y29793D01*
X139073Y29793D01*
X136376Y27096D01*
X132038D01*
Y21172D01*
X137962D01*
Y25510D01*
X140331Y27878D01*
X141518D01*
X142039Y27094D01*
X142039Y26878D01*
Y21170D01*
X147964D01*
Y23010D01*
X161132D01*
X161132Y23010D01*
X161561Y23096D01*
X161925Y23339D01*
X170793Y32207D01*
X171036Y32571D01*
X171122Y33000D01*
X171122Y33000D01*
Y45400D01*
X173850D01*
Y51600D01*
D02*
G37*
G36*
X69832Y46722D02*
X60168D01*
Y35680D01*
X63369D01*
Y32096D01*
X61447D01*
Y26565D01*
X68553D01*
Y32096D01*
X66631D01*
Y35680D01*
X69832D01*
Y46722D01*
D02*
G37*
G36*
X27346Y32000D02*
X22803D01*
Y22523D01*
X23608Y22629D01*
X24825Y23133D01*
X25869Y23934D01*
X26671Y24978D01*
X27174Y26195D01*
X27346Y27500D01*
Y32000D01*
D02*
G37*
G36*
X21803D02*
X17260D01*
Y27500D01*
X17432Y26195D01*
X17936Y24978D01*
X18737Y23934D01*
X19782Y23133D01*
X20998Y22629D01*
X21803Y22523D01*
Y32000D01*
D02*
G37*
G36*
X47500Y42140D02*
X46299Y41982D01*
X45180Y41518D01*
X44219Y40781D01*
X43482Y39820D01*
X43018Y38701D01*
X42860Y37500D01*
Y27500D01*
X43018Y26299D01*
X43482Y25180D01*
X44219Y24219D01*
X45180Y23482D01*
X46299Y23018D01*
X47500Y22860D01*
X48701Y23018D01*
X49820Y23482D01*
X50781Y24219D01*
X51336Y24943D01*
X52483Y25210D01*
X57646Y20047D01*
X58175Y19694D01*
X58799Y19569D01*
X61447D01*
Y17904D01*
X68553D01*
Y19569D01*
X71201D01*
X71825Y19694D01*
X72354Y20047D01*
X77153Y24847D01*
X77507Y25376D01*
X77631Y26000D01*
Y29202D01*
X77696Y29298D01*
X77835Y30000D01*
X77696Y30702D01*
X77298Y31298D01*
X76702Y31696D01*
X76000Y31835D01*
X75298Y31696D01*
X74702Y31298D01*
X74304Y30702D01*
X74165Y30000D01*
X74304Y29298D01*
X74369Y29202D01*
Y26676D01*
X70525Y22832D01*
X68553D01*
Y23435D01*
X61447D01*
Y22832D01*
X59475D01*
X52140Y30167D01*
Y37500D01*
X51982Y38701D01*
X51518Y39820D01*
X50781Y40781D01*
X49820Y41518D01*
X48701Y41982D01*
X47500Y42140D01*
D02*
G37*
G36*
X175000Y41835D02*
X174298Y41696D01*
X173702Y41298D01*
X173304Y40702D01*
X173165Y40000D01*
X173304Y39298D01*
X173369Y39202D01*
Y30000D01*
X173493Y29376D01*
X173846Y28846D01*
X184346Y18347D01*
X184876Y17993D01*
X185500Y17869D01*
X198702D01*
X198798Y17804D01*
X199500Y17665D01*
X200202Y17804D01*
X200798Y18202D01*
X201196Y18798D01*
X201335Y19500D01*
X201196Y20202D01*
X200798Y20798D01*
X200202Y21196D01*
X199500Y21335D01*
X198798Y21196D01*
X198702Y21131D01*
X186176D01*
X176631Y30676D01*
Y39202D01*
X176696Y39298D01*
X176835Y40000D01*
X176696Y40702D01*
X176298Y41298D01*
X175702Y41696D01*
X175000Y41835D01*
D02*
G37*
G36*
X138362Y19228D02*
X135500D01*
Y16366D01*
X138362D01*
Y19228D01*
D02*
G37*
G36*
X118362D02*
X115500D01*
Y16366D01*
X118362D01*
Y19228D01*
D02*
G37*
G36*
X108362D02*
X105500D01*
Y16366D01*
X108362D01*
Y19228D01*
D02*
G37*
G36*
X98362D02*
X95500D01*
Y16366D01*
X98362D01*
Y19228D01*
D02*
G37*
G36*
X88362D02*
X85500D01*
Y16366D01*
X88362D01*
Y19228D01*
D02*
G37*
G36*
X134500D02*
X131638D01*
Y16366D01*
X134500D01*
Y19228D01*
D02*
G37*
G36*
X114500D02*
X111638D01*
Y16366D01*
X114500D01*
Y19228D01*
D02*
G37*
G36*
X104500D02*
X101638D01*
Y16366D01*
X104500D01*
Y19228D01*
D02*
G37*
G36*
X94500D02*
X91638D01*
Y16366D01*
X94500D01*
Y19228D01*
D02*
G37*
G36*
X84500D02*
X81638D01*
Y16366D01*
X84500D01*
Y19228D01*
D02*
G37*
G36*
X128363Y19227D02*
X125501D01*
Y16365D01*
X128363D01*
Y19227D01*
D02*
G37*
G36*
X124501D02*
X121638D01*
Y16365D01*
X124501D01*
Y19227D01*
D02*
G37*
G36*
X148363Y19226D02*
X145501D01*
Y16364D01*
X148363D01*
Y19226D01*
D02*
G37*
G36*
X144501D02*
X141639D01*
Y16364D01*
X144501D01*
Y19226D01*
D02*
G37*
G36*
X39902Y19039D02*
X35402D01*
Y14496D01*
X44879D01*
X44773Y15301D01*
X44269Y16518D01*
X43468Y17562D01*
X42423Y18364D01*
X41207Y18867D01*
X39902Y19039D01*
D02*
G37*
G36*
X34402D02*
X29902D01*
X28596Y18867D01*
X27380Y18364D01*
X26335Y17562D01*
X25534Y16518D01*
X25030Y15301D01*
X24924Y14496D01*
X34402D01*
Y19039D01*
D02*
G37*
G36*
X138362Y15366D02*
X135500D01*
Y12504D01*
X138362D01*
Y15366D01*
D02*
G37*
G36*
X134500D02*
X131638D01*
Y12504D01*
X134500D01*
Y15366D01*
D02*
G37*
G36*
X118362D02*
X115500D01*
Y12504D01*
X118362D01*
Y15366D01*
D02*
G37*
G36*
X114500D02*
X111638D01*
Y12504D01*
X114500D01*
Y15366D01*
D02*
G37*
G36*
X108362D02*
X105500D01*
Y12504D01*
X108362D01*
Y15366D01*
D02*
G37*
G36*
X104500D02*
X101638D01*
Y12504D01*
X104500D01*
Y15366D01*
D02*
G37*
G36*
X98362D02*
X95500D01*
Y12504D01*
X98362D01*
Y15366D01*
D02*
G37*
G36*
X94500D02*
X91638D01*
Y12504D01*
X94500D01*
Y15366D01*
D02*
G37*
G36*
X88362D02*
X85500D01*
Y12504D01*
X88362D01*
Y15366D01*
D02*
G37*
G36*
X84500D02*
X81638D01*
Y12504D01*
X84500D01*
Y15366D01*
D02*
G37*
G36*
X128363Y15365D02*
X125501D01*
Y12503D01*
X128363D01*
Y15365D01*
D02*
G37*
G36*
X124501D02*
X121638D01*
Y12503D01*
X124501D01*
Y15365D01*
D02*
G37*
G36*
X148363Y15364D02*
X145501D01*
Y12502D01*
X148363D01*
Y15364D01*
D02*
G37*
G36*
X144501D02*
X141639D01*
Y12502D01*
X144501D01*
Y15364D01*
D02*
G37*
G36*
X220500Y13921D02*
Y10500D01*
X223921D01*
X223851Y11032D01*
X223453Y11993D01*
X222819Y12819D01*
X221993Y13453D01*
X221032Y13851D01*
X220500Y13921D01*
D02*
G37*
G36*
X219500D02*
X218968Y13851D01*
X218007Y13453D01*
X217181Y12819D01*
X216547Y11993D01*
X216149Y11032D01*
X216079Y10500D01*
X219500D01*
Y13921D01*
D02*
G37*
G36*
X210500D02*
Y10500D01*
X213921D01*
X213851Y11032D01*
X213453Y11993D01*
X212819Y12819D01*
X211993Y13453D01*
X211032Y13851D01*
X210500Y13921D01*
D02*
G37*
G36*
X209500D02*
X208968Y13851D01*
X208007Y13453D01*
X207181Y12819D01*
X206547Y11993D01*
X206149Y11032D01*
X206079Y10500D01*
X209500D01*
Y13921D01*
D02*
G37*
G36*
X44879Y13496D02*
X35402D01*
Y8953D01*
X39902D01*
X41207Y9125D01*
X42423Y9629D01*
X43468Y10430D01*
X44269Y11474D01*
X44773Y12691D01*
X44879Y13496D01*
D02*
G37*
G36*
X34402D02*
X24924D01*
X25030Y12691D01*
X25534Y11474D01*
X26335Y10430D01*
X27380Y9629D01*
X28596Y9125D01*
X29902Y8953D01*
X34402D01*
Y13496D01*
D02*
G37*
G36*
X163553Y13553D02*
X156447D01*
Y6447D01*
X163553D01*
Y13553D01*
D02*
G37*
G36*
X184000Y31835D02*
X183298Y31696D01*
X182702Y31298D01*
X182304Y30702D01*
X182165Y30000D01*
X182304Y29298D01*
X182702Y28702D01*
X183298Y28304D01*
X184000Y28165D01*
X184702Y28304D01*
X184798Y28369D01*
X209324D01*
X226605Y11088D01*
X226539Y10927D01*
X226417Y10000D01*
X226539Y9072D01*
X226897Y8208D01*
X227466Y7466D01*
X228208Y6897D01*
X229073Y6539D01*
X230000Y6417D01*
X230927Y6539D01*
X231792Y6897D01*
X232534Y7466D01*
X233103Y8208D01*
X233461Y9072D01*
X233583Y10000D01*
X233461Y10927D01*
X233103Y11792D01*
X232534Y12534D01*
X231792Y13103D01*
X230927Y13461D01*
X230000Y13583D01*
X229073Y13461D01*
X228912Y13395D01*
X211154Y31154D01*
X210624Y31507D01*
X210000Y31631D01*
X184798D01*
X184702Y31696D01*
X184000Y31835D01*
D02*
G37*
G36*
X200000Y13583D02*
X199073Y13461D01*
X198208Y13103D01*
X197466Y12534D01*
X196897Y11792D01*
X196539Y10927D01*
X196417Y10000D01*
X196539Y9072D01*
X196897Y8208D01*
X197466Y7466D01*
X198208Y6897D01*
X199073Y6539D01*
X200000Y6417D01*
X200927Y6539D01*
X201792Y6897D01*
X202534Y7466D01*
X203103Y8208D01*
X203461Y9072D01*
X203583Y10000D01*
X203461Y10927D01*
X203103Y11792D01*
X202534Y12534D01*
X201792Y13103D01*
X200927Y13461D01*
X200000Y13583D01*
D02*
G37*
G36*
X190000D02*
X189073Y13461D01*
X188208Y13103D01*
X187466Y12534D01*
X186897Y11792D01*
X186539Y10927D01*
X186417Y10000D01*
X186539Y9072D01*
X186897Y8208D01*
X187466Y7466D01*
X188208Y6897D01*
X189073Y6539D01*
X190000Y6417D01*
X190927Y6539D01*
X191792Y6897D01*
X192534Y7466D01*
X193103Y8208D01*
X193461Y9072D01*
X193583Y10000D01*
X193461Y10927D01*
X193103Y11792D01*
X192534Y12534D01*
X191792Y13103D01*
X190927Y13461D01*
X190000Y13583D01*
D02*
G37*
G36*
X170000D02*
X169073Y13461D01*
X168208Y13103D01*
X167466Y12534D01*
X166897Y11792D01*
X166539Y10927D01*
X166417Y10000D01*
X166539Y9072D01*
X166897Y8208D01*
X167466Y7466D01*
X168208Y6897D01*
X169073Y6539D01*
X170000Y6417D01*
X170927Y6539D01*
X171792Y6897D01*
X172534Y7466D01*
X173103Y8208D01*
X173461Y9072D01*
X173583Y10000D01*
X173461Y10927D01*
X173103Y11792D01*
X172534Y12534D01*
X171792Y13103D01*
X170927Y13461D01*
X170000Y13583D01*
D02*
G37*
G36*
X310052Y103823D02*
X309520Y103753D01*
X308559Y103355D01*
X307733Y102721D01*
X307099Y101896D01*
X306701Y100934D01*
X306631Y100402D01*
X310052D01*
Y103823D01*
D02*
G37*
G36*
Y99402D02*
X306631D01*
X306701Y98870D01*
X307099Y97909D01*
X307733Y97083D01*
X308559Y96450D01*
X309520Y96051D01*
X310052Y95981D01*
Y99402D01*
D02*
G37*
%LPD*%
D10*
X68445Y81583D02*
D03*
X77500D02*
D03*
X86555D02*
D03*
D11*
X77500Y104417D02*
D03*
D12*
X97000Y101500D02*
D03*
Y92500D02*
D03*
X140000Y56500D02*
D03*
Y48500D02*
D03*
X150000Y56500D02*
D03*
Y48500D02*
D03*
X160000Y56500D02*
D03*
Y48500D02*
D03*
X170000Y56500D02*
D03*
Y48500D02*
D03*
X137000Y151000D02*
D03*
Y159000D02*
D03*
X110000Y56500D02*
D03*
Y48500D02*
D03*
X120000Y56500D02*
D03*
Y48500D02*
D03*
X130000Y56500D02*
D03*
Y48500D02*
D03*
X137000Y132500D02*
D03*
Y141500D02*
D03*
X142000Y118500D02*
D03*
Y109500D02*
D03*
X153000Y118500D02*
D03*
Y109500D02*
D03*
D13*
X81500Y70000D02*
D03*
X72500D02*
D03*
X59000Y107500D02*
D03*
X51000D02*
D03*
X24000Y67500D02*
D03*
X16000D02*
D03*
X24000Y80000D02*
D03*
X16000D02*
D03*
X24000Y92500D02*
D03*
X16000D02*
D03*
X71000Y132500D02*
D03*
X79000D02*
D03*
X59000Y135000D02*
D03*
X51000D02*
D03*
Y145000D02*
D03*
X59000D02*
D03*
X51000Y155000D02*
D03*
X59000D02*
D03*
X28000Y179000D02*
D03*
X36000D02*
D03*
X8500D02*
D03*
X17500D02*
D03*
X97000Y132500D02*
D03*
X88000D02*
D03*
X60500Y175000D02*
D03*
X51500D02*
D03*
X195500Y61000D02*
D03*
X186500D02*
D03*
X206500D02*
D03*
X215500D02*
D03*
D14*
X135000Y15866D02*
D03*
Y24134D02*
D03*
X105000D02*
D03*
Y15866D02*
D03*
X115000Y24134D02*
D03*
Y15866D02*
D03*
X125001Y24133D02*
D03*
Y15865D02*
D03*
X85000Y24134D02*
D03*
Y15866D02*
D03*
X95000Y24134D02*
D03*
Y15866D02*
D03*
X145001Y15864D02*
D03*
Y24132D02*
D03*
D15*
X33867Y93001D02*
D03*
X42135D02*
D03*
X44134Y67500D02*
D03*
X35866D02*
D03*
X42136Y80001D02*
D03*
X33868D02*
D03*
D16*
X110158Y178000D02*
D03*
X79843D02*
D03*
Y200000D02*
D03*
X110158D02*
D03*
D17*
X65000Y29331D02*
D03*
Y20669D02*
D03*
D18*
X82126Y52500D02*
D03*
X97874D02*
D03*
D19*
X13189Y129980D02*
D03*
Y165020D02*
D03*
X34843Y129980D02*
D03*
Y165020D02*
D03*
D20*
X35236Y141201D02*
D03*
Y144350D02*
D03*
Y147500D02*
D03*
Y150650D02*
D03*
Y153799D02*
D03*
D21*
X47555Y119000D02*
D03*
X54445D02*
D03*
X124555Y110000D02*
D03*
X131445D02*
D03*
D22*
X18701Y112500D02*
D03*
X31299D02*
D03*
X93701Y117000D02*
D03*
X106299D02*
D03*
D23*
X65000Y53799D02*
D03*
Y41201D02*
D03*
D24*
X73051Y155905D02*
D03*
Y153937D02*
D03*
Y151969D02*
D03*
Y150000D02*
D03*
Y148031D02*
D03*
Y146063D02*
D03*
Y144095D02*
D03*
X91949D02*
D03*
Y146063D02*
D03*
Y148031D02*
D03*
Y150000D02*
D03*
Y151969D02*
D03*
Y153937D02*
D03*
Y155905D02*
D03*
D25*
X76595Y140551D02*
D03*
X78563D02*
D03*
X80532D02*
D03*
X82500D02*
D03*
X84469D02*
D03*
X86437D02*
D03*
X88406D02*
D03*
Y159449D02*
D03*
X86437D02*
D03*
X84469D02*
D03*
X82500D02*
D03*
X80532D02*
D03*
X78563D02*
D03*
X76595D02*
D03*
D26*
X82500Y150000D02*
D03*
D27*
X185000Y127500D02*
D03*
D28*
X173386Y118642D02*
D03*
Y120610D02*
D03*
Y122579D02*
D03*
Y124547D02*
D03*
Y126516D02*
D03*
Y128484D02*
D03*
Y130453D02*
D03*
Y132421D02*
D03*
Y134390D02*
D03*
Y136358D02*
D03*
X196614D02*
D03*
Y134390D02*
D03*
Y132421D02*
D03*
Y130453D02*
D03*
Y128484D02*
D03*
Y126516D02*
D03*
Y124547D02*
D03*
Y122579D02*
D03*
Y120610D02*
D03*
Y118642D02*
D03*
D29*
X176142Y139114D02*
D03*
X178110D02*
D03*
X180079D02*
D03*
X182047D02*
D03*
X184016D02*
D03*
X185984D02*
D03*
X187953D02*
D03*
X189921D02*
D03*
X191890D02*
D03*
X193858D02*
D03*
Y115886D02*
D03*
X191890D02*
D03*
X189921D02*
D03*
X187953D02*
D03*
X185984D02*
D03*
X184016D02*
D03*
X182047D02*
D03*
X180079D02*
D03*
X178110D02*
D03*
X176142D02*
D03*
D30*
X61413Y165000D02*
D03*
X50587D02*
D03*
D31*
X175000Y30000D02*
X185500Y19500D01*
X199500D01*
X106299Y117000D02*
X113299Y110000D01*
X124555D01*
X93701Y117000D02*
X97000Y113701D01*
Y101500D02*
Y113701D01*
X80417Y101500D02*
X97000D01*
X77500Y104417D02*
X80417Y101500D01*
X77500Y81583D02*
Y104417D01*
X22303Y26594D02*
X34902Y13996D01*
X85000Y15866D02*
X95000D01*
X85000D02*
X105000D01*
X85000D02*
X115000D01*
X85000D02*
X125000D01*
X85000D02*
X135000D01*
X85000D02*
X145000D01*
X204134D01*
X184000Y30000D02*
X210000D01*
X230000Y10000D01*
X204134Y15866D02*
X210000Y10000D01*
X175000Y30000D02*
Y40000D01*
X80000D02*
X82126Y42126D01*
Y52500D01*
X53701Y53799D02*
X65000D01*
X52500Y55000D02*
X53701Y53799D01*
X7500Y112500D02*
X18701D01*
X25000Y145000D02*
X28799Y141201D01*
X35236D01*
X86555Y75315D02*
Y79311D01*
X81240Y70000D02*
X86555Y75315D01*
X80827Y53799D02*
X81240Y53386D01*
Y70000D01*
Y53386D02*
X82126Y52500D01*
X65000Y53799D02*
X80827D01*
X31299Y112500D02*
X40000D01*
X20000Y150000D02*
X25000D01*
X28799Y153799D01*
X35236D01*
X65000Y29331D02*
Y41201D01*
X47500Y32500D02*
X58799Y21201D01*
X65000D01*
X22303Y26594D02*
Y32500D01*
X34902Y13996D02*
X38898Y10000D01*
X80000D01*
X85000Y15000D01*
Y15866D01*
X131445Y110000D02*
X131945Y109500D01*
X142000D01*
X153000D01*
X142000Y118500D02*
X153000D01*
X65000Y21201D02*
X71201D01*
X76000Y26000D01*
Y30000D01*
X210000Y10000D02*
X220000D01*
X137000Y159000D02*
Y163000D01*
X128000Y172000D02*
X137000Y163000D01*
X42000Y179000D02*
X44000Y181000D01*
X36000Y179000D02*
X42000D01*
X106299Y117000D02*
X114299Y125000D01*
X116000D01*
D32*
X47134Y87000D02*
X51000D01*
X41634Y92500D02*
X47134Y87000D01*
X46634Y75000D02*
X50000D01*
X41634Y80000D02*
X46634Y75000D01*
X24000Y67500D02*
X35866D01*
X33867Y80000D02*
X33868Y80001D01*
X24000Y80000D02*
X33867D01*
X33367Y92500D02*
X33367Y92501D01*
X24000Y92500D02*
X33367D01*
X160000Y35000D02*
Y48500D01*
X154000Y29000D02*
X160000Y35000D01*
X139866Y29000D02*
X154000D01*
X135000Y24134D02*
X139866Y29000D01*
X108500Y48500D02*
X110000D01*
X85000Y25000D02*
X108500Y48500D01*
X106294Y52100D02*
X110000D01*
X105650Y51456D02*
X106294Y52100D01*
X105650Y48500D02*
Y51456D01*
X85000Y24134D02*
Y25000D01*
X81538Y24134D02*
Y25000D01*
X120000Y43000D02*
Y48500D01*
X117000Y40000D02*
X120000Y43000D01*
X105000Y40000D02*
X117000D01*
X95000Y30000D02*
X105000Y40000D01*
X95000Y24134D02*
Y30000D01*
X130000Y40000D02*
Y48500D01*
X127000Y37000D02*
X130000Y40000D01*
X112000Y37000D02*
X127000D01*
X105000Y30000D02*
X112000Y37000D01*
X105000Y24134D02*
Y30000D01*
X140000Y38000D02*
Y48500D01*
X136000Y34000D02*
X140000Y38000D01*
X124866Y34000D02*
X136000D01*
X115000Y24134D02*
X124866Y34000D01*
X150000Y38000D02*
Y48500D01*
X144000Y32000D02*
X150000Y38000D01*
X132868Y32000D02*
X144000D01*
X125001Y24133D02*
X132868Y32000D01*
X145001Y24132D02*
X161132D01*
X170000Y33000D01*
Y48500D01*
X100500Y132500D02*
X105000Y128000D01*
X97000Y132500D02*
X100500D01*
X161000Y162000D02*
X174000Y175000D01*
Y200000D01*
X184000Y180000D02*
Y200000D01*
X162000Y158000D02*
X184000Y180000D01*
X157000Y158000D02*
X162000D01*
X91000Y178000D02*
X103000Y166000D01*
X85000Y168000D02*
X97000D01*
X100000Y165000D01*
Y142500D02*
Y165000D01*
X103000Y154000D02*
Y166000D01*
Y154000D02*
X109000Y148000D01*
X112000D01*
X109000Y153000D02*
X117000D01*
X105000Y157000D02*
X109000Y153000D01*
X105000Y157000D02*
Y171000D01*
X98000Y178000D02*
X105000Y171000D01*
X117000Y153000D02*
X122000Y148000D01*
X161000Y140000D02*
Y147000D01*
Y140000D02*
X168579Y132421D01*
X173386D01*
X169610Y134390D02*
X173386D01*
X165000Y139000D02*
X169610Y134390D01*
X165000Y139000D02*
Y145000D01*
X168000Y139000D02*
Y159000D01*
Y139000D02*
X170642Y136358D01*
X173386D01*
X154000Y144000D02*
X167547Y130453D01*
X154000Y144000D02*
Y166000D01*
X167547Y130453D02*
X173386D01*
X122000Y138000D02*
X126000D01*
X129000Y135000D01*
X135000Y151000D02*
X137000D01*
X130000Y156000D02*
X135000Y151000D01*
X130000Y156000D02*
Y166000D01*
X118000Y178000D02*
X130000Y166000D01*
X110158Y178000D02*
X118000D01*
X110158Y177842D02*
Y178000D01*
X67000Y179000D02*
X78843D01*
X79843Y178000D01*
X103000Y201000D02*
X109158D01*
X110158Y200000D01*
X79843D02*
X80843Y201000D01*
X90000D01*
X44134Y63366D02*
X52500Y55000D01*
X44134Y63366D02*
Y67500D01*
X186000Y4000D02*
X303000D01*
X180000Y10000D02*
X186000Y4000D01*
X303000D02*
X307000Y8000D01*
X67000Y70000D02*
X73760D01*
X98000Y52626D02*
Y62000D01*
X97874Y52500D02*
X98000Y52626D01*
X54445Y113445D02*
Y119000D01*
X51000Y110000D02*
X54445Y113445D01*
X51000Y107500D02*
Y110000D01*
X74000Y119000D02*
X74500Y119500D01*
X54445Y119000D02*
X74000D01*
X59500Y145500D02*
X64000Y150000D01*
X62500Y111000D02*
Y115000D01*
X59000Y107500D02*
X62500Y111000D01*
X59000Y123555D02*
Y135000D01*
X54445Y119000D02*
X59000Y123555D01*
X73760Y63760D02*
Y70000D01*
X68445Y75315D02*
Y79311D01*
Y75315D02*
X73760Y70000D01*
X16000Y38803D02*
X22303Y32500D01*
X16000Y38803D02*
Y67500D01*
X20000Y100000D02*
X52000D01*
X16000Y96000D02*
X20000Y100000D01*
X16000Y92500D02*
Y96000D01*
X97500Y147500D02*
Y160000D01*
X92500Y165000D02*
X97500Y160000D01*
X89000Y165000D02*
X92500D01*
X16000Y80000D02*
Y92500D01*
X23000Y187000D02*
X121000D01*
X31000Y189000D02*
X122000D01*
X39000Y191000D02*
X123000D01*
X47000Y193000D02*
X124263D01*
X37500Y202500D02*
X47000Y193000D01*
X55000Y195000D02*
X125000D01*
X47500Y202500D02*
X55000Y195000D01*
X27500Y202500D02*
X39000Y191000D01*
X88000Y130500D02*
Y132500D01*
X82500Y125000D02*
X88000Y130500D01*
X67500Y125000D02*
X82500D01*
X65000Y127500D02*
X67500Y125000D01*
X65000Y127500D02*
Y142500D01*
X68563Y146063D01*
X73051D01*
X70095Y144095D02*
X73051D01*
X68000Y142000D02*
X70095Y144095D01*
X68000Y140000D02*
X71000Y137000D01*
Y132500D02*
Y137000D01*
X78563Y132937D02*
X79000Y132500D01*
X78563Y132937D02*
Y140551D01*
X35236Y144350D02*
X41650D01*
X51000Y135000D01*
X36575Y129980D02*
X47555Y119000D01*
X34843Y129980D02*
X36575D01*
X122000Y102000D02*
X179000D01*
X107500Y87500D02*
X122000Y102000D01*
X130000Y100000D02*
X180000D01*
X117500Y87500D02*
X130000Y100000D01*
X138000Y98000D02*
X181000D01*
X127500Y87500D02*
X138000Y98000D01*
X146000Y96000D02*
X182000D01*
X137500Y87500D02*
X146000Y96000D01*
X154000Y94000D02*
X183000D01*
X147500Y87500D02*
X154000Y94000D01*
X162000Y92000D02*
X184000D01*
X157500Y87500D02*
X162000Y92000D01*
X107500Y77500D02*
X110000Y75000D01*
Y56500D02*
Y75000D01*
X117500Y77500D02*
X120000Y75000D01*
Y56500D02*
Y75000D01*
X127500Y77500D02*
X130000Y75000D01*
Y56500D02*
Y75000D01*
X137500Y77500D02*
X140000Y75000D01*
Y56500D02*
Y75000D01*
X147500Y56500D02*
Y77500D01*
X167500Y87500D02*
X182500D01*
X183000Y94000D02*
X191890Y102890D01*
X182500Y87500D02*
X205000Y110000D01*
X182000Y96000D02*
X189921Y103921D01*
X181000Y98000D02*
X187953Y104953D01*
X180000Y100000D02*
X186000Y106000D01*
X179000Y102000D02*
X184016Y107016D01*
X13189Y129980D02*
X34843D01*
X11555Y128347D02*
X13189Y129980D01*
Y165020D01*
X34843D01*
X47500Y155000D02*
X51000D01*
X43150Y150650D02*
X47500Y155000D01*
X35236Y150650D02*
X43150D01*
X47500Y145000D02*
X51000D01*
X45000Y147500D02*
X47500Y145000D01*
X35236Y147500D02*
X45000D01*
X39386Y153799D02*
X50587Y165000D01*
X185984Y115886D02*
X186000Y115870D01*
X184000Y92000D02*
X193858Y101858D01*
Y115886D01*
X191890Y102890D02*
Y115886D01*
X189921Y103921D02*
Y115886D01*
X187953Y104953D02*
Y115886D01*
X186000Y106000D02*
Y115870D01*
X205000Y110000D02*
Y115000D01*
X196614Y118642D02*
X201358D01*
X205000Y115000D01*
X250000Y10000D02*
Y76000D01*
X260000Y10000D02*
Y72000D01*
X270000Y10000D02*
Y69000D01*
X280000Y10000D02*
Y65000D01*
X196614Y120610D02*
X205390D01*
X250000Y76000D01*
X290000Y10000D02*
Y59000D01*
X214453Y124547D02*
X270000Y69000D01*
X218484Y126516D02*
X280000Y65000D01*
X220516Y128484D02*
X290000Y59000D01*
X222547Y130453D02*
X300000Y53000D01*
Y10000D02*
Y53000D01*
X196614Y122579D02*
X209421D01*
X260000Y72000D01*
X196614Y124547D02*
X214453D01*
X196614Y126516D02*
X218484D01*
X196614Y128484D02*
X220516D01*
X305748Y105000D02*
X310551Y109803D01*
X277197Y119803D02*
X300551D01*
X306000Y115252D02*
Y124000D01*
X300551Y109803D02*
X306000Y115252D01*
X173386Y120610D02*
X178110D01*
X178504Y121004D01*
X182835Y125335D01*
X185000Y127500D01*
X166516Y128484D02*
X173386D01*
X165484Y126516D02*
X173386D01*
X152000Y143000D02*
X166516Y128484D01*
X164453Y124547D02*
X173386D01*
X150000Y142000D02*
X165484Y126516D01*
X148000Y141000D02*
X164453Y124547D01*
X196614Y130453D02*
X222547D01*
X225579Y132421D02*
X229000Y129000D01*
X258000Y105000D02*
X305748D01*
X196614Y132421D02*
X225579D01*
X196614Y134390D02*
X215390D01*
X217000Y136000D01*
X227000D01*
X258000Y105000D01*
Y139000D02*
X277197Y119803D01*
X196614Y136358D02*
X207358D01*
X210000Y139000D01*
X258000D01*
X284000Y146000D02*
X306000Y124000D01*
X197000Y146000D02*
X284000D01*
X193858Y139114D02*
Y142858D01*
X197000Y146000D01*
X280000Y174000D02*
Y200000D01*
X257000Y163000D02*
X270000Y176000D01*
Y200000D01*
X187953Y139114D02*
Y149953D01*
X185984Y139114D02*
Y151984D01*
X195000Y165000D02*
X247000D01*
X260000Y178000D01*
Y200000D01*
X193000Y167000D02*
X239000D01*
X250000Y178000D01*
Y200000D01*
X184016Y139114D02*
Y154016D01*
X195000Y165000D01*
X192000Y170000D02*
X233000D01*
X240000Y177000D01*
Y200000D01*
X182047Y139114D02*
Y156047D01*
X193000Y167000D01*
X180079Y139114D02*
Y158079D01*
X192000Y170000D01*
X178110Y139114D02*
Y160110D01*
X190000Y172000D01*
X224000D01*
X230000Y178000D01*
Y200000D01*
X176142Y139114D02*
Y162142D01*
X206000Y174000D02*
X214000Y182000D01*
Y200000D01*
X176142Y162142D02*
X188000Y174000D01*
X206000D01*
X168000Y159000D02*
X186000Y177000D01*
X196000D01*
X204000Y185000D01*
Y200000D01*
X173386Y118642D02*
X176142Y115886D01*
X153000Y109500D02*
X161500D01*
X170642Y118642D01*
X173386D01*
X146000Y140000D02*
X163421Y122579D01*
X173386D01*
X153000Y118500D02*
X155110Y120610D01*
X173386D01*
X65000Y147500D02*
X65531Y148031D01*
X59000Y155000D02*
X65000D01*
X64000Y150000D02*
X73051D01*
X65531Y148031D02*
X73051D01*
X35236Y153799D02*
X39386D01*
X50587Y165000D02*
X51500Y165913D01*
Y175000D01*
X44000D02*
X51500D01*
X68000Y140000D02*
Y142000D01*
Y140000D02*
X76043D01*
X76595Y140551D01*
X189921Y139114D02*
Y148921D01*
X185984Y151984D02*
X197000Y163000D01*
X257000D01*
X191890Y139114D02*
Y147890D01*
X201000Y157000D01*
X267000Y161000D02*
X280000Y174000D01*
X85000Y165000D02*
X89000D01*
X82500Y162500D02*
X85000Y165000D01*
X80532Y163531D02*
X85000Y168000D01*
X80532Y159449D02*
Y163531D01*
X82500Y159449D02*
Y162500D01*
X73051Y151969D02*
X80532D01*
X82500Y150000D01*
X19000Y187000D02*
X20000D01*
X28000Y179000D01*
X17500D02*
X28000D01*
X7500Y189000D02*
X17500Y179000D01*
X7500Y189000D02*
Y202500D01*
X307000Y8000D02*
Y93454D01*
X300552Y99902D02*
X307000Y93454D01*
X125000Y195000D02*
X154000Y166000D01*
X124263Y193000D02*
X152000Y165263D01*
Y143000D02*
Y165263D01*
X123000Y191000D02*
X150000Y164000D01*
Y142000D02*
Y164000D01*
X122000Y189000D02*
X148000Y163000D01*
Y141000D02*
Y163000D01*
X121000Y187000D02*
X146000Y162000D01*
Y140000D02*
Y162000D01*
X137000Y141500D02*
Y151000D01*
Y141500D02*
X138500D01*
X148000Y132000D01*
X174036Y110000D02*
X178110Y114074D01*
X173000Y110000D02*
X174036D01*
X178110Y114074D02*
Y115886D01*
X180079Y113079D02*
Y115886D01*
X184016Y107016D02*
Y115886D01*
X182047Y111047D02*
Y115886D01*
X176000Y106000D02*
Y109000D01*
X180079Y113079D01*
X180000Y109000D02*
X182047Y111047D01*
X180000Y108500D02*
Y109000D01*
X186500Y61000D02*
Y71713D01*
X191787Y77000D01*
X215500Y61000D02*
Y72500D01*
X211000Y77000D02*
X215500Y72500D01*
X195500Y61000D02*
X206500D01*
X300000Y182000D02*
Y200000D01*
X187953Y149953D02*
X199000Y161000D01*
X189921Y148921D02*
X200000Y159000D01*
X199000Y161000D02*
X267000D01*
X200000Y159000D02*
X277000D01*
X300000Y182000D01*
X7500Y202500D02*
X23000Y187000D01*
X17500Y202500D02*
X31000Y189000D01*
X70031Y151969D02*
X73051D01*
X69000Y153000D02*
X70031Y151969D01*
X69000Y153000D02*
Y157413D01*
X61413Y165000D02*
X69000Y157413D01*
X60500Y165913D02*
X61413Y165000D01*
X60500Y165913D02*
Y175000D01*
X65000D01*
X69000Y171000D01*
X60500Y175000D02*
X64500Y179000D01*
X67000D01*
X137000Y123500D02*
X142000Y118500D01*
X137000Y123500D02*
Y132500D01*
X140500D01*
X144000Y129000D01*
X137500Y118500D02*
X142000D01*
X133000Y123000D02*
X137500Y118500D01*
X206500Y50500D02*
Y61000D01*
Y50500D02*
X209000Y48000D01*
X195500Y61000D02*
Y66500D01*
X196000Y67000D01*
X8500Y177500D02*
Y179000D01*
Y177500D02*
X13000Y173000D01*
X57000Y73500D02*
Y95000D01*
X52000Y100000D02*
X57000Y95000D01*
X98000Y77000D02*
Y91587D01*
X201000Y157000D02*
X281000D01*
X290000Y166000D01*
Y145000D02*
Y165000D01*
X170000Y56500D02*
Y75000D01*
X167500Y77500D02*
X170000Y75000D01*
X160000Y56500D02*
Y75000D01*
X157500Y77500D02*
X160000Y75000D01*
D33*
X220000Y10000D02*
D03*
X210000D02*
D03*
X190000D02*
D03*
X180000D02*
D03*
X170000D02*
D03*
X200000D02*
D03*
X230000D02*
D03*
X112000Y148000D02*
D03*
X122000D02*
D03*
X112000Y138000D02*
D03*
X121999Y157901D02*
D03*
X111999D02*
D03*
X124000Y200000D02*
D03*
X134000D02*
D03*
X144000D02*
D03*
X174000D02*
D03*
X204000D02*
D03*
X194000D02*
D03*
X184000D02*
D03*
X164000D02*
D03*
X154000D02*
D03*
X240000D02*
D03*
X250000D02*
D03*
X270000D02*
D03*
X280000D02*
D03*
X290000D02*
D03*
X260000D02*
D03*
X230000D02*
D03*
X290000Y10000D02*
D03*
X260000D02*
D03*
X270000D02*
D03*
X280000D02*
D03*
X300000D02*
D03*
X310551Y109803D02*
D03*
X300551D02*
D03*
X310551Y119803D02*
D03*
X300552Y99902D02*
D03*
X310552D02*
D03*
X27500Y202500D02*
D03*
X57500D02*
D03*
X47500D02*
D03*
X37500D02*
D03*
X17500D02*
D03*
X7500D02*
D03*
X107500Y77500D02*
D03*
X117500D02*
D03*
X127500D02*
D03*
X137500D02*
D03*
X147500D02*
D03*
X157500D02*
D03*
X167500D02*
D03*
D34*
X160000Y10000D02*
D03*
X122000Y138000D02*
D03*
X214000Y200000D02*
D03*
X300000D02*
D03*
X250000Y10000D02*
D03*
X300551Y119803D02*
D03*
X67500Y202500D02*
D03*
D35*
X47500Y32500D02*
D03*
X22303D02*
D03*
D36*
X34902Y13996D02*
D03*
D37*
X310000Y140000D02*
D03*
D38*
X191787Y77000D02*
D03*
X211000D02*
D03*
D39*
X107500Y87500D02*
D03*
X117500D02*
D03*
X127500D02*
D03*
X137500D02*
D03*
X147500D02*
D03*
X157500D02*
D03*
X167500D02*
D03*
D40*
X199500Y19500D02*
D03*
X51000Y87000D02*
D03*
X50000Y75000D02*
D03*
X57000Y73500D02*
D03*
X105000Y128000D02*
D03*
X161000Y162000D02*
D03*
X157000Y158000D02*
D03*
X91000Y178000D02*
D03*
X98000D02*
D03*
X161000Y147000D02*
D03*
X129000Y135000D02*
D03*
X165000Y145000D02*
D03*
X103000Y201000D02*
D03*
X90000D02*
D03*
X175000Y40000D02*
D03*
X80000D02*
D03*
X67000Y70000D02*
D03*
X98000Y62000D02*
D03*
X74500Y119500D02*
D03*
X60000Y145000D02*
D03*
X62500Y115000D02*
D03*
X73760Y63760D02*
D03*
X100000Y142500D02*
D03*
X97500Y147500D02*
D03*
X52500Y55000D02*
D03*
X7500Y112500D02*
D03*
X25000Y145000D02*
D03*
X40000Y112500D02*
D03*
X20000Y150000D02*
D03*
X229000Y129000D02*
D03*
X217000Y136000D02*
D03*
X210000Y139000D02*
D03*
X197000Y146000D02*
D03*
X173000Y110000D02*
D03*
X65000Y147500D02*
D03*
Y155000D02*
D03*
X44000Y175000D02*
D03*
X68000Y140000D02*
D03*
X85000Y168000D02*
D03*
X89000Y165000D02*
D03*
X19000Y187000D02*
D03*
X76000Y30000D02*
D03*
X184000D02*
D03*
X148000Y132000D02*
D03*
X176000Y106000D02*
D03*
X180000Y108500D02*
D03*
X290000Y166000D02*
D03*
X116000Y125000D02*
D03*
X128000Y172000D02*
D03*
X44000Y181000D02*
D03*
X77000Y169000D02*
D03*
X69000Y171000D02*
D03*
X67000Y179000D02*
D03*
X144000Y129000D02*
D03*
X133000Y123000D02*
D03*
X209000Y48000D02*
D03*
X196000Y67000D02*
D03*
X13000Y173000D02*
D03*
X98000Y77000D02*
D03*
X290000Y145000D02*
D03*
D41*
X78169Y154331D02*
D03*
Y150000D02*
D03*
Y145669D02*
D03*
X86831Y154331D02*
D03*
Y150000D02*
D03*
Y145669D02*
D03*
X82500Y154331D02*
D03*
Y150000D02*
D03*
Y145669D02*
D03*
X191496Y133996D02*
D03*
Y129665D02*
D03*
Y125335D02*
D03*
Y121004D02*
D03*
X187165Y133996D02*
D03*
Y129665D02*
D03*
Y125335D02*
D03*
Y121004D02*
D03*
X182835Y133996D02*
D03*
Y129665D02*
D03*
Y125335D02*
D03*
Y121004D02*
D03*
X178504Y133996D02*
D03*
Y129665D02*
D03*
Y125335D02*
D03*
Y121004D02*
D03*
M02*
